<?xml version="1.0" encoding="UTF-8" standalone="no"?>
<!DOCTYPE svg PUBLIC "-//W3C//DTD SVG 1.1//EN" "http://www.w3.org/Graphics/SVG/1.1/DTD/svg11.dtd">
<svg xmlns="http://www.w3.org/2000/svg" version="1.1" viewBox="0.00 0.00 2109.00 1491.00">
<path fill="#FFE44C" d="
  M 872.44 457.44
  C 872.16 458.41 870.85 458.55 870.37 457.66
  C 869.66 456.36 868.89 455.70 868.06 455.67
  C 867.75 455.66 867.50 455.93 867.53 456.24
  C 867.64 457.27 867.57 458.06 867.33 458.60
  C 867.16 458.99 866.77 459.25 866.34 459.26
  C 863.13 459.39 860.99 459.32 859.90 459.05
  C 858.81 458.78 857.70 458.66 856.59 458.70
  C 855.28 458.75 854.32 458.59 853.70 458.23
  C 853.43 458.08 853.11 458.03 852.81 458.11
  C 852.75 458.12 850.48 458.13 846.00 458.12
  C 845.78 458.12 845.51 458.00 845.18 457.75
  C 844.99 457.61 844.76 457.54 844.53 457.54
  L 837.51 457.54
  C 837.19 457.54 836.88 457.48 836.58 457.36
  C 835.17 456.79 833.80 456.68 832.46 457.03
  C 830.37 457.56 828.56 457.70 827.01 457.46
  C 826.76 457.42 826.42 457.55 826.00 457.86
  C 825.71 458.07 825.36 458.17 825.00 458.14
  C 822.61 457.97 820.01 458.32 817.21 459.21
  C 816.95 459.29 816.68 459.33 816.41 459.33
  L 814.88 459.33
  C 814.48 459.33 814.08 459.40 813.70 459.54
  C 812.59 459.95 811.36 460.07 810.00 459.90
  C 809.64 459.85 809.27 459.92 808.95 460.10
  C 808.19 460.52 807.33 460.65 806.37 460.50
  C 805.91 460.42 805.45 460.52 805.07 460.78
  C 805.05 460.79 805.01 460.83 804.94 460.88
  C 804.60 461.12 804.18 461.23 803.77 461.18
  C 802.38 460.99 801.30 461.12 800.52 461.57
  C 800.36 461.66 800.17 461.71 799.98 461.71
  L 796.84 461.71
  C 796.71 461.71 796.58 461.75 796.47 461.82
  C 795.58 462.41 793.95 462.56 791.58 462.26
  C 791.22 462.21 790.85 462.26 790.52 462.40
  C 788.24 463.31 786.02 463.69 783.87 463.54
  C 783.54 463.51 783.21 463.60 782.93 463.78
  C 781.51 464.70 779.39 463.52 777.74 464.54
  C 777.26 464.83 776.53 464.89 775.55 464.70
  C 775.19 464.63 774.81 464.73 774.53 464.97
  C 773.70 465.69 772.14 465.10 770.82 465.61
  C 769.91 465.96 768.67 466.06 767.11 465.90
  C 766.70 465.85 766.28 465.96 765.93 466.20
  C 764.59 467.10 762.81 466.04 761.53 466.94
  C 761.25 467.14 760.90 467.23 760.56 467.18
  C 759.36 467.01 758.42 467.15 757.73 467.59
  C 757.63 467.65 757.52 467.69 757.41 467.70
  L 746.89 468.93
  C 746.55 468.97 746.22 469.09 745.92 469.27
  C 745.70 469.41 745.47 469.52 745.23 469.59
  C 744.46 469.84 743.54 469.97 742.47 469.97
  C 739.68 469.98 737.41 470.15 735.68 470.48
  C 734.46 470.72 733.67 470.81 733.31 470.76
  C 732.59 470.66 731.99 470.78 731.51 471.12
  C 731.22 471.33 730.86 471.42 730.51 471.38
  C 729.02 471.24 727.97 471.28 727.38 471.49
  C 725.26 472.25 724.07 471.54 722.27 472.34
  C 721.94 472.49 721.58 472.56 721.21 472.56
  L 713.54 472.56
  C 713.40 472.56 713.26 472.59 713.13 472.65
  C 711.88 473.22 710.19 473.38 708.06 473.13
  C 707.84 473.10 707.67 472.92 707.66 472.70
  C 707.65 472.47 707.81 472.28 708.03 472.24
  C 709.95 471.91 711.38 471.48 712.33 470.97
  C 712.59 470.83 712.87 470.76 713.16 470.76
  L 716.22 470.76
  C 716.46 470.76 716.69 470.70 716.89 470.59
  C 717.66 470.16 718.62 470.02 719.75 470.15
  C 720.07 470.19 720.39 470.12 720.66 469.95
  C 720.89 469.82 721.25 469.67 721.76 469.50
  C 722.54 469.24 723.37 469.09 724.24 469.04
  C 725.21 468.99 726.36 468.91 727.69 468.78
  C 728.10 468.75 729.03 468.56 730.46 468.21
  C 730.52 468.20 732.32 467.86 735.86 467.20
  C 736.17 467.15 736.59 467.13 737.14 467.15
  C 737.61 467.17 738.01 467.05 738.34 466.78
  C 738.62 466.55 738.99 466.45 739.35 466.51
  C 740.48 466.70 741.38 466.57 742.05 466.12
  C 742.23 466.00 742.45 465.93 742.67 465.93
  L 745.04 465.93
  C 745.38 465.93 745.72 465.89 746.05 465.81
  C 749.43 464.99 752.87 464.40 756.37 464.05
  C 756.56 464.03 756.79 463.93 757.05 463.76
  C 757.12 463.71 757.37 463.66 757.78 463.59
  C 758.86 463.44 759.94 463.27 761.01 463.10
  C 762.72 462.83 764.22 462.71 765.51 462.73
  C 767.04 462.76 768.12 462.62 768.76 462.29
  C 770.58 461.36 771.85 462.15 773.53 461.30
  C 774.11 461.01 774.94 460.97 776.02 461.18
  C 776.30 461.24 777.29 461.04 779.00 460.57
  C 782.00 459.74 784.57 459.25 786.72 459.10
  C 787.78 459.02 788.70 458.87 789.48 458.64
  C 791.03 458.17 792.33 458.01 793.39 458.16
  C 794.86 458.36 796.17 457.11 797.81 457.58
  C 798.14 457.68 798.50 457.59 798.74 457.35
  C 799.15 456.94 799.74 456.79 800.51 456.91
  C 802.09 457.15 803.48 456.12 805.27 456.34
  C 805.79 456.41 806.30 455.89 807.03 455.77
  C 808.31 455.57 809.22 455.41 809.76 455.28
  C 810.69 455.05 811.77 455.01 813.02 455.16
  C 813.35 455.20 813.67 455.10 813.93 454.89
  C 815.26 453.82 817.49 455.21 818.86 454.17
  C 819.17 453.94 819.55 453.83 819.93 453.87
  C 821.79 454.06 823.25 453.90 824.31 453.38
  C 824.54 453.27 824.80 453.26 825.04 453.34
  C 825.41 453.46 826.37 453.35 827.94 453.02
  C 831.48 452.27 834.50 451.88 836.99 451.85
  C 838.74 451.84 839.83 451.74 840.24 451.56
  C 840.75 451.34 841.10 451.17 841.30 451.05
  C 841.60 450.88 841.95 450.81 842.29 450.86
  C 843.58 451.05 844.65 450.94 845.50 450.53
  C 845.80 450.39 846.12 450.31 846.46 450.31
  L 852.15 450.32
  C 852.46 450.33 852.77 450.24 853.03 450.07
  C 853.06 450.06 853.10 450.02 853.15 449.97
  C 853.34 449.78 853.60 449.68 853.87 449.69
  C 855.70 449.74 857.63 449.37 859.64 448.57
  C 859.92 448.46 860.23 448.42 860.53 448.46
  C 862.22 448.67 863.68 448.63 864.91 448.35
  C 866.62 447.97 868.05 447.81 869.19 447.88
  C 871.52 448.03 873.64 447.68 875.54 446.85
  C 875.87 446.70 876.25 446.76 876.53 446.99
  C 876.96 447.34 877.34 447.37 877.69 447.06
  C 878.03 446.75 878.44 446.62 878.92 446.65
  C 881.24 446.81 882.83 446.74 883.70 446.43
  C 885.56 445.78 887.46 446.12 890.00 446.11
  C 890.37 446.10 890.72 446.00 891.02 445.80
  C 891.03 445.80 891.09 445.76 891.19 445.68
  C 891.51 445.46 891.91 445.37 892.30 445.45
  C 893.28 445.64 894.07 445.54 894.66 445.16
  C 895.08 444.90 895.58 444.79 896.06 444.85
  C 897.30 445.03 898.53 444.92 899.74 444.51
  C 900.17 444.36 900.63 444.29 901.09 444.30
  L 904.97 444.32
  C 905.35 444.33 905.72 444.21 906.03 444.00
  C 906.08 443.97 906.14 443.91 906.22 443.83
  C 906.33 443.73 906.47 443.68 906.61 443.68
  L 910.42 443.68
  C 910.64 443.68 910.86 443.63 911.06 443.53
  C 911.91 443.13 912.86 442.99 913.90 443.11
  C 914.31 443.16 914.71 443.05 915.05 442.82
  C 915.06 442.81 915.11 442.77 915.21 442.68
  C 915.50 442.43 915.89 442.33 916.27 442.40
  C 917.66 442.67 918.73 442.56 919.49 442.06
  C 919.67 441.95 919.87 441.89 920.07 441.89
  L 929.30 441.89
  C 929.68 441.89 930.05 441.82 930.40 441.67
  C 931.35 441.28 932.40 441.17 933.57 441.33
  C 934.01 441.39 934.45 441.28 934.81 441.02
  C 934.84 441.00 934.91 440.94 935.02 440.85
  C 935.15 440.74 935.32 440.68 935.49 440.68
  L 944.25 440.68
  C 944.52 440.68 944.79 440.60 945.01 440.44
  C 945.12 440.35 945.20 440.30 945.23 440.28
  C 945.39 440.16 945.59 440.09 945.79 440.09
  L 952.18 440.09
  C 952.41 440.09 952.64 440.02 952.84 439.88
  C 952.92 439.82 953.00 439.76 953.08 439.71
  C 953.31 439.54 953.58 439.45 953.87 439.45
  C 959.01 439.48 963.16 439.82 964.57 439.03
  C 964.73 438.93 964.92 438.88 965.10 438.88
  L 971.48 438.88
  C 971.70 438.88 971.92 438.79 972.08 438.64
  L 972.27 438.45
  C 972.37 438.35 972.50 438.29 972.65 438.29
  L 983.00 438.30
  C 983.37 438.30 983.73 438.21 984.05 438.04
  C 984.07 438.03 984.16 437.98 984.33 437.87
  C 984.55 437.75 984.79 437.68 985.05 437.68
  L 997.30 437.68
  C 997.64 437.68 997.99 437.62 998.31 437.49
  C 999.24 437.14 1000.05 436.99 1000.76 437.05
  C 1003.17 437.25 1005.12 437.09 1006.60 436.57
  C 1006.77 436.51 1006.95 436.48 1007.13 436.48
  L 1018.95 436.45
  C 1019.21 436.45 1019.45 436.35 1019.63 436.17
  C 1019.71 436.09 1019.84 436.01 1020.02 435.93
  C 1020.09 435.90 1020.15 435.89 1020.22 435.89
  L 1027.16 435.88
  C 1027.49 435.88 1027.80 435.78 1028.07 435.59
  C 1028.09 435.58 1028.14 435.54 1028.21 435.48
  C 1028.38 435.34 1028.60 435.26 1028.82 435.27
  C 1032.23 435.30 1034.95 435.30 1037.00 435.27
  C 1037.14 435.26 1037.35 435.16 1037.64 434.96
  C 1037.91 434.77 1038.23 434.67 1038.56 434.67
  L 1045.79 434.67
  C 1045.94 434.67 1046.07 434.64 1046.20 434.59
  L 1047.32 434.14
  C 1047.41 434.10 1047.51 434.08 1047.61 434.08
  L 1058.89 434.08
  C 1059.22 434.08 1059.54 434.16 1059.82 434.32
  C 1060.29 434.57 1060.60 434.70 1060.75 434.70
  C 1062.91 434.67 1065.91 434.66 1069.74 434.68
  C 1070.09 434.68 1070.44 434.78 1070.74 434.98
  C 1070.75 434.99 1070.83 435.04 1070.99 435.15
  C 1071.11 435.24 1071.26 435.29 1071.42 435.29
  L 1081.16 435.29
  C 1081.46 435.29 1081.76 435.37 1082.03 435.52
  L 1082.30 435.68
  C 1082.53 435.81 1082.79 435.88 1083.06 435.88
  L 1092.68 435.88
  C 1092.96 435.88 1093.22 435.95 1093.46 436.09
  L 1093.82 436.29
  C 1094.01 436.40 1094.22 436.46 1094.44 436.46
  L 1105.19 436.46
  C 1105.40 436.46 1105.61 436.51 1105.80 436.60
  C 1107.73 437.51 1111.60 437.09 1115.03 437.07
  C 1115.39 437.07 1115.74 437.13 1116.08 437.26
  C 1118.36 438.12 1124.11 437.68 1131.53 437.67
  C 1131.89 437.67 1132.25 437.76 1132.57 437.93
  C 1132.62 437.95 1132.71 438.00 1132.84 438.09
  C 1133.08 438.23 1133.34 438.30 1133.62 438.30
  L 1145.97 438.28
  C 1146.32 438.28 1146.67 438.37 1146.98 438.54
  C 1147.02 438.56 1147.09 438.61 1147.20 438.68
  C 1147.40 438.81 1147.62 438.88 1147.85 438.88
  L 1155.29 438.88
  C 1155.59 438.88 1155.88 438.98 1156.11 439.17
  C 1156.84 439.76 1162.05 439.46 1165.91 439.46
  C 1166.21 439.46 1166.50 439.54 1166.75 439.70
  C 1166.76 439.71 1166.83 439.77 1166.94 439.86
  C 1167.15 440.04 1167.41 440.14 1167.68 440.13
  C 1170.96 440.07 1174.55 439.70 1177.24 440.57
  C 1177.46 440.64 1177.69 440.68 1177.92 440.68
  L 1189.16 440.68
  C 1189.33 440.68 1189.49 440.75 1189.60 440.87
  C 1189.94 441.24 1190.49 441.40 1191.25 441.34
  C 1193.62 441.14 1195.38 441.30 1196.53 441.83
  C 1196.61 441.87 1196.69 441.89 1196.78 441.89
  L 1211.12 441.89
  C 1211.38 441.89 1211.63 441.96 1211.85 442.09
  C 1211.96 442.16 1212.04 442.20 1212.09 442.23
  C 1212.42 442.41 1212.79 442.50 1213.16 442.49
  L 1221.87 442.47
  C 1222.18 442.47 1222.49 442.56 1222.75 442.73
  C 1222.78 442.75 1222.84 442.80 1222.93 442.87
  C 1223.12 443.04 1223.37 443.12 1223.62 443.10
  C 1224.67 443.04 1225.39 443.12 1225.78 443.33
  C 1227.36 444.20 1228.87 443.10 1230.18 444.08
  C 1231.79 445.26 1233.69 444.88 1235.94 444.90
  C 1236.36 444.91 1236.75 445.12 1236.98 445.47
  C 1238.43 447.65 1240.00 446.01 1241.82 447.18
  C 1243.00 447.93 1244.22 448.11 1245.49 447.72
  C 1246.56 447.39 1247.60 448.33 1247.39 449.45
  C 1247.34 449.74 1247.16 450.08 1246.85 450.49
  C 1246.65 450.75 1246.33 450.91 1245.99 450.91
  L 1240.65 450.91
  C 1240.54 450.91 1240.43 450.89 1240.32 450.84
  C 1239.45 450.39 1238.02 450.21 1236.05 450.28
  C 1235.83 450.29 1235.62 450.34 1235.42 450.43
  C 1232.77 451.68 1230.59 450.25 1228.30 450.29
  C 1226.51 450.32 1224.88 450.33 1223.39 450.34
  C 1223.20 450.34 1223.01 450.26 1222.88 450.13
  L 1222.69 449.94
  C 1222.54 449.79 1222.33 449.70 1222.11 449.70
  L 1206.12 449.70
  C 1205.72 449.70 1205.33 449.61 1204.97 449.45
  C 1204.82 449.38 1204.66 449.32 1204.49 449.26
  C 1204.19 449.15 1203.87 449.10 1203.55 449.10
  L 1188.26 449.10
  C 1187.95 449.10 1187.65 449.01 1187.40 448.85
  C 1186.79 448.46 1186.23 448.33 1185.74 448.46
  C 1182.91 449.18 1180.66 449.61 1179.00 449.75
  C 1178.69 449.78 1178.39 449.90 1178.16 450.11
  C 1178.13 450.14 1178.09 450.18 1178.03 450.25
  C 1177.89 450.42 1177.63 450.41 1177.50 450.23
  C 1177.45 450.14 1177.39 450.08 1177.33 450.04
  C 1177.02 449.84 1176.67 449.72 1176.30 449.69
  C 1174.61 449.58 1173.16 449.03 1171.96 448.03
  C 1169.10 445.65 1167.55 444.59 1164.50 446.08
  C 1163.83 446.41 1162.83 446.58 1161.49 446.59
  C 1146.36 446.70 1138.33 446.74 1137.41 446.70
  C 1136.95 446.68 1136.49 446.56 1136.07 446.35
  C 1135.43 446.03 1134.47 445.96 1133.19 446.14
  C 1132.86 446.19 1132.52 446.10 1132.26 445.89
  C 1131.81 445.53 1130.94 445.39 1129.67 445.47
  C 1128.71 445.54 1127.80 445.48 1126.94 445.31
  C 1123.49 444.62 1120.57 444.27 1118.18 444.25
  C 1117.93 444.24 1117.69 444.15 1117.50 443.98
  C 1117.30 443.79 1117.13 443.69 1117.00 443.69
  C 1108.88 443.67 1104.19 443.68 1102.94 443.72
  C 1102.73 443.73 1102.52 443.67 1102.34 443.57
  L 1101.66 443.18
  C 1101.42 443.04 1101.14 442.97 1100.86 442.99
  C 1098.15 443.20 1095.96 443.16 1094.31 442.89
  C 1091.93 442.50 1090.37 442.34 1089.62 442.42
  C 1088.11 442.58 1087.06 442.53 1086.45 442.26
  C 1085.63 441.90 1084.59 441.77 1083.34 441.88
  C 1081.40 442.05 1079.43 441.88 1077.42 441.37
  C 1077.23 441.32 1077.04 441.29 1076.85 441.29
  L 1063.98 441.29
  C 1063.76 441.29 1063.55 441.34 1063.35 441.44
  C 1061.57 442.30 1059.57 441.44 1058.36 442.08
  C 1056.68 442.98 1055.14 441.94 1053.67 442.88
  C 1053.45 443.02 1053.19 443.10 1052.93 443.10
  L 1049.86 443.10
  C 1049.68 443.10 1049.51 443.15 1049.37 443.24
  C 1048.58 443.73 1047.32 443.86 1045.58 443.64
  C 1045.19 443.59 1044.79 443.68 1044.47 443.91
  C 1043.37 444.70 1042.01 443.98 1040.83 444.54
  C 1040.21 444.83 1039.27 444.95 1038.00 444.90
  C 1037.65 444.89 1037.30 444.98 1037.01 445.18
  C 1036.99 445.19 1036.93 445.23 1036.84 445.30
  C 1036.61 445.47 1036.32 445.57 1036.02 445.56
  C 1029.85 445.41 1024.61 445.43 1020.32 445.60
  C 1017.39 445.73 1016.85 448.57 1013.36 448.55
  C 1013.03 448.54 1012.70 448.63 1012.43 448.81
  C 1012.05 449.06 1011.66 449.16 1011.27 449.13
  C 1009.12 448.96 1007.34 449.09 1005.94 449.51
  C 1005.66 449.59 1005.38 449.63 1005.09 449.64
  C 1000.10 449.77 994.90 450.14 989.48 450.75
  C 989.12 450.79 988.05 450.70 986.27 450.48
  C 981.59 449.91 978.96 449.53 978.37 449.34
  C 977.97 449.20 977.62 448.95 977.36 448.62
  C 976.01 446.91 974.19 446.61 971.90 447.72
  C 970.68 448.31 969.75 448.06 969.10 446.99
  C 968.34 445.75 966.50 445.88 965.87 447.22
  C 965.62 447.75 965.45 448.13 965.34 448.36
  C 965.20 448.64 964.85 448.74 964.59 448.58
  C 963.87 448.16 963.07 447.92 962.19 447.85
  C 961.87 447.83 961.55 447.95 961.33 448.17
  L 959.56 449.94
  C 958.76 450.74 957.38 450.29 957.21 449.17
  L 956.97 447.64
  C 956.94 447.47 956.85 447.32 956.70 447.24
  L 953.40 445.34
  C 953.16 445.20 952.85 445.24 952.66 445.43
  C 951.96 446.13 951.61 446.51 951.62 446.58
  C 951.71 448.23 949.76 449.16 948.54 448.04
  C 947.91 447.46 947.51 447.06 947.35 446.85
  C 947.15 446.60 946.79 446.55 946.54 446.75
  C 945.35 447.68 944.25 448.07 943.22 447.90
  C 942.90 447.85 942.59 448.01 942.45 448.30
  C 941.51 450.22 940.20 449.29 938.63 450.22
  C 938.30 450.41 937.89 450.41 937.56 450.22
  C 935.49 449.04 933.82 449.06 932.57 450.29
  C 931.96 450.88 931.23 450.95 930.38 450.50
  C 928.31 449.41 927.16 449.34 926.92 450.31
  C 926.85 450.59 926.55 450.75 926.28 450.65
  C 925.81 450.47 925.24 450.36 924.56 450.32
  C 923.19 450.23 922.61 451.00 922.81 452.61
  C 922.91 453.42 921.94 453.89 921.36 453.32
  L 919.67 451.63
  C 919.43 451.39 919.07 451.30 918.74 451.41
  C 917.40 451.88 916.42 452.12 915.79 452.14
  C 914.96 452.22 914.14 452.43 913.37 452.76
  L 906.76 455.61
  C 906.48 455.73 906.16 455.77 905.85 455.74
  C 905.03 455.64 903.71 456.69 902.63 456.93
  C 902.47 456.97 902.30 456.97 902.14 456.92
  L 894.75 454.69
  C 894.66 454.66 894.59 454.62 894.52 454.56
  L 892.56 452.87
  C 892.34 452.68 892.03 452.66 891.78 452.80
  C 890.36 453.61 888.89 453.99 887.38 453.93
  C 887.13 453.92 886.90 454.02 886.74 454.21
  C 886.60 454.38 886.48 454.47 886.37 454.50
  C 886.07 454.59 885.74 454.51 885.52 454.29
  C 884.33 453.08 882.76 453.24 880.81 454.76
  C 880.24 455.20 879.57 455.28 878.80 454.99
  C 875.40 453.71 873.28 454.53 872.44 457.44
  Z
  M 971.54 444.95
  C 971.54 444.62 971.28 444.36 970.95 444.36
  C 970.62 444.36 970.36 444.62 970.36 444.95
  C 970.36 445.28 970.62 445.54 970.95 445.54
  C 971.28 445.54 971.54 445.28 971.54 444.95
  Z"
/>
<path fill="#FFE44C" d="
  M 371.91 478.68
  L 376.04 478.50
  C 376.29 478.49 376.52 478.33 376.63 478.10
  C 376.91 477.49 376.69 476.87 375.96 476.24
  C 375.72 476.03 375.76 475.65 376.03 475.49
  L 378.13 474.28
  C 378.41 474.12 378.75 474.34 378.72 474.66
  C 378.69 475.03 378.82 475.41 379.11 475.78
  C 379.31 476.03 379.61 476.17 379.92 476.17
  L 383.57 476.17
  C 384.45 476.17 385.00 477.11 384.56 477.87
  L 383.80 479.19
  C 383.65 479.45 383.57 479.74 383.57 480.03
  L 383.57 651.70
  C 383.57 651.90 383.61 652.09 383.68 652.28
  C 384.18 653.53 384.32 654.86 384.10 656.26
  C 384.01 656.84 384.22 657.92 384.74 659.50
  C 384.83 659.77 384.96 660.01 385.13 660.22
  C 385.30 660.44 385.39 660.72 385.38 661.00
  C 385.23 663.89 385.76 667.04 386.99 670.47
  C 387.15 670.93 387.22 671.43 387.18 671.92
  C 387.04 673.60 387.17 674.74 387.57 675.35
  C 387.78 675.67 387.85 676.28 387.80 677.18
  C 387.77 677.65 387.89 678.21 388.16 678.85
  C 388.40 679.43 388.60 680.35 388.76 681.62
  C 389.01 683.59 389.08 684.74 388.98 685.07
  C 388.87 685.40 388.98 685.77 389.25 685.99
  C 389.86 686.51 389.50 689.00 389.86 690.33
  C 390.51 692.76 390.82 694.50 390.77 695.55
  C 390.76 695.94 390.84 696.32 391.00 696.66
  C 391.43 697.52 391.53 698.81 391.32 700.54
  C 391.28 700.89 391.34 701.24 391.48 701.55
  C 391.81 702.24 391.97 703.05 391.96 703.99
  C 391.95 704.64 392.11 705.46 392.44 706.45
  C 392.92 707.94 393.21 709.67 393.32 711.64
  C 393.32 711.66 393.32 711.68 393.32 711.69
  L 395.76 725.98
  C 395.77 726.02 395.78 726.06 395.79 726.10
  C 396.40 727.97 396.85 729.94 397.13 732.00
  C 397.44 734.28 397.71 736.07 397.94 737.36
  C 398.43 740.13 398.71 741.92 398.77 742.74
  C 398.78 742.93 398.97 743.93 399.32 745.74
  C 399.65 747.45 399.83 748.89 399.84 750.06
  C 399.84 750.40 399.94 750.73 400.13 751.02
  C 400.16 751.06 400.21 751.13 400.28 751.24
  C 400.36 751.35 400.40 751.48 400.40 751.62
  L 400.40 762.49
  C 400.40 762.59 400.38 762.69 400.34 762.78
  C 399.23 765.31 400.13 768.06 399.37 771.31
  C 399.04 772.73 399.64 775.67 398.80 776.96
  C 398.61 777.26 398.52 777.62 398.56 777.98
  C 398.73 779.44 398.61 780.75 398.19 781.92
  C 398.06 782.28 397.99 782.66 397.99 783.04
  L 397.99 787.28
  C 397.99 787.34 397.98 787.40 397.95 787.45
  C 397.35 788.68 397.18 790.69 397.45 793.47
  C 397.48 793.84 397.39 794.21 397.19 794.52
  C 396.38 795.80 397.09 797.79 396.60 799.21
  C 396.16 800.49 396.03 802.10 396.22 804.03
  C 396.26 804.39 396.15 804.76 395.91 805.05
  C 395.32 805.76 395.60 807.70 395.62 809.77
  C 395.62 810.14 395.53 810.50 395.35 810.83
  C 394.52 812.33 395.41 813.89 394.62 815.39
  C 394.37 815.86 394.30 816.74 394.41 818.02
  C 394.43 818.28 394.35 818.54 394.18 818.75
  L 393.89 819.11
  C 393.83 819.18 393.80 819.27 393.80 819.37
  L 393.80 825.08
  C 393.80 825.40 393.75 825.73 393.65 826.04
  C 393.18 827.48 393.03 829.22 393.20 831.25
  C 393.28 832.20 393.14 832.93 392.78 833.45
  C 392.66 833.62 392.59 833.82 392.59 834.03
  L 392.59 840.16
  C 392.59 840.24 392.57 840.31 392.54 840.38
  C 391.97 841.37 391.79 842.73 391.99 844.47
  C 392.15 845.80 391.12 846.29 391.35 847.55
  C 391.50 848.33 391.36 849.09 390.95 849.83
  C 390.79 850.12 390.74 850.86 390.80 852.06
  C 390.81 852.24 390.79 852.43 390.72 852.61
  L 385.47 867.11
  C 385.40 867.30 385.37 867.51 385.37 867.72
  L 385.37 880.26
  C 385.37 880.79 385.56 881.30 385.91 881.70
  C 386.74 882.65 387.35 883.78 387.73 885.10
  C 387.80 885.34 387.81 885.60 387.74 885.84
  L 386.10 892.18
  C 386.05 892.38 386.02 892.59 386.01 892.80
  C 385.89 897.43 386.47 901.79 385.43 905.79
  C 385.03 907.36 385.79 909.68 385.09 911.38
  C 384.28 913.32 385.06 916.43 384.38 919.01
  C 384.09 920.11 384.02 921.47 384.17 923.09
  C 384.20 923.42 384.11 923.75 383.92 924.02
  C 383.01 925.28 384.05 927.31 383.23 928.89
  C 383.14 929.06 383.09 929.25 383.07 929.44
  C 382.67 934.51 382.92 939.32 383.82 943.86
  C 384.78 948.67 385.30 953.04 385.37 956.97
  C 385.37 957.05 385.38 957.13 385.39 957.22
  L 388.91 980.22
  C 388.93 980.37 388.94 980.51 388.94 980.66
  L 388.99 983.95
  C 388.99 984.29 389.05 984.64 389.17 984.96
  C 389.59 986.16 389.71 987.55 389.54 989.12
  C 389.50 989.50 389.60 989.88 389.82 990.18
  C 389.87 990.25 389.92 990.32 389.97 990.37
  C 390.15 990.57 390.24 990.85 390.20 991.12
  C 390.04 992.35 390.18 993.36 390.61 994.15
  C 390.73 994.38 390.80 994.64 390.80 994.91
  L 390.80 998.69
  C 390.80 998.81 390.85 998.93 390.94 999.02
  C 391.43 999.52 391.56 1000.66 391.35 1002.45
  C 391.34 1002.52 391.34 1002.60 391.35 1002.68
  L 392.79 1011.14
  C 392.83 1011.39 392.90 1011.63 393.00 1011.87
  L 393.14 1012.22
  C 393.17 1012.25 393.18 1012.28 393.17 1012.32
  C 393.03 1015.81 393.38 1019.19 394.23 1022.45
  C 394.54 1023.66 394.14 1024.75 394.53 1025.74
  C 395.04 1027.00 395.13 1028.72 394.94 1029.80
  C 394.88 1030.15 394.94 1030.51 395.13 1030.81
  C 395.60 1031.57 395.75 1032.90 395.57 1034.80
  C 395.55 1034.97 395.56 1035.14 395.61 1035.31
  L 397.17 1041.58
  C 397.34 1042.26 397.96 1042.74 398.67 1042.72
  C 399.76 1042.69 400.60 1042.47 401.19 1042.06
  C 401.36 1041.94 401.56 1041.88 401.76 1041.88
  L 409.06 1041.91
  C 409.42 1041.92 409.78 1041.80 410.08 1041.59
  C 410.10 1041.58 410.17 1041.52 410.28 1041.43
  C 410.37 1041.35 410.49 1041.30 410.62 1041.30
  L 415.51 1041.30
  C 416.92 1041.30 418.31 1041.08 419.66 1040.66
  C 425.97 1038.69 431.66 1037.31 436.75 1036.51
  C 438.37 1036.26 439.40 1035.97 439.85 1035.64
  C 440.12 1035.45 440.43 1035.35 440.76 1035.35
  C 441.89 1035.35 444.01 1034.85 447.11 1033.86
  C 448.60 1033.38 450.45 1033.05 452.66 1032.87
  C 452.71 1032.87 452.77 1032.86 452.82 1032.85
  L 470.90 1028.34
  C 470.91 1028.33 470.93 1028.33 470.94 1028.33
  C 473.26 1027.47 475.35 1026.96 477.22 1026.81
  C 477.47 1026.79 477.72 1026.72 477.95 1026.61
  C 479.25 1025.98 480.44 1025.66 481.53 1025.66
  C 481.85 1025.65 482.18 1025.59 482.48 1025.48
  C 484.39 1024.77 486.09 1024.82 487.58 1025.65
  C 487.82 1025.79 488.11 1025.81 488.37 1025.71
  C 489.00 1025.48 489.51 1025.56 489.92 1025.96
  C 489.95 1025.99 489.98 1026.00 490.01 1026.01
  L 495.95 1027.47
  C 495.98 1027.48 496.02 1027.48 496.05 1027.48
  C 499.71 1027.44 501.56 1029.49 503.53 1030.68
  C 503.89 1030.93 504.32 1031.07 504.76 1031.08
  L 506.21 1031.12
  C 506.28 1031.12 506.34 1031.14 506.39 1031.17
  C 507.90 1031.90 509.48 1031.96 511.14 1031.33
  C 512.23 1030.92 513.44 1030.87 514.77 1031.16
  C 518.98 1032.11 521.97 1032.87 523.76 1033.44
  C 524.03 1033.53 524.33 1033.54 524.61 1033.47
  C 525.01 1033.37 526.07 1033.56 527.79 1034.05
  C 529.27 1034.47 530.26 1034.73 530.76 1034.83
  C 535.11 1035.72 538.91 1036.49 542.16 1037.12
  C 542.32 1037.15 542.47 1037.20 542.61 1037.29
  C 543.21 1037.64 543.87 1037.77 544.58 1037.69
  C 545.07 1037.64 545.67 1037.69 546.38 1037.84
  C 550.56 1038.71 553.84 1039.56 556.22 1040.39
  C 557.84 1040.96 559.50 1040.93 561.20 1040.30
  C 562.06 1039.99 563.54 1039.69 565.64 1039.42
  C 566.08 1039.37 566.51 1039.23 566.89 1039.02
  C 568.20 1038.31 569.56 1038.35 570.95 1039.15
  C 571.19 1039.28 571.45 1039.37 571.71 1039.42
  C 574.52 1039.90 576.92 1039.22 578.93 1037.39
  C 579.14 1037.19 579.45 1036.86 579.85 1036.39
  C 580.56 1035.54 581.52 1035.12 582.73 1035.13
  C 583.74 1035.14 584.74 1035.00 585.75 1034.72
  C 587.33 1034.29 588.83 1033.85 590.24 1033.41
  C 590.51 1033.32 591.52 1033.26 593.27 1033.22
  C 595.56 1033.16 597.62 1032.84 599.45 1032.25
  C 599.87 1032.12 600.33 1032.16 600.71 1032.37
  C 601.47 1032.80 602.19 1032.98 602.86 1032.90
  C 603.26 1032.85 603.66 1033.02 603.90 1033.35
  C 604.42 1034.05 604.50 1035.14 605.31 1036.06
  C 606.37 1037.27 607.76 1038.17 609.48 1038.75
  C 609.75 1038.84 610.04 1038.89 610.33 1038.89
  L 635.93 1038.89
  C 636.13 1038.89 636.33 1038.91 636.52 1038.95
  L 662.65 1044.44
  C 662.75 1044.46 662.84 1044.50 662.93 1044.56
  C 664.05 1045.31 665.81 1044.41 666.94 1045.29
  C 667.22 1045.51 667.56 1045.59 667.97 1045.53
  C 668.26 1045.49 668.61 1045.52 669.03 1045.61
  C 671.46 1046.12 673.08 1046.48 673.89 1046.69
  C 675.18 1047.02 676.93 1047.36 679.13 1047.69
  C 680.40 1047.88 681.56 1048.13 682.63 1048.43
  C 684.30 1048.90 685.47 1049.14 686.12 1049.15
  C 686.63 1049.16 689.38 1049.64 694.37 1050.60
  C 697.34 1051.17 700.70 1051.11 704.45 1050.42
  C 704.80 1050.35 705.16 1050.32 705.51 1050.32
  L 713.74 1050.32
  C 714.02 1050.32 714.36 1050.37 714.74 1050.48
  C 715.09 1050.58 715.84 1050.56 716.99 1050.41
  C 719.86 1050.05 722.61 1050.35 725.23 1051.32
  C 725.90 1051.57 727.22 1051.63 729.21 1051.51
  C 729.65 1051.48 730.08 1051.58 730.46 1051.80
  C 731.05 1052.13 731.85 1052.23 732.87 1052.08
  C 733.18 1052.04 733.48 1052.10 733.75 1052.25
  L 734.44 1052.65
  C 734.60 1052.74 734.79 1052.78 734.98 1052.75
  C 736.41 1052.55 737.66 1052.69 738.72 1053.18
  C 739.05 1053.33 739.41 1053.39 739.76 1053.35
  C 741.69 1053.17 743.21 1053.33 744.33 1053.84
  C 744.44 1053.89 744.55 1053.92 744.67 1053.92
  L 758.91 1053.92
  C 759.13 1053.92 759.34 1053.97 759.53 1054.06
  C 760.14 1054.34 760.54 1054.48 760.75 1054.48
  C 781.86 1054.57 797.53 1054.59 807.78 1054.54
  C 808.02 1054.54 808.26 1054.61 808.47 1054.73
  L 808.81 1054.93
  C 809.01 1055.05 809.24 1055.11 809.48 1055.11
  C 814.51 1055.18 820.01 1055.12 825.97 1054.95
  C 827.48 1054.91 828.49 1054.77 828.99 1054.53
  C 829.49 1054.30 829.76 1054.17 829.81 1054.15
  C 830.09 1053.99 830.41 1053.91 830.73 1053.91
  L 843.47 1053.92
  C 843.59 1053.92 843.70 1053.88 843.80 1053.81
  C 844.48 1053.26 845.55 1053.11 847.01 1053.37
  C 847.43 1053.44 847.86 1053.32 848.18 1053.05
  C 848.51 1052.77 848.96 1052.66 849.53 1052.71
  C 850.08 1052.76 850.61 1052.57 851.00 1052.19
  C 851.72 1051.48 852.17 1050.95 852.35 1050.60
  C 853.08 1049.04 854.64 1048.03 856.36 1048.01
  L 862.92 1047.90
  C 863.06 1047.90 863.19 1047.92 863.32 1047.97
  C 864.83 1048.55 866.55 1048.95 868.47 1049.17
  C 868.82 1049.21 869.17 1049.30 869.50 1049.43
  C 872.17 1050.46 874.63 1051.17 876.89 1051.54
  C 878.01 1051.73 878.85 1052.48 880.24 1052.78
  C 881.55 1053.06 886.09 1054.27 893.88 1056.42
  C 896.40 1057.11 898.04 1057.55 898.79 1057.72
  C 900.46 1058.10 902.12 1058.65 903.75 1059.38
  C 903.96 1059.47 904.24 1059.44 904.59 1059.31
  C 904.90 1059.19 905.25 1059.22 905.53 1059.40
  C 906.05 1059.73 906.82 1060.08 907.85 1060.45
  C 908.98 1060.86 909.80 1061.12 910.30 1061.22
  C 913.98 1061.97 917.13 1062.84 919.74 1063.84
  C 921.08 1064.35 921.88 1063.88 923.05 1064.52
  C 924.30 1065.21 925.92 1065.69 927.91 1065.95
  C 928.13 1065.98 928.34 1066.02 928.55 1066.09
  C 934.10 1067.80 937.66 1068.90 939.23 1069.38
  C 939.90 1069.58 940.50 1069.63 941.02 1069.53
  C 941.18 1069.50 941.34 1069.52 941.48 1069.57
  C 944.89 1070.80 947.56 1071.61 949.47 1071.99
  C 951.33 1072.36 951.90 1073.39 954.08 1073.16
  C 954.24 1073.14 954.41 1073.16 954.56 1073.21
  L 961.83 1075.55
  C 962.03 1075.62 962.24 1075.64 962.44 1075.61
  C 962.75 1075.56 962.94 1075.55 963.00 1075.58
  C 967.76 1077.31 972.63 1078.75 977.60 1079.90
  C 977.69 1079.92 977.98 1080.03 978.34 1080.19
  C 978.53 1080.27 978.66 1080.31 978.73 1080.32
  C 982.38 1080.71 986.00 1080.01 989.58 1078.24
  C 989.88 1078.10 990.20 1078.02 990.53 1078.03
  C 991.80 1078.04 992.69 1077.92 993.20 1077.66
  C 995.12 1076.67 997.45 1075.96 1000.19 1075.53
  C 1000.43 1075.50 1000.66 1075.44 1000.89 1075.35
  C 1004.08 1074.22 1006.46 1073.68 1008.03 1073.71
  C 1008.43 1073.72 1008.82 1073.58 1009.14 1073.33
  C 1009.59 1072.96 1010.88 1072.51 1013.00 1071.97
  C 1016.45 1071.09 1019.96 1070.14 1023.55 1069.12
  C 1024.40 1068.88 1024.84 1068.75 1024.87 1068.74
  C 1026.34 1068.31 1029.32 1067.41 1033.79 1066.04
  C 1034.28 1065.89 1034.67 1066.00 1035.08 1065.89
  C 1040.06 1064.56 1045.86 1062.95 1052.48 1061.04
  C 1053.21 1060.83 1053.86 1060.57 1054.41 1060.26
  C 1055.39 1059.73 1056.40 1060.02 1057.65 1059.58
  C 1059.77 1058.84 1062.47 1058.05 1065.76 1057.21
  C 1069.27 1056.30 1071.34 1055.70 1071.97 1055.40
  C 1073.24 1054.78 1074.37 1055.56 1075.61 1054.50
  C 1075.85 1054.30 1076.13 1054.16 1076.42 1054.10
  C 1082.16 1052.89 1086.73 1051.64 1090.13 1050.34
  C 1091.68 1049.75 1092.67 1049.53 1093.10 1049.70
  C 1093.34 1049.80 1093.61 1049.76 1093.81 1049.59
  C 1094.38 1049.11 1095.15 1049.14 1096.10 1049.68
  C 1096.37 1049.83 1096.55 1050.10 1096.60 1050.40
  C 1097.15 1053.63 1098.69 1055.88 1101.23 1057.16
  C 1103.90 1058.51 1107.31 1058.22 1110.76 1058.02
  C 1111.33 1057.99 1112.12 1057.79 1113.11 1057.44
  C 1115.81 1056.48 1118.01 1055.39 1119.71 1054.17
  C 1120.13 1053.88 1120.62 1053.70 1121.14 1053.67
  L 1130.74 1053.15
  C 1130.97 1053.14 1131.19 1053.09 1131.40 1053.02
  L 1135.89 1051.55
  C 1135.92 1051.54 1135.95 1051.53 1135.99 1051.53
  L 1142.51 1051.53
  C 1142.85 1051.53 1143.19 1051.62 1143.48 1051.79
  L 1143.79 1051.97
  C 1143.96 1052.07 1144.16 1052.12 1144.36 1052.12
  L 1150.99 1052.12
  C 1151.31 1052.12 1151.63 1052.21 1151.90 1052.39
  C 1152.29 1052.64 1152.57 1052.76 1152.75 1052.75
  C 1154.52 1052.70 1156.92 1052.69 1159.97 1052.70
  C 1160.30 1052.70 1160.62 1052.81 1160.87 1053.01
  C 1160.95 1053.06 1161.03 1053.13 1161.12 1053.20
  C 1161.22 1053.28 1161.33 1053.32 1161.45 1053.32
  L 1173.07 1053.32
  C 1173.40 1053.32 1173.72 1053.41 1174.00 1053.57
  L 1174.37 1053.79
  C 1174.51 1053.88 1174.68 1053.92 1174.85 1053.92
  L 1186.23 1053.92
  C 1186.60 1053.92 1186.96 1054.01 1187.29 1054.19
  C 1187.44 1054.27 1187.55 1054.32 1187.60 1054.35
  C 1187.85 1054.47 1188.12 1054.54 1188.40 1054.54
  L 1193.88 1054.54
  C 1194.03 1054.54 1194.18 1054.58 1194.32 1054.66
  C 1195.64 1055.42 1199.00 1055.13 1203.42 1055.12
  C 1204.26 1055.11 1205.10 1055.17 1205.93 1055.30
  C 1209.72 1055.87 1212.50 1055.98 1214.29 1055.61
  C 1217.86 1054.89 1221.23 1054.89 1224.38 1055.62
  C 1224.64 1055.68 1224.90 1055.71 1225.17 1055.71
  L 1232.39 1055.71
  C 1232.58 1055.71 1232.76 1055.78 1232.89 1055.91
  C 1233.34 1056.30 1234.05 1056.46 1235.00 1056.39
  C 1238.06 1056.16 1240.53 1056.31 1242.42 1056.84
  C 1242.80 1056.95 1243.21 1056.98 1243.61 1056.93
  C 1243.78 1056.92 1247.16 1056.91 1253.75 1056.92
  C 1254.00 1056.92 1254.44 1057.08 1255.07 1057.39
  C 1255.29 1057.50 1255.53 1057.55 1255.77 1057.55
  L 1261.56 1057.55
  C 1261.90 1057.55 1262.23 1057.64 1262.52 1057.81
  L 1262.76 1057.95
  C 1262.96 1058.07 1263.19 1058.13 1263.43 1058.13
  L 1272.70 1058.12
  C 1273.11 1058.12 1273.52 1058.21 1273.89 1058.39
  C 1273.94 1058.42 1274.04 1058.47 1274.18 1058.55
  C 1274.40 1058.69 1274.66 1058.76 1274.93 1058.75
  L 1280.00 1058.70
  C 1280.38 1058.70 1280.75 1058.80 1281.07 1058.98
  C 1281.09 1058.99 1281.17 1059.04 1281.32 1059.13
  C 1281.34 1059.14 1281.36 1059.15 1281.39 1059.15
  L 1302.80 1059.99
  C 1302.88 1059.99 1302.97 1060.01 1303.04 1060.06
  C 1304.46 1060.84 1306.81 1060.54 1310.84 1060.55
  C 1311.22 1060.55 1311.58 1060.67 1311.88 1060.88
  C 1311.94 1060.92 1312.01 1060.97 1312.08 1061.04
  C 1312.14 1061.10 1312.23 1061.13 1312.33 1061.13
  L 1319.93 1061.13
  C 1320.24 1061.13 1320.55 1061.18 1320.85 1061.27
  C 1323.82 1062.22 1328.10 1061.72 1331.25 1061.73
  C 1331.61 1061.73 1331.96 1061.83 1332.26 1062.02
  C 1332.33 1062.06 1332.40 1062.11 1332.47 1062.16
  C 1332.63 1062.28 1332.82 1062.34 1333.02 1062.34
  L 1345.65 1062.34
  C 1345.77 1062.34 1345.88 1062.36 1345.99 1062.41
  C 1348.44 1063.47 1351.21 1062.35 1353.31 1063.25
  C 1354.08 1063.58 1356.31 1063.66 1360.01 1063.51
  C 1361.13 1063.46 1362.93 1063.62 1365.41 1063.99
  C 1367.70 1064.33 1369.85 1064.31 1371.85 1063.94
  C 1373.83 1063.57 1375.14 1063.43 1375.79 1063.53
  C 1376.82 1063.69 1377.92 1063.55 1379.09 1063.10
  C 1379.78 1062.84 1380.52 1062.78 1381.23 1062.94
  L 1395.10 1065.96
  C 1395.89 1066.13 1396.71 1065.98 1397.38 1065.54
  C 1397.69 1065.34 1398.11 1065.28 1398.64 1065.37
  C 1399.27 1065.48 1399.91 1065.34 1400.44 1064.98
  C 1403.00 1063.23 1405.91 1061.93 1409.16 1061.06
  C 1410.00 1060.84 1411.39 1059.79 1413.34 1057.91
  C 1413.59 1057.67 1413.92 1057.54 1414.26 1057.54
  L 1416.72 1057.54
  C 1416.94 1057.54 1417.16 1057.48 1417.35 1057.36
  C 1417.99 1056.95 1419.03 1056.80 1420.46 1056.90
  C 1420.79 1056.93 1421.13 1056.89 1421.45 1056.79
  C 1423.90 1056.03 1426.13 1055.67 1428.14 1055.70
  C 1428.71 1055.71 1429.47 1055.55 1430.42 1055.20
  C 1430.81 1055.07 1431.59 1055.05 1432.76 1055.14
  C 1433.12 1055.17 1433.48 1055.08 1433.78 1054.88
  C 1435.01 1054.05 1435.93 1055.06 1436.89 1054.17
  C 1437.63 1053.47 1440.09 1054.29 1441.32 1053.52
  C 1441.63 1053.33 1442.00 1053.24 1442.36 1053.27
  C 1445.19 1053.55 1447.91 1053.21 1450.52 1052.24
  C 1450.84 1052.12 1451.19 1052.08 1451.53 1052.11
  C 1452.85 1052.24 1453.85 1052.10 1454.53 1051.69
  C 1454.69 1051.59 1454.88 1051.54 1455.07 1051.54
  L 1457.34 1051.54
  C 1457.41 1051.54 1457.49 1051.53 1457.56 1051.51
  C 1460.05 1050.78 1462.28 1050.38 1464.25 1050.30
  C 1465.06 1050.26 1465.28 1049.70 1466.25 1049.68
  C 1469.42 1049.63 1472.26 1048.82 1474.79 1047.24
  C 1475.84 1046.58 1476.97 1047.00 1477.73 1045.78
  C 1478.01 1045.33 1478.42 1045.08 1478.96 1045.01
  C 1479.28 1044.98 1479.75 1044.77 1480.37 1044.39
  C 1483.92 1042.23 1488.26 1040.04 1493.39 1037.83
  C 1493.61 1037.74 1493.85 1037.69 1494.09 1037.69
  L 1540.69 1037.69
  C 1541.00 1037.69 1541.30 1037.81 1541.52 1038.03
  L 1543.86 1040.37
  C 1544.19 1040.70 1544.67 1040.83 1545.13 1040.72
  C 1546.63 1040.35 1546.64 1041.33 1547.94 1041.32
  C 1550.05 1041.30 1552.42 1041.30 1555.05 1041.31
  C 1555.32 1041.31 1555.58 1041.23 1555.80 1041.07
  C 1555.88 1041.01 1555.95 1040.95 1556.01 1040.90
  C 1556.07 1040.85 1556.14 1040.83 1556.21 1040.82
  C 1558.86 1040.53 1560.86 1040.56 1562.19 1040.93
  C 1564.54 1041.57 1566.44 1041.03 1568.61 1041.58
  C 1569.79 1041.89 1570.49 1042.23 1570.72 1042.62
  C 1570.89 1042.92 1571.20 1043.11 1571.54 1043.11
  L 1577.36 1043.11
  C 1577.45 1043.11 1577.53 1043.09 1577.62 1043.05
  C 1580.55 1041.73 1584.02 1041.54 1588.01 1042.47
  C 1589.15 1042.74 1590.07 1042.92 1590.76 1043.01
  C 1591.13 1043.06 1593.74 1043.09 1598.58 1043.10
  C 1598.90 1043.10 1599.21 1043.17 1599.49 1043.31
  C 1601.07 1044.08 1602.79 1043.39 1604.50 1043.96
  C 1605.83 1044.39 1607.92 1044.49 1610.78 1044.25
  C 1611.77 1044.16 1612.61 1044.33 1613.29 1044.76
  C 1613.58 1044.95 1613.93 1045.03 1614.27 1044.98
  C 1616.61 1044.69 1618.42 1044.85 1619.69 1045.47
  C 1620.02 1045.64 1620.41 1045.65 1620.75 1045.52
  C 1620.76 1045.51 1622.86 1045.51 1627.04 1045.51
  C 1627.40 1045.51 1627.77 1045.56 1628.12 1045.67
  C 1629.69 1046.15 1631.55 1046.28 1633.68 1046.06
  C 1634.05 1046.02 1634.42 1046.08 1634.75 1046.23
  C 1636.57 1047.06 1639.21 1046.09 1640.84 1047.11
  C 1641.06 1047.25 1641.32 1047.32 1641.57 1047.32
  L 1649.98 1047.32
  C 1650.26 1047.32 1650.53 1047.40 1650.76 1047.55
  C 1652.21 1048.52 1654.39 1047.44 1656.09 1048.38
  C 1656.27 1048.48 1656.47 1048.53 1656.67 1048.53
  L 1662.05 1048.53
  C 1662.44 1048.53 1662.83 1048.59 1663.21 1048.71
  C 1664.75 1049.19 1666.42 1049.31 1668.22 1049.07
  C 1668.69 1049.00 1669.17 1049.07 1669.61 1049.25
  C 1670.81 1049.74 1672.86 1049.89 1675.76 1049.68
  C 1676.32 1049.63 1676.88 1049.69 1677.42 1049.86
  C 1679.61 1050.52 1681.99 1050.57 1684.56 1050.00
  C 1686.10 1049.67 1687.82 1049.56 1689.73 1049.68
  C 1690.87 1049.76 1691.83 1048.85 1691.82 1047.71
  L 1691.80 1043.15
  C 1691.80 1042.88 1691.91 1042.61 1692.11 1042.42
  C 1692.12 1042.41 1692.17 1042.33 1692.27 1042.17
  C 1692.35 1042.04 1692.40 1041.89 1692.39 1041.74
  C 1692.32 1034.72 1692.33 1019.06 1692.42 994.75
  C 1692.42 994.51 1692.52 994.15 1692.72 993.68
  C 1693.25 992.43 1692.78 991.17 1693.37 989.82
  C 1693.51 989.50 1693.58 989.15 1693.58 988.79
  L 1693.58 952.21
  C 1693.58 951.93 1693.51 951.65 1693.38 951.40
  C 1692.54 949.78 1693.51 948.12 1692.58 946.69
  C 1692.29 946.24 1692.23 945.71 1692.42 945.10
  C 1692.52 944.75 1692.42 944.37 1692.15 944.11
  C 1691.94 943.91 1691.82 943.52 1691.78 942.95
  C 1691.68 941.51 1690.94 939.82 1690.30 938.60
  C 1690.07 938.17 1689.95 937.69 1689.95 937.20
  L 1689.95 933.94
  C 1689.95 933.57 1689.85 933.22 1689.66 932.91
  C 1688.85 931.62 1687.96 930.62 1686.97 929.91
  C 1686.56 929.61 1686.27 929.18 1686.14 928.69
  L 1684.10 920.80
  C 1684.07 920.69 1684.06 920.59 1684.05 920.48
  C 1683.90 918.41 1683.48 916.09 1682.79 913.53
  C 1682.68 913.13 1682.69 911.47 1682.81 908.54
  C 1682.82 908.36 1682.88 908.18 1682.98 908.04
  L 1686.53 902.78
  C 1686.80 902.38 1686.95 901.90 1686.95 901.42
  L 1686.95 887.35
  C 1686.95 886.95 1686.88 886.56 1686.73 886.19
  C 1685.65 883.32 1685.42 880.56 1686.04 877.89
  C 1686.34 876.61 1686.45 875.67 1686.37 875.06
  C 1686.22 873.93 1686.36 873.14 1686.78 872.71
  C 1686.89 872.60 1686.95 872.45 1686.95 872.30
  L 1686.95 867.89
  C 1686.95 867.61 1687.03 867.34 1687.18 867.10
  C 1688.20 865.53 1687.02 863.60 1687.96 861.93
  C 1688.13 861.63 1688.21 861.29 1688.18 860.95
  C 1687.99 857.92 1688.34 854.95 1689.23 852.02
  C 1689.26 851.91 1689.28 851.80 1689.29 851.69
  L 1690.08 839.78
  C 1690.08 839.75 1690.09 839.72 1690.11 839.69
  C 1690.56 838.81 1690.71 837.82 1690.57 836.72
  C 1690.51 836.29 1690.64 835.86 1690.92 835.54
  C 1690.93 835.53 1690.97 835.47 1691.03 835.37
  C 1691.13 835.21 1691.17 835.03 1691.16 834.85
  C 1691.05 833.56 1691.19 832.50 1691.58 831.67
  C 1691.71 831.39 1691.78 831.09 1691.78 830.78
  C 1691.78 828.48 1691.65 827.19 1691.94 825.42
  C 1692.25 823.47 1692.77 819.38 1693.50 813.14
  C 1694.01 808.77 1694.24 804.67 1694.19 800.83
  C 1694.16 798.49 1694.15 786.72 1694.17 765.51
  C 1694.17 765.26 1694.05 764.97 1693.82 764.65
  C 1693.66 764.44 1693.58 764.19 1693.59 763.94
  C 1693.63 755.45 1693.58 750.38 1693.45 748.75
  C 1693.45 748.72 1693.34 748.30 1693.13 747.47
  C 1693.10 747.36 1693.08 747.24 1693.08 747.13
  L 1692.10 725.21
  C 1692.10 725.18 1692.10 725.16 1692.09 725.14
  C 1691.92 724.86 1691.84 724.65 1691.83 724.50
  C 1691.78 721.39 1691.77 716.91 1691.80 711.08
  C 1691.80 710.72 1691.70 710.37 1691.51 710.07
  C 1691.45 709.98 1691.40 709.91 1691.37 709.85
  C 1691.23 709.65 1691.16 709.41 1691.16 709.16
  L 1691.16 701.84
  C 1691.16 701.55 1691.07 701.27 1690.91 701.04
  C 1690.89 701.01 1690.83 700.93 1690.73 700.79
  C 1690.61 700.63 1690.55 700.43 1690.56 700.23
  C 1690.58 697.87 1691.07 693.08 1690.14 691.10
  C 1690.01 690.84 1689.95 690.56 1689.95 690.28
  L 1689.95 670.75
  C 1689.95 670.57 1689.99 670.39 1690.07 670.23
  L 1690.51 669.25
  C 1690.56 669.16 1690.58 669.06 1690.58 668.96
  L 1690.58 647.51
  C 1690.58 647.12 1690.66 646.74 1690.82 646.39
  C 1690.86 646.30 1690.90 646.21 1690.94 646.12
  C 1691.09 645.78 1691.16 645.41 1691.16 645.03
  L 1691.16 601.79
  C 1691.16 601.60 1691.13 601.41 1691.08 601.22
  C 1690.34 598.80 1689.97 596.52 1689.96 594.37
  C 1689.96 594.03 1689.91 593.70 1689.82 593.37
  C 1688.92 590.16 1688.30 586.47 1687.95 582.29
  C 1687.88 581.46 1687.70 580.66 1687.43 579.90
  C 1687.06 578.88 1686.91 578.04 1686.97 577.38
  C 1687.03 576.74 1687.00 576.35 1686.87 576.22
  C 1686.78 576.13 1686.66 575.96 1686.52 575.73
  C 1686.35 575.43 1686.28 575.08 1686.33 574.74
  C 1686.59 573.10 1685.76 572.23 1685.76 570.72
  C 1685.75 562.41 1685.76 555.93 1685.77 551.26
  C 1685.77 550.46 1685.25 549.89 1685.23 549.26
  C 1685.11 546.18 1685.10 536.59 1685.19 520.50
  C 1685.20 519.91 1685.41 519.42 1685.83 519.03
  C 1688.37 516.70 1689.13 511.32 1688.76 509.22
  C 1688.46 507.51 1688.28 506.21 1688.21 505.31
  C 1688.13 504.24 1687.86 502.95 1687.39 501.43
  C 1686.02 496.97 1685.12 494.43 1684.69 493.81
  C 1684.42 493.40 1683.91 492.12 1683.18 489.97
  C 1682.24 487.17 1683.19 484.34 1682.28 481.44
  C 1682.17 481.10 1682.12 480.74 1682.13 480.38
  C 1682.16 476.83 1682.44 473.55 1681.77 472.43
  C 1681.63 472.21 1681.56 471.95 1681.56 471.69
  L 1681.56 459.79
  C 1681.56 459.48 1681.48 459.17 1681.32 458.89
  L 1681.08 458.48
  C 1680.99 458.32 1680.94 458.13 1680.94 457.94
  L 1680.94 449.87
  C 1680.94 449.56 1680.90 449.26 1680.82 448.97
  C 1680.05 446.11 1677.95 445.31 1674.52 446.57
  C 1674.28 446.66 1674.03 446.70 1673.77 446.70
  L 1666.14 446.70
  C 1665.97 446.70 1665.80 446.74 1665.66 446.83
  L 1665.15 447.13
  C 1664.95 447.25 1664.72 447.31 1664.48 447.31
  L 1654.99 447.31
  C 1654.66 447.31 1654.34 447.39 1654.04 447.54
  C 1653.88 447.63 1653.77 447.68 1653.72 447.71
  C 1653.48 447.83 1653.20 447.90 1652.92 447.90
  L 1643.80 447.90
  C 1643.46 447.90 1643.12 447.97 1642.80 448.10
  C 1642.15 448.36 1641.71 448.49 1641.50 448.49
  C 1637.77 448.48 1635.43 448.49 1634.49 448.51
  C 1634.12 448.52 1633.75 448.63 1633.43 448.83
  C 1633.40 448.84 1633.33 448.90 1633.21 448.99
  C 1633.13 449.06 1633.02 449.10 1632.91 449.10
  L 1624.95 449.10
  C 1624.56 449.10 1624.19 449.21 1623.86 449.41
  C 1623.81 449.44 1623.73 449.49 1623.64 449.54
  C 1623.48 449.64 1623.29 449.69 1623.10 449.69
  L 1608.74 449.69
  C 1608.38 449.69 1608.03 449.79 1607.72 449.99
  C 1607.70 450.00 1607.62 450.06 1607.48 450.16
  C 1607.35 450.26 1607.19 450.31 1607.03 450.31
  L 1597.10 450.31
  C 1596.79 450.31 1596.49 450.39 1596.23 450.55
  L 1595.96 450.70
  C 1595.72 450.84 1595.46 450.91 1595.19 450.91
  L 1586.57 450.91
  C 1586.30 450.91 1586.04 451.01 1585.85 451.20
  L 1585.66 451.39
  C 1585.58 451.47 1585.46 451.52 1585.34 451.52
  L 1575.48 451.52
  C 1575.19 451.52 1574.90 451.60 1574.64 451.75
  C 1574.49 451.84 1574.40 451.89 1574.35 451.92
  C 1574.15 452.04 1573.91 452.11 1573.67 452.11
  L 1564.88 452.11
  C 1564.79 452.11 1564.71 452.12 1564.62 452.15
  C 1562.73 452.80 1560.32 452.94 1557.40 452.56
  C 1556.76 452.48 1556.20 452.10 1555.89 451.53
  L 1552.42 445.29
  C 1552.40 445.25 1552.37 445.21 1552.34 445.18
  C 1549.32 441.65 1545.44 440.52 1540.71 441.78
  C 1540.38 441.87 1540.03 441.90 1539.69 441.88
  C 1537.02 441.75 1535.00 441.92 1533.61 442.38
  C 1533.26 442.50 1532.89 442.55 1532.51 442.52
  C 1530.10 442.34 1528.41 442.40 1527.42 442.69
  C 1525.93 443.13 1524.81 443.27 1524.05 443.12
  C 1523.24 442.95 1522.27 443.08 1521.16 443.50
  C 1520.84 443.62 1520.51 443.68 1520.17 443.68
  C 1517.79 443.70 1515.13 443.31 1513.47 444.14
  C 1512.04 444.85 1510.23 443.72 1508.77 444.72
  C 1508.57 444.85 1508.34 444.92 1508.11 444.92
  L 1504.06 444.87
  C 1503.66 444.86 1503.27 444.97 1502.92 445.18
  C 1502.91 445.19 1502.84 445.24 1502.69 445.33
  C 1502.53 445.43 1502.35 445.49 1502.16 445.49
  L 1494.80 445.49
  C 1494.59 445.49 1494.39 445.56 1494.22 445.68
  C 1492.79 446.68 1490.54 445.77 1488.71 446.56
  C 1488.40 446.70 1488.06 446.76 1487.72 446.74
  C 1485.35 446.58 1483.78 446.63 1483.01 446.89
  C 1480.70 447.66 1479.48 446.91 1477.31 447.73
  C 1477.00 447.84 1476.67 447.90 1476.35 447.90
  L 1470.38 447.90
  C 1470.23 447.90 1470.08 447.97 1469.99 448.09
  C 1469.24 449.00 1466.76 448.19 1465.50 448.91
  C 1465.19 449.09 1464.83 449.16 1464.47 449.13
  C 1462.61 448.96 1461.02 449.11 1459.69 449.58
  C 1459.46 449.66 1459.22 449.70 1458.98 449.70
  L 1451.40 449.70
  C 1451.19 449.70 1450.98 449.78 1450.83 449.93
  C 1450.48 450.28 1450.04 450.42 1449.49 450.35
  C 1447.76 450.12 1446.43 450.27 1445.48 450.79
  C 1445.34 450.87 1445.19 450.91 1445.04 450.91
  L 1439.84 450.91
  C 1439.60 450.91 1439.37 450.95 1439.15 451.04
  C 1437.88 451.57 1436.38 451.71 1434.64 451.48
  C 1434.29 451.43 1433.94 451.49 1433.63 451.65
  C 1432.69 452.14 1431.25 452.28 1429.31 452.05
  C 1428.96 452.00 1428.61 452.06 1428.29 452.22
  C 1425.91 453.41 1423.04 452.17 1420.83 453.17
  C 1420.47 453.33 1420.08 453.39 1419.69 453.36
  C 1417.24 453.15 1415.24 453.32 1413.67 453.87
  C 1413.59 453.90 1413.51 453.91 1413.43 453.91
  L 1407.51 453.91
  C 1407.16 453.91 1406.81 453.98 1406.48 454.11
  C 1405.33 454.58 1404.00 454.71 1402.50 454.50
  C 1402.18 454.45 1401.85 454.53 1401.58 454.71
  C 1401.09 455.06 1400.39 455.20 1399.50 455.15
  C 1396.91 455.00 1395.07 455.06 1394.00 455.33
  C 1391.79 455.90 1386.96 455.29 1385.90 455.98
  C 1384.55 456.85 1382.50 455.86 1380.69 456.71
  C 1380.40 456.85 1380.09 456.92 1379.77 456.92
  L 1364.96 456.92
  C 1364.79 456.92 1364.61 456.90 1364.44 456.85
  C 1362.80 456.41 1360.98 456.24 1358.98 456.33
  C 1357.65 456.40 1356.01 456.26 1354.06 455.91
  C 1351.38 455.43 1347.95 456.13 1345.07 455.31
  C 1344.11 455.04 1342.72 455.00 1340.91 455.17
  C 1340.39 455.22 1339.87 455.09 1339.44 454.81
  C 1339.13 454.60 1338.73 454.50 1338.23 454.49
  C 1337.89 454.48 1337.62 454.19 1337.63 453.85
  L 1337.74 450.33
  C 1337.76 449.81 1338.39 449.56 1338.76 449.93
  L 1341.38 452.54
  C 1341.77 452.93 1342.39 452.94 1342.79 452.58
  C 1346.06 449.61 1346.89 454.27 1349.75 451.67
  C 1350.71 450.80 1351.54 450.22 1352.25 449.93
  C 1352.47 449.84 1352.72 449.79 1352.96 449.79
  L 1358.57 449.79
  C 1358.97 449.79 1359.34 449.97 1359.59 450.29
  L 1360.91 451.98
  C 1361.05 452.17 1361.26 452.31 1361.50 452.37
  C 1362.80 452.69 1364.45 452.09 1365.44 452.56
  C 1365.85 452.76 1366.23 452.90 1366.59 452.98
  C 1367.17 453.10 1367.76 453.13 1368.34 453.07
  C 1370.55 452.86 1372.78 452.69 1375.01 452.56
  C 1375.85 452.51 1376.31 451.81 1376.40 450.44
  C 1376.43 450.03 1376.78 449.71 1377.19 449.73
  C 1378.51 449.80 1379.54 449.70 1380.27 449.45
  C 1382.23 448.76 1382.81 449.19 1384.76 449.87
  C 1385.00 449.95 1385.22 450.08 1385.40 450.24
  C 1388.21 452.76 1391.20 451.14 1393.36 448.98
  C 1393.60 448.75 1393.89 448.59 1394.22 448.51
  C 1394.55 448.44 1395.06 448.26 1395.73 447.97
  C 1396.72 447.56 1398.31 447.16 1400.51 446.78
  C 1402.10 446.50 1403.81 446.94 1405.49 446.44
  C 1407.69 445.79 1410.27 446.65 1412.36 445.72
  C 1414.12 444.94 1416.24 445.95 1418.04 445.04
  C 1418.33 444.89 1418.67 444.82 1419.00 444.84
  C 1420.69 444.93 1423.51 444.93 1427.46 444.83
  C 1428.09 444.81 1429.14 444.30 1429.96 444.30
  C 1434.11 444.31 1436.95 444.31 1438.50 444.31
  C 1438.71 444.31 1438.99 444.19 1439.36 443.95
  C 1439.63 443.78 1439.94 443.69 1440.26 443.69
  L 1451.22 443.69
  C 1451.27 443.69 1451.33 443.68 1451.38 443.66
  C 1453.24 443.09 1455.38 442.91 1457.80 443.14
  C 1459.01 443.25 1460.97 443.09 1463.68 442.65
  C 1465.43 442.36 1468.21 442.34 1472.02 442.59
  C 1472.30 442.61 1472.57 442.51 1472.77 442.31
  L 1472.98 442.10
  C 1473.11 441.97 1473.30 441.89 1473.49 441.89
  L 1486.80 441.89
  C 1487.09 441.89 1487.38 441.85 1487.67 441.78
  C 1489.78 441.23 1492.14 441.09 1494.76 441.34
  C 1495.80 441.44 1496.59 441.29 1497.12 440.88
  C 1497.29 440.75 1497.50 440.68 1497.72 440.68
  L 1508.52 440.68
  C 1508.75 440.68 1508.98 440.63 1509.19 440.54
  C 1510.29 440.05 1511.81 439.91 1513.75 440.12
  C 1515.06 440.26 1515.84 439.46 1517.12 439.46
  C 1520.87 439.45 1523.82 439.47 1525.98 439.51
  C 1526.34 439.52 1526.70 439.41 1527.01 439.21
  C 1527.09 439.16 1527.14 439.12 1527.16 439.11
  C 1527.41 438.95 1527.71 438.87 1528.01 438.87
  L 1535.07 438.90
  C 1535.43 438.90 1535.78 438.80 1536.08 438.61
  C 1536.09 438.60 1536.13 438.57 1536.22 438.50
  C 1536.38 438.36 1536.59 438.29 1536.80 438.29
  C 1540.65 438.30 1545.55 438.30 1551.50 438.30
  C 1551.73 438.30 1552.03 438.18 1552.38 437.95
  C 1552.64 437.77 1552.95 437.67 1553.27 437.67
  L 1565.66 437.67
  C 1565.95 437.67 1566.24 437.63 1566.52 437.56
  C 1568.50 437.03 1570.83 436.88 1573.50 437.13
  C 1574.45 437.22 1575.32 437.05 1576.10 436.62
  C 1576.28 436.52 1576.49 436.46 1576.70 436.46
  L 1587.45 436.46
  C 1587.69 436.46 1587.92 436.40 1588.12 436.28
  L 1588.68 435.96
  C 1588.77 435.91 1588.88 435.88 1588.99 435.88
  L 1598.73 435.88
  C 1599.11 435.88 1599.49 435.79 1599.82 435.61
  C 1599.89 435.58 1599.96 435.53 1600.05 435.48
  C 1600.28 435.36 1600.53 435.29 1600.79 435.29
  L 1607.73 435.29
  C 1608.08 435.29 1608.42 435.19 1608.72 435.01
  C 1608.79 434.96 1608.86 434.91 1608.95 434.86
  C 1609.15 434.74 1609.37 434.67 1609.61 434.67
  L 1622.44 434.67
  C 1622.60 434.67 1622.77 434.63 1622.91 434.54
  L 1623.47 434.22
  C 1623.56 434.17 1623.66 434.14 1623.76 434.14
  L 1643.01 434.14
  C 1644.22 434.14 1645.26 435.03 1645.44 436.23
  L 1645.58 437.13
  C 1645.62 437.39 1645.74 437.63 1645.93 437.83
  C 1647.20 439.14 1647.90 439.85 1648.02 439.95
  C 1650.51 441.99 1652.67 441.93 1654.51 439.78
  C 1654.74 439.51 1655.13 439.43 1655.45 439.60
  C 1657.03 440.44 1658.59 440.80 1660.13 440.67
  C 1660.38 440.65 1660.64 440.71 1660.87 440.84
  L 1661.63 441.28
  C 1661.96 441.47 1662.37 441.44 1662.67 441.21
  C 1664.42 439.84 1666.08 439.67 1667.67 440.68
  C 1668.00 440.89 1668.43 440.84 1668.70 440.57
  L 1670.02 439.24
  C 1670.36 438.90 1670.85 438.75 1671.32 438.84
  C 1672.45 439.05 1673.35 438.74 1674.04 437.93
  C 1674.22 437.71 1674.56 437.72 1674.73 437.95
  C 1675.42 438.85 1676.62 439.31 1677.65 438.34
  C 1679.34 436.75 1681.19 436.61 1683.20 437.92
  C 1683.57 438.16 1683.99 438.29 1684.42 438.29
  C 1686.90 438.30 1688.42 437.73 1689.73 439.59
  C 1689.92 439.86 1690.21 440.04 1690.54 440.08
  C 1691.88 440.26 1692.82 440.09 1693.37 439.57
  C 1693.59 439.36 1693.94 439.38 1694.14 439.61
  C 1695.48 441.20 1695.76 442.91 1694.99 444.75
  C 1693.77 447.63 1692.87 451.32 1692.30 455.82
  C 1692.09 457.43 1691.36 459.28 1690.10 461.37
  C 1689.49 462.39 1689.25 463.56 1689.39 464.88
  C 1689.42 465.16 1689.36 465.45 1689.20 465.70
  C 1688.47 466.82 1688.48 468.00 1689.21 469.25
  C 1689.35 469.48 1689.40 469.75 1689.37 470.02
  C 1689.22 471.34 1689.64 473.04 1690.63 475.13
  C 1691.56 477.11 1692.37 479.90 1693.04 483.49
  C 1693.09 483.77 1693.22 484.03 1693.40 484.25
  C 1693.73 484.66 1693.76 485.16 1693.49 485.75
  C 1693.33 486.08 1693.42 486.49 1693.71 486.72
  C 1694.20 487.12 1694.32 487.81 1694.08 488.79
  C 1694.03 488.95 1694.04 489.13 1694.10 489.29
  L 1698.33 501.48
  C 1698.35 501.54 1698.36 501.60 1698.37 501.67
  C 1698.41 502.28 1698.40 503.75 1698.35 506.09
  C 1698.30 508.19 1699.49 509.89 1698.55 512.20
  C 1698.39 512.60 1698.32 513.03 1698.35 513.46
  C 1698.50 515.52 1698.48 516.97 1698.29 517.81
  C 1697.86 519.71 1697.69 521.19 1697.78 522.26
  C 1697.89 523.52 1697.75 524.83 1697.36 526.18
  C 1697.25 526.58 1697.19 526.99 1697.19 527.41
  C 1697.17 532.20 1697.16 537.16 1697.16 542.31
  C 1697.16 544.22 1697.96 545.71 1697.83 547.69
  C 1697.83 547.71 1697.83 547.73 1697.84 547.75
  L 1699.61 557.01
  C 1699.73 557.64 1699.71 558.28 1699.55 558.89
  C 1698.38 563.28 1697.60 566.31 1697.20 568.00
  C 1696.90 569.26 1697.55 570.53 1696.83 571.90
  C 1696.67 572.21 1696.58 572.55 1696.58 572.89
  L 1696.58 591.31
  C 1696.58 591.60 1696.67 591.88 1696.83 592.12
  C 1697.81 593.62 1696.61 595.66 1697.63 597.32
  C 1697.74 597.50 1697.80 597.70 1697.80 597.91
  L 1697.80 614.53
  C 1697.80 614.89 1697.88 615.23 1698.04 615.55
  C 1698.12 615.70 1698.16 615.77 1698.16 615.78
  C 1698.30 616.07 1698.38 616.39 1698.38 616.72
  L 1698.38 638.01
  C 1698.38 638.34 1698.41 638.66 1698.48 638.97
  C 1698.81 640.43 1699.10 641.74 1699.36 642.91
  C 1699.77 644.71 1699.17 647.15 1699.99 648.34
  C 1700.32 648.81 1700.15 650.00 1700.45 651.04
  C 1701.27 653.91 1701.81 656.62 1702.08 659.17
  C 1702.19 660.28 1702.58 661.72 1703.23 663.51
  C 1703.93 665.40 1703.67 666.99 1704.13 668.83
  C 1704.82 671.63 1705.24 673.81 1705.39 675.37
  C 1705.58 677.46 1706.01 679.63 1706.67 681.88
  C 1706.76 682.19 1707.51 685.16 1708.91 690.81
  C 1709.10 691.60 1709.20 692.41 1709.20 693.22
  C 1709.19 696.41 1709.19 700.84 1709.19 706.50
  C 1709.19 706.69 1709.08 706.90 1708.86 707.12
  C 1708.56 707.41 1708.38 707.80 1708.37 708.21
  L 1707.54 732.72
  C 1707.53 733.04 1707.58 733.35 1707.69 733.65
  C 1708.34 735.49 1707.37 739.30 1709.41 741.17
  C 1712.41 743.92 1711.08 746.19 1712.08 749.62
  C 1712.16 749.91 1712.20 750.20 1712.20 750.49
  L 1712.20 765.75
  C 1712.20 766.07 1712.14 766.40 1712.03 766.71
  C 1711.16 769.14 1710.26 772.71 1709.34 777.44
  C 1709.19 778.25 1709.14 778.96 1709.19 779.58
  C 1709.26 780.30 1709.12 780.86 1708.78 781.25
  C 1708.70 781.34 1708.65 781.46 1708.64 781.59
  L 1707.29 804.44
  C 1707.28 804.53 1707.26 804.62 1707.22 804.71
  L 1706.89 805.38
  C 1706.84 805.48 1706.81 805.59 1706.81 805.70
  L 1706.81 813.36
  C 1706.81 813.42 1706.80 813.48 1706.79 813.54
  C 1706.30 815.19 1706.09 816.61 1706.17 817.80
  C 1706.28 819.53 1706.18 820.82 1705.87 821.65
  C 1705.65 822.24 1705.58 824.16 1705.66 827.40
  C 1705.69 829.01 1705.56 830.91 1705.26 833.11
  C 1704.94 835.38 1704.87 838.51 1705.04 842.50
  C 1705.06 842.93 1704.98 843.36 1704.80 843.75
  C 1703.78 845.98 1705.09 848.71 1703.92 850.49
  C 1703.73 850.78 1703.67 851.13 1703.77 851.45
  C 1703.82 851.61 1703.83 857.13 1703.80 868.01
  C 1703.80 868.23 1703.92 868.51 1704.15 868.84
  C 1704.35 869.12 1704.44 869.47 1704.38 869.82
  C 1704.12 871.47 1705.11 872.96 1705.01 874.81
  C 1704.87 877.26 1705.05 879.18 1705.55 880.59
  C 1705.58 880.68 1705.60 880.78 1705.60 880.88
  L 1705.60 886.48
  C 1705.60 886.77 1705.68 887.05 1705.82 887.30
  C 1706.35 888.21 1706.36 889.08 1705.85 889.89
  C 1705.69 890.14 1705.60 890.44 1705.60 890.75
  L 1705.60 909.10
  C 1705.60 909.34 1705.55 909.58 1705.44 909.80
  C 1704.80 911.12 1705.11 912.42 1704.67 914.02
  C 1704.11 916.01 1704.18 918.14 1704.88 920.39
  C 1704.95 920.64 1704.99 920.90 1704.99 921.16
  L 1704.99 926.19
  C 1704.99 926.48 1705.07 926.76 1705.21 927.00
  L 1705.47 927.46
  C 1705.56 927.60 1705.60 927.77 1705.60 927.93
  L 1705.60 938.57
  C 1705.60 938.89 1705.65 939.22 1705.74 939.53
  C 1706.23 941.24 1706.37 943.33 1706.14 945.78
  C 1705.99 947.33 1706.84 948.37 1706.83 949.78
  C 1706.81 952.45 1706.81 955.98 1706.82 960.37
  C 1706.82 960.72 1706.87 960.97 1706.97 961.10
  C 1707.06 961.23 1707.15 961.36 1707.22 961.49
  C 1707.34 961.70 1707.40 961.93 1707.40 962.17
  L 1707.40 971.19
  C 1707.40 971.32 1707.43 971.45 1707.48 971.58
  C 1708.49 973.81 1708.01 979.76 1708.00 986.33
  C 1708.00 986.71 1708.07 987.10 1708.20 987.46
  C 1708.96 989.58 1708.00 992.27 1709.02 993.96
  C 1709.13 994.14 1709.19 994.35 1709.19 994.57
  L 1709.19 1007.70
  C 1709.19 1008.19 1709.27 1008.68 1709.42 1009.14
  C 1710.33 1011.94 1709.82 1016.57 1709.82 1019.58
  C 1709.82 1020.07 1709.88 1020.56 1710.00 1021.04
  C 1710.48 1022.91 1710.59 1025.08 1710.34 1027.54
  C 1710.32 1027.73 1710.34 1027.92 1710.40 1028.10
  L 1713.87 1038.87
  C 1713.91 1038.99 1713.93 1039.11 1713.94 1039.24
  C 1714.03 1042.18 1714.40 1044.37 1715.04 1045.81
  C 1715.71 1047.32 1717.10 1048.57 1719.20 1049.58
  C 1721.97 1050.92 1723.90 1052.50 1723.64 1055.53
  C 1723.55 1056.48 1723.69 1057.25 1724.04 1057.84
  C 1724.57 1058.72 1723.85 1059.95 1724.51 1061.03
  C 1725.28 1062.28 1724.38 1064.18 1725.26 1065.66
  C 1725.53 1066.11 1725.57 1066.78 1725.39 1067.69
  C 1725.33 1068.02 1725.39 1068.37 1725.57 1068.66
  C 1726.07 1069.47 1726.23 1070.22 1726.06 1070.91
  C 1725.74 1072.12 1725.33 1073.31 1724.84 1074.47
  C 1724.67 1074.88 1723.94 1075.61 1722.67 1076.66
  C 1722.43 1076.87 1722.08 1076.92 1721.79 1076.79
  C 1720.38 1076.18 1719.18 1075.23 1718.19 1073.92
  C 1718.06 1073.75 1717.89 1073.61 1717.70 1073.51
  L 1715.01 1072.16
  C 1714.72 1072.02 1714.41 1071.95 1714.09 1071.95
  L 1704.25 1071.95
  C 1704.00 1071.95 1703.75 1071.89 1703.53 1071.77
  C 1702.64 1071.30 1701.23 1071.17 1699.30 1071.38
  C 1699.22 1071.39 1699.14 1071.39 1699.07 1071.38
  L 1690.98 1070.11
  C 1690.84 1070.09 1690.72 1070.03 1690.62 1069.93
  C 1690.47 1069.78 1690.36 1069.70 1690.29 1069.69
  C 1688.78 1069.44 1685.61 1068.97 1680.77 1068.26
  C 1680.60 1068.23 1680.45 1068.16 1680.33 1068.04
  C 1680.01 1067.74 1679.47 1067.65 1678.71 1067.76
  C 1677.14 1067.98 1675.96 1066.92 1674.05 1067.18
  C 1673.71 1067.23 1673.37 1067.11 1673.13 1066.86
  C 1672.79 1066.51 1672.19 1066.42 1671.34 1066.61
  C 1671.02 1066.68 1670.68 1066.61 1670.41 1066.42
  C 1670.20 1066.27 1669.89 1066.09 1669.50 1065.90
  C 1668.93 1065.61 1667.97 1065.44 1666.62 1065.39
  C 1665.45 1065.34 1664.72 1065.33 1664.44 1065.36
  C 1664.12 1065.39 1663.80 1065.31 1663.54 1065.12
  C 1662.93 1064.67 1662.15 1064.56 1661.20 1064.80
  C 1660.87 1064.89 1660.52 1064.81 1660.26 1064.58
  C 1659.86 1064.24 1659.23 1064.10 1658.36 1064.15
  C 1656.76 1064.24 1656.63 1063.19 1655.17 1063.55
  C 1654.87 1063.62 1654.43 1063.60 1653.85 1063.49
  C 1652.18 1063.16 1649.95 1062.80 1647.18 1062.43
  C 1646.85 1062.38 1646.53 1062.28 1646.23 1062.11
  C 1645.46 1061.66 1644.52 1061.56 1643.43 1061.80
  C 1643.11 1061.88 1642.77 1061.83 1642.47 1061.67
  C 1641.41 1061.11 1640.00 1060.95 1638.24 1061.20
  C 1637.88 1061.25 1637.51 1061.14 1637.23 1060.90
  C 1636.46 1060.25 1634.61 1060.65 1633.31 1060.23
  C 1631.68 1059.70 1629.91 1059.34 1627.99 1059.15
  C 1627.64 1059.12 1627.30 1059.05 1626.96 1058.96
  C 1624.75 1058.36 1622.88 1058.07 1621.37 1058.10
  C 1621.15 1058.10 1620.93 1058.01 1620.78 1057.84
  C 1620.59 1057.64 1620.42 1057.54 1620.25 1057.54
  C 1601.48 1057.55 1591.99 1057.55 1591.76 1057.56
  C 1591.48 1057.55 1591.20 1057.52 1590.93 1057.45
  L 1574.21 1053.28
  C 1573.85 1053.18 1573.47 1053.25 1573.16 1053.45
  C 1572.47 1053.90 1571.48 1054.05 1570.17 1053.90
  C 1570.08 1053.89 1570.00 1053.90 1569.92 1053.93
  L 1566.57 1055.09
  C 1566.24 1055.20 1565.98 1055.45 1565.84 1055.76
  C 1565.12 1057.39 1563.35 1059.61 1561.00 1058.54
  C 1559.79 1057.99 1558.35 1058.42 1557.50 1057.78
  C 1557.20 1057.56 1556.84 1057.46 1556.47 1057.49
  C 1554.18 1057.68 1552.57 1057.64 1551.66 1057.37
  C 1550.07 1056.90 1548.80 1056.74 1547.83 1056.89
  C 1546.48 1057.08 1545.39 1056.95 1544.55 1056.49
  C 1544.45 1056.44 1544.34 1056.40 1544.23 1056.39
  L 1533.68 1055.10
  C 1533.61 1055.09 1533.55 1055.09 1533.48 1055.10
  C 1530.71 1055.22 1529.00 1055.13 1528.33 1054.84
  C 1526.69 1054.12 1524.77 1055.00 1523.08 1054.09
  C 1522.72 1053.90 1522.30 1053.83 1521.89 1053.89
  C 1520.70 1054.06 1519.73 1053.94 1518.99 1053.51
  C 1518.77 1053.38 1518.52 1053.31 1518.27 1053.31
  L 1511.84 1053.33
  C 1511.56 1053.33 1511.29 1053.29 1511.02 1053.20
  C 1511.00 1053.19 1510.85 1053.10 1510.56 1052.93
  C 1510.32 1052.78 1510.04 1052.70 1509.75 1052.70
  L 1499.50 1052.70
  C 1499.21 1052.70 1498.93 1052.82 1498.73 1053.02
  L 1498.54 1053.21
  C 1498.38 1053.37 1498.15 1053.45 1497.92 1053.41
  C 1495.85 1053.06 1494.17 1053.47 1492.88 1054.66
  C 1492.63 1054.89 1492.32 1055.03 1491.99 1055.08
  C 1491.98 1055.08 1491.89 1055.09 1491.72 1055.11
  C 1491.49 1055.13 1491.27 1055.21 1491.07 1055.34
  C 1489.38 1056.48 1487.66 1057.45 1485.93 1058.25
  C 1485.42 1058.49 1485.06 1058.76 1484.84 1059.06
  C 1484.65 1059.31 1484.36 1059.42 1483.95 1059.38
  C 1483.67 1059.35 1483.35 1059.44 1483.00 1059.65
  C 1481.63 1060.44 1480.51 1061.03 1479.64 1061.41
  C 1479.16 1061.61 1478.64 1061.72 1478.12 1061.72
  L 1462.85 1061.72
  C 1462.59 1061.72 1462.34 1061.79 1462.12 1061.92
  L 1458.87 1063.80
  C 1458.67 1063.91 1458.52 1064.09 1458.44 1064.31
  C 1458.30 1064.70 1458.17 1064.94 1458.05 1065.03
  C 1456.00 1066.62 1453.73 1067.33 1451.23 1067.15
  C 1450.48 1067.09 1450.29 1067.28 1449.75 1067.62
  C 1449.53 1067.77 1449.33 1067.83 1449.16 1067.81
  C 1447.39 1067.60 1445.67 1067.90 1444.01 1068.71
  C 1443.60 1068.90 1443.16 1068.98 1442.71 1068.95
  C 1440.70 1068.80 1438.50 1068.98 1436.10 1069.48
  C 1434.86 1069.74 1433.25 1070.00 1431.27 1070.25
  C 1429.97 1070.42 1428.36 1070.63 1426.43 1070.88
  C 1426.26 1070.91 1426.13 1070.95 1426.05 1071.02
  C 1425.95 1071.11 1425.77 1071.27 1425.63 1071.28
  C 1422.96 1071.46 1420.27 1071.82 1417.57 1072.36
  C 1414.78 1072.91 1412.96 1073.19 1412.12 1073.20
  C 1412.10 1073.20 1411.58 1073.18 1410.57 1073.14
  C 1410.07 1073.12 1409.58 1073.19 1409.11 1073.34
  C 1407.83 1073.75 1406.52 1073.88 1405.19 1073.73
  C 1404.94 1073.70 1404.70 1073.79 1404.53 1073.97
  C 1404.51 1073.99 1404.44 1074.06 1404.32 1074.17
  C 1404.26 1074.23 1404.18 1074.27 1404.10 1074.28
  C 1400.18 1074.77 1397.53 1075.17 1396.14 1075.50
  C 1395.47 1075.65 1394.88 1075.68 1394.39 1075.57
  C 1393.86 1075.45 1393.39 1075.56 1392.98 1075.90
  C 1392.83 1076.02 1392.65 1076.10 1392.46 1076.12
  C 1390.89 1076.30 1389.19 1076.97 1387.36 1076.85
  C 1386.53 1076.79 1385.77 1076.89 1385.08 1077.15
  C 1384.42 1077.40 1383.31 1077.57 1381.76 1077.67
  C 1380.16 1077.78 1377.75 1078.13 1374.54 1078.72
  C 1372.67 1079.07 1371.46 1079.22 1370.91 1079.18
  C 1370.16 1079.13 1368.97 1079.30 1367.34 1079.67
  C 1365.78 1080.02 1363.87 1079.89 1361.60 1079.28
  C 1361.32 1079.21 1361.03 1079.17 1360.74 1079.17
  C 1358.65 1079.18 1356.87 1079.16 1355.39 1079.12
  C 1354.14 1079.09 1353.29 1078.94 1352.86 1078.68
  C 1352.58 1078.51 1352.29 1078.35 1351.99 1078.19
  C 1351.69 1078.04 1351.35 1077.96 1351.01 1077.96
  L 1346.13 1077.96
  C 1345.95 1077.96 1345.77 1077.94 1345.60 1077.89
  C 1339.96 1076.36 1336.98 1075.75 1333.99 1074.02
  C 1333.71 1073.86 1333.39 1073.77 1333.07 1073.77
  L 1328.23 1073.77
  C 1327.89 1073.77 1327.56 1073.87 1327.29 1074.06
  L 1323.57 1076.57
  C 1323.44 1076.66 1323.29 1076.72 1323.14 1076.77
  C 1320.30 1077.68 1317.44 1077.69 1314.56 1076.82
  C 1314.47 1076.79 1314.37 1076.78 1314.27 1076.78
  L 1309.28 1076.78
  C 1309.01 1076.78 1308.75 1076.74 1308.49 1076.67
  C 1306.64 1076.14 1304.65 1075.98 1302.51 1076.20
  C 1301.86 1076.27 1301.32 1076.14 1300.90 1075.81
  C 1300.70 1075.65 1300.46 1075.57 1300.21 1075.57
  L 1290.86 1075.57
  C 1290.79 1075.57 1290.73 1075.56 1290.66 1075.54
  C 1288.93 1074.94 1286.46 1074.76 1283.25 1075.01
  C 1282.40 1075.08 1281.61 1074.92 1280.86 1074.55
  C 1280.58 1074.41 1280.28 1074.34 1279.97 1074.35
  L 1272.87 1074.38
  C 1272.59 1074.38 1272.31 1074.27 1272.09 1074.08
  C 1272.03 1074.03 1271.96 1073.95 1271.89 1073.86
  C 1271.85 1073.80 1271.79 1073.77 1271.73 1073.77
  L 1261.81 1073.77
  C 1261.60 1073.77 1261.39 1073.73 1261.20 1073.64
  C 1259.21 1072.71 1254.24 1073.13 1249.57 1073.18
  C 1249.21 1073.18 1248.85 1073.06 1248.57 1072.83
  C 1248.54 1072.80 1248.49 1072.74 1248.40 1072.65
  C 1248.35 1072.60 1248.28 1072.57 1248.21 1072.57
  L 1241.66 1072.57
  C 1241.39 1072.57 1241.13 1072.64 1240.91 1072.78
  C 1240.74 1072.89 1240.64 1072.95 1240.63 1072.97
  C 1240.42 1073.21 1240.10 1073.31 1239.80 1073.21
  C 1239.21 1073.02 1238.64 1073.07 1238.09 1073.37
  C 1236.60 1074.18 1235.16 1073.48 1233.78 1073.99
  C 1231.92 1074.67 1230.17 1074.99 1228.53 1074.95
  C 1227.94 1074.93 1227.28 1075.09 1226.55 1075.42
  C 1225.31 1075.98 1223.44 1075.09 1222.33 1075.90
  C 1222.08 1076.08 1221.78 1076.17 1221.47 1076.15
  C 1219.26 1076.03 1216.89 1076.31 1214.36 1076.99
  C 1213.07 1077.34 1212.05 1077.47 1211.31 1077.39
  C 1210.13 1077.26 1209.28 1077.39 1208.75 1077.77
  C 1208.64 1077.85 1208.51 1077.90 1208.38 1077.92
  L 1196.54 1079.21
  C 1196.46 1079.22 1196.38 1079.25 1196.31 1079.29
  C 1195.50 1079.72 1194.09 1079.90 1192.10 1079.81
  C 1191.71 1079.79 1191.33 1079.88 1190.99 1080.07
  C 1190.38 1080.42 1189.48 1080.50 1188.29 1080.33
  C 1187.94 1080.28 1187.59 1080.34 1187.28 1080.49
  C 1185.36 1081.42 1183.17 1080.67 1180.73 1081.48
  C 1180.40 1081.59 1180.05 1081.63 1179.71 1081.60
  C 1177.88 1081.44 1176.48 1081.61 1175.49 1082.11
  C 1175.21 1082.25 1174.87 1082.26 1174.59 1082.12
  C 1174.51 1082.08 1172.93 1082.34 1169.84 1082.91
  C 1168.67 1083.12 1167.11 1083.32 1165.18 1083.51
  C 1161.47 1083.86 1159.43 1084.12 1159.07 1084.28
  C 1157.60 1084.93 1156.40 1084.15 1155.38 1084.97
  C 1154.83 1085.42 1152.76 1085.02 1151.86 1085.32
  C 1150.46 1085.78 1148.85 1085.94 1147.03 1085.79
  C 1146.69 1085.76 1146.34 1085.86 1146.06 1086.06
  C 1145.68 1086.33 1144.95 1086.44 1143.87 1086.37
  C 1143.45 1086.34 1142.71 1086.41 1141.64 1086.58
  C 1131.21 1088.16 1121.29 1089.47 1111.90 1090.50
  C 1110.59 1090.65 1109.01 1090.90 1107.16 1091.25
  C 1104.82 1091.70 1103.22 1091.90 1102.36 1091.83
  C 1102.07 1091.80 1101.79 1091.87 1101.55 1092.03
  C 1100.93 1092.42 1099.88 1092.54 1098.39 1092.37
  C 1097.94 1092.32 1097.49 1092.38 1097.08 1092.56
  C 1096.14 1092.95 1095.13 1093.08 1094.04 1092.96
  C 1093.58 1092.92 1093.12 1093.05 1092.76 1093.33
  C 1092.73 1093.35 1092.71 1093.37 1092.69 1093.39
  C 1092.54 1093.53 1092.35 1093.61 1092.15 1093.61
  C 1085.72 1093.44 1080.23 1095.47 1075.68 1099.70
  C 1074.29 1100.99 1072.56 1101.75 1070.48 1101.98
  C 1068.19 1102.23 1065.76 1102.77 1063.19 1103.61
  C 1062.75 1103.76 1062.28 1103.83 1061.80 1103.83
  L 1059.88 1103.83
  C 1059.76 1103.83 1059.65 1103.88 1059.57 1103.97
  C 1059.16 1104.40 1058.09 1104.55 1056.38 1104.40
  C 1056.01 1104.37 1055.63 1104.44 1055.30 1104.60
  C 1053.87 1105.31 1052.59 1105.65 1051.44 1105.61
  C 1050.19 1105.56 1049.02 1105.73 1047.93 1106.11
  C 1047.74 1106.18 1046.68 1106.26 1044.74 1106.35
  C 1044.47 1106.36 1044.21 1106.40 1043.94 1106.45
  C 1034.72 1108.30 1028.24 1109.42 1024.50 1109.83
  C 1023.97 1109.88 1023.47 1110.03 1023.00 1110.26
  C 1022.83 1110.35 1022.64 1110.39 1022.45 1110.39
  C 1019.81 1110.41 1017.53 1110.75 1015.62 1111.40
  C 1013.80 1112.03 1012.43 1112.27 1011.52 1112.12
  C 1011.22 1112.07 1010.63 1112.25 1009.75 1112.64
  C 1009.66 1112.69 1009.56 1112.72 1009.45 1112.74
  L 1003.40 1114.05
  C 1003.37 1114.06 1003.34 1114.06 1003.31 1114.06
  L 998.20 1114.06
  C 997.50 1114.06 996.90 1113.59 996.72 1112.92
  C 996.39 1111.65 995.90 1110.75 995.25 1110.20
  C 994.10 1109.23 993.51 1108.71 993.46 1108.66
  C 991.84 1106.93 990.68 1105.86 989.98 1105.45
  C 989.97 1105.44 989.95 1105.43 989.94 1105.41
  L 986.24 1099.00
  C 986.01 1098.61 985.68 1098.29 985.29 1098.07
  C 982.58 1096.59 979.73 1095.45 976.74 1094.66
  C 974.74 1094.13 973.43 1093.76 972.81 1093.53
  C 971.99 1093.24 970.65 1092.87 968.78 1092.44
  C 968.55 1092.39 968.32 1092.31 968.10 1092.21
  C 966.69 1091.57 965.47 1091.21 964.44 1091.14
  C 964.10 1091.11 963.77 1091.03 963.46 1090.89
  C 961.75 1090.15 960.15 1089.63 958.67 1089.34
  C 957.17 1089.05 955.87 1088.38 954.78 1087.34
  C 954.71 1087.27 954.64 1087.22 954.55 1087.19
  L 944.02 1083.47
  C 943.65 1083.34 943.26 1083.30 942.87 1083.36
  C 941.37 1083.59 940.15 1083.31 939.20 1082.53
  C 938.92 1082.30 938.57 1082.17 938.21 1082.17
  L 935.68 1082.17
  C 935.48 1082.17 935.29 1082.12 935.12 1082.03
  C 933.75 1081.33 932.41 1081.32 931.10 1081.99
  C 930.72 1082.18 930.29 1082.24 929.87 1082.17
  C 928.04 1081.84 926.14 1082.58 924.18 1084.39
  C 924.03 1084.53 923.91 1084.71 923.84 1084.91
  L 922.82 1087.75
  C 922.73 1088.00 922.50 1088.17 922.24 1088.19
  C 920.94 1088.30 919.87 1087.39 919.17 1087.62
  C 918.55 1087.82 917.69 1087.02 916.95 1086.76
  C 913.06 1085.38 908.36 1083.69 902.83 1081.68
  C 901.13 1081.06 900.12 1080.70 899.79 1080.60
  C 893.46 1078.65 887.19 1076.43 880.97 1073.95
  C 880.66 1073.83 880.33 1073.77 879.99 1073.78
  C 879.46 1073.79 866.30 1073.78 840.51 1073.74
  C 839.77 1073.74 838.85 1073.56 837.75 1073.21
  C 836.56 1072.82 835.39 1072.38 834.25 1071.89
  C 833.36 1071.50 832.44 1071.31 831.48 1071.34
  C 830.93 1071.35 830.10 1071.34 828.98 1071.33
  C 827.47 1071.32 826.39 1071.15 825.76 1070.84
  C 825.34 1070.64 825.00 1070.48 824.74 1070.36
  C 824.44 1070.22 824.11 1070.15 823.78 1070.15
  L 806.80 1070.15
  C 806.66 1070.15 806.53 1070.09 806.43 1069.99
  C 806.06 1069.60 805.42 1069.45 804.50 1069.53
  C 802.75 1069.68 801.49 1069.63 800.73 1069.37
  C 799.52 1068.95 798.33 1068.81 797.18 1068.95
  C 795.27 1069.18 793.31 1068.57 791.30 1067.14
  C 789.71 1066.01 787.95 1064.93 786.02 1063.91
  C 785.14 1063.44 784.10 1063.36 783.16 1063.68
  L 774.94 1066.48
  C 774.79 1066.53 774.63 1066.56 774.47 1066.56
  L 766.26 1066.56
  C 766.01 1066.56 765.77 1066.63 765.55 1066.76
  C 764.34 1067.50 762.72 1066.97 761.16 1067.39
  C 756.39 1068.70 752.50 1069.86 749.49 1070.89
  C 749.21 1070.99 748.97 1071.15 748.77 1071.37
  C 747.01 1073.35 745.41 1074.34 743.98 1074.34
  C 736.11 1074.36 725.77 1074.37 712.95 1074.36
  C 712.55 1074.36 712.15 1074.26 711.80 1074.08
  C 711.78 1074.07 711.75 1074.05 711.72 1074.03
  C 711.36 1073.80 710.94 1073.69 710.51 1073.73
  C 708.79 1073.88 707.37 1073.80 706.25 1073.48
  C 705.89 1073.37 705.56 1073.17 705.30 1072.90
  C 703.01 1070.54 700.44 1067.88 697.19 1068.38
  C 696.86 1068.43 696.52 1068.32 696.27 1068.09
  C 695.95 1067.78 695.51 1067.66 694.96 1067.72
  C 694.39 1067.78 693.94 1067.77 693.59 1067.70
  C 690.62 1067.07 688.50 1066.60 687.23 1066.30
  C 685.08 1065.79 683.72 1065.52 683.14 1065.48
  C 681.42 1065.37 680.06 1065.17 679.06 1064.86
  C 678.39 1064.65 675.81 1064.10 671.32 1063.23
  C 671.15 1063.20 669.02 1062.78 664.91 1061.96
  C 662.17 1061.42 659.83 1061.14 657.88 1061.11
  C 657.58 1061.11 657.29 1061.01 657.04 1060.83
  C 657.03 1060.82 656.99 1060.79 656.92 1060.73
  C 656.80 1060.62 656.64 1060.56 656.48 1060.59
  C 655.45 1060.74 653.54 1060.38 650.74 1059.53
  C 650.45 1059.44 649.54 1059.32 648.00 1059.19
  C 647.35 1059.13 646.36 1058.96 645.03 1058.67
  C 643.60 1058.36 642.34 1057.97 641.23 1057.50
  C 640.63 1057.25 639.80 1057.10 638.75 1057.06
  C 636.48 1056.96 635.19 1056.91 634.89 1056.91
  C 633.79 1056.92 632.83 1056.74 632.01 1056.38
  C 630.17 1055.56 628.38 1055.15 626.65 1055.14
  C 626.32 1055.13 625.99 1055.08 625.67 1054.99
  C 624.09 1054.50 621.91 1054.02 619.13 1053.57
  C 615.26 1052.94 611.42 1053.11 607.62 1054.08
  C 607.11 1054.21 605.87 1054.49 603.88 1054.90
  C 596.99 1056.34 591.85 1057.27 588.47 1057.68
  C 588.21 1057.71 587.96 1057.79 587.72 1057.90
  C 586.12 1058.63 584.64 1058.90 583.29 1058.72
  C 583.11 1058.69 582.94 1058.76 582.82 1058.89
  C 582.67 1059.06 582.47 1059.17 582.24 1059.22
  C 577.33 1060.11 574.27 1060.67 573.06 1060.90
  C 570.27 1061.43 568.18 1061.73 566.79 1061.80
  C 566.76 1061.81 565.96 1062.06 564.39 1062.55
  C 564.03 1062.67 563.66 1062.76 563.28 1062.81
  C 559.67 1063.34 556.27 1062.87 553.08 1061.39
  C 552.76 1061.24 552.42 1061.15 552.08 1061.10
  C 549.89 1060.83 548.05 1060.25 546.56 1059.37
  C 546.49 1059.33 546.34 1059.33 546.09 1059.38
  C 545.93 1059.41 545.75 1059.39 545.56 1059.33
  C 542.71 1058.40 536.19 1056.30 525.99 1053.04
  C 524.70 1052.63 523.42 1052.32 522.13 1052.11
  C 522.09 1052.10 522.05 1052.09 522.02 1052.08
  L 511.92 1048.71
  C 511.86 1048.69 511.80 1048.66 511.75 1048.63
  C 510.42 1047.84 509.01 1047.38 507.52 1047.27
  C 507.51 1047.27 507.49 1047.27 507.48 1047.26
  L 498.08 1044.29
  C 497.94 1044.24 497.80 1044.24 497.66 1044.28
  C 497.01 1044.46 496.50 1044.37 496.13 1044.00
  C 495.78 1043.65 495.00 1043.62 493.80 1043.91
  C 489.89 1044.87 486.41 1044.50 483.34 1042.79
  C 482.78 1042.48 482.12 1042.37 481.49 1042.48
  C 480.48 1042.66 479.63 1042.53 478.95 1042.09
  C 478.75 1041.96 478.52 1041.89 478.29 1041.89
  L 461.82 1041.89
  C 461.47 1041.89 461.13 1041.97 460.81 1042.11
  C 459.46 1042.72 457.76 1042.10 456.82 1042.85
  C 456.43 1043.16 455.98 1043.24 455.47 1043.11
  C 454.13 1042.76 453.87 1043.92 452.39 1043.70
  C 452.01 1043.65 451.60 1043.70 451.17 1043.87
  C 449.32 1044.57 447.55 1044.92 445.84 1044.92
  C 445.52 1044.92 445.22 1044.99 444.94 1045.13
  C 443.41 1045.90 442.15 1046.22 441.18 1046.08
  C 441.11 1046.07 441.03 1046.07 440.96 1046.10
  L 436.97 1047.29
  C 436.90 1047.31 436.82 1047.32 436.74 1047.31
  C 435.67 1047.22 434.37 1047.53 432.82 1048.25
  C 432.60 1048.36 432.36 1048.42 432.12 1048.44
  C 428.35 1048.79 424.83 1049.58 421.56 1050.79
  C 421.21 1050.92 420.83 1050.97 420.46 1050.93
  C 419.15 1050.79 418.16 1050.94 417.51 1051.38
  C 417.36 1051.48 417.18 1051.54 417.00 1051.54
  L 408.49 1051.54
  C 408.15 1051.54 407.83 1051.65 407.56 1051.86
  C 407.52 1051.89 407.46 1051.94 407.37 1052.02
  C 407.30 1052.08 407.21 1052.11 407.12 1052.11
  L 393.90 1052.11
  C 393.79 1052.11 393.69 1052.13 393.60 1052.16
  C 391.84 1052.75 389.15 1052.91 385.53 1052.63
  C 385.17 1052.60 384.82 1052.70 384.52 1052.89
  C 382.04 1054.50 380.63 1055.63 380.29 1056.30
  C 379.27 1058.28 378.56 1059.50 378.15 1059.97
  C 376.35 1062.04 375.12 1063.70 374.46 1064.95
  C 374.33 1065.20 374.07 1065.35 373.79 1065.35
  L 372.13 1065.35
  C 371.81 1065.35 371.55 1065.09 371.55 1064.78
  L 371.55 1060.18
  C 371.55 1059.90 371.45 1059.62 371.27 1059.39
  C 370.82 1058.81 370.81 1058.23 371.22 1057.64
  C 371.28 1057.56 371.32 1057.47 371.34 1057.37
  L 374.49 1043.57
  C 374.53 1043.40 374.54 1043.24 374.53 1043.07
  C 374.44 1042.10 374.63 1041.09 375.08 1040.04
  C 375.31 1039.52 375.25 1038.97 374.89 1038.38
  C 374.73 1038.12 374.63 1037.82 374.62 1037.51
  C 374.39 1032.59 372.90 1028.04 370.14 1023.86
  C 370.05 1023.71 369.97 1023.56 369.90 1023.39
  L 367.48 1016.92
  C 367.39 1016.66 367.34 1016.38 367.34 1016.10
  L 367.34 957.92
  C 367.34 957.52 367.26 957.12 367.10 956.75
  C 366.65 955.70 366.53 954.40 366.75 952.86
  C 366.78 952.65 366.76 952.43 366.71 952.23
  L 365.21 946.18
  C 365.18 946.05 365.13 945.93 365.06 945.81
  C 362.99 941.94 362.16 938.13 362.59 934.37
  C 362.64 933.98 362.53 933.58 362.30 933.25
  C 362.29 933.24 362.23 933.16 362.11 932.99
  C 361.99 932.82 361.92 932.61 361.92 932.40
  L 361.92 921.73
  C 361.92 921.27 362.02 920.81 362.20 920.39
  C 363.00 918.62 363.30 917.01 363.09 915.58
  C 362.86 913.96 363.95 912.35 363.69 910.33
  C 363.64 909.92 363.72 909.51 363.93 909.16
  L 364.24 908.62
  C 364.38 908.39 364.43 908.12 364.39 907.86
  C 364.17 906.15 364.31 904.78 364.80 903.75
  C 364.89 903.57 364.93 903.37 364.93 903.17
  L 364.93 900.22
  C 364.93 900.06 364.98 899.91 365.07 899.77
  C 365.86 898.61 365.44 896.51 365.75 894.82
  C 366.45 890.92 366.76 888.52 366.67 887.61
  C 366.64 887.28 366.71 886.94 366.85 886.64
  C 367.36 885.57 367.50 883.90 367.29 881.64
  C 367.24 881.22 367.33 880.78 367.53 880.40
  C 367.96 879.56 368.08 878.49 367.88 877.20
  C 367.83 876.84 367.91 876.47 368.11 876.17
  C 368.59 875.46 368.72 874.26 368.49 872.57
  C 368.44 872.19 368.53 871.81 368.72 871.49
  C 369.67 869.92 368.71 867.46 369.49 865.55
  C 369.72 864.98 369.80 864.00 369.72 862.60
  C 369.70 862.20 369.81 861.81 370.03 861.48
  C 370.80 860.33 369.91 859.00 370.71 857.81
  C 370.92 857.49 371.01 857.11 370.96 856.74
  C 370.79 855.41 370.92 854.31 371.37 853.44
  C 371.48 853.22 371.54 852.97 371.54 852.71
  L 371.54 849.57
  C 371.54 849.42 371.59 849.28 371.69 849.16
  C 372.10 848.65 372.25 847.77 372.12 846.54
  C 372.11 846.45 372.11 846.37 372.12 846.29
  L 373.44 835.67
  C 373.45 835.57 373.49 835.48 373.54 835.39
  C 373.98 834.72 374.10 833.35 373.90 831.29
  C 373.87 830.88 373.94 830.48 374.10 830.11
  C 374.55 829.09 374.69 827.79 374.52 826.22
  C 374.47 825.70 374.59 825.21 374.89 824.83
  C 375.10 824.55 375.20 824.21 375.17 823.86
  C 375.04 822.63 375.15 821.50 375.49 820.47
  C 375.90 819.22 375.45 817.28 376.00 816.48
  C 376.78 815.35 376.08 813.36 376.75 811.93
  C 376.95 811.49 377.03 811.01 376.98 810.53
  C 376.79 808.66 376.91 807.10 377.34 805.85
  C 377.49 805.43 377.56 804.98 377.57 804.53
  C 377.60 802.06 378.00 799.47 378.75 796.74
  C 379.14 795.31 379.33 794.24 379.32 793.51
  C 379.30 791.60 379.32 790.35 379.38 789.74
  C 379.40 789.31 379.52 788.89 379.73 788.52
  L 383.40 781.90
  C 383.44 781.83 383.47 781.75 383.49 781.66
  L 385.27 775.58
  C 385.34 775.37 385.37 775.16 385.37 774.94
  L 385.37 764.66
  C 385.38 763.82 385.27 762.98 385.05 762.17
  C 384.96 761.84 384.74 760.78 384.37 758.97
  C 383.80 756.15 384.18 753.14 384.16 749.09
  C 384.16 748.56 384.09 748.03 383.94 747.52
  C 383.30 745.23 382.96 743.12 382.92 741.17
  C 382.91 740.87 382.86 740.57 382.76 740.29
  C 381.82 737.70 381.46 734.90 381.68 731.88
  C 381.69 731.78 381.71 731.68 381.74 731.59
  L 383.52 725.59
  C 383.61 725.28 383.61 724.96 383.52 724.66
  C 382.56 721.52 381.88 718.09 381.48 714.36
  C 381.16 711.34 380.84 709.11 380.52 707.67
  C 380.19 706.13 379.80 703.91 379.36 701.00
  C 378.99 698.55 378.52 696.30 377.94 694.23
  C 377.61 693.03 377.48 692.05 377.56 691.28
  C 377.69 690.06 377.54 689.22 377.12 688.76
  C 376.88 688.50 376.81 688.12 376.94 687.79
  C 377.07 687.47 376.88 686.24 376.38 684.09
  C 376.20 683.32 375.99 682.12 375.76 680.49
  C 374.95 674.89 374.21 670.84 373.54 668.33
  C 373.27 667.32 372.09 666.00 369.99 664.37
  C 369.70 664.14 369.46 663.83 369.32 663.48
  C 368.77 662.14 368.50 660.99 368.53 660.02
  C 368.55 659.49 368.48 658.96 368.33 658.45
  C 367.05 654.04 367.08 649.82 368.43 645.81
  C 368.51 645.56 368.55 645.31 368.55 645.06
  L 368.55 623.65
  C 368.55 623.44 368.62 623.24 368.74 623.07
  C 369.21 622.43 369.33 621.21 369.08 619.40
  C 369.02 618.99 369.12 618.57 369.35 618.22
  C 370.20 616.93 369.37 615.47 370.17 613.96
  C 370.75 612.85 371.00 611.59 370.92 610.16
  C 370.89 609.72 371.02 609.28 371.27 608.92
  C 371.30 608.88 371.31 608.85 371.32 608.84
  C 371.54 608.52 371.63 608.13 371.57 607.74
  C 371.31 605.88 372.29 604.33 372.75 602.39
  C 374.68 594.40 376.71 586.67 378.86 579.20
  C 378.89 579.08 378.96 578.98 379.04 578.90
  C 379.41 578.56 379.52 578.11 379.38 577.55
  C 379.23 576.95 379.22 576.59 379.35 576.46
  C 379.36 576.45 379.49 576.27 379.73 575.92
  C 379.87 575.71 379.95 575.46 379.95 575.21
  L 379.95 566.51
  C 379.95 566.23 379.90 565.94 379.81 565.68
  C 379.32 564.19 379.18 562.21 379.41 559.76
  C 379.50 558.84 379.32 558.15 378.88 557.68
  C 378.65 557.44 378.59 557.08 378.71 556.77
  C 378.91 556.24 378.87 555.72 378.59 555.21
  C 377.65 553.53 378.64 551.91 377.98 550.41
  C 377.51 549.32 377.38 547.64 377.60 545.39
  C 377.65 544.96 377.58 544.53 377.42 544.13
  C 376.59 542.15 377.11 539.60 376.65 537.33
  C 376.04 534.26 375.71 531.21 375.68 528.16
  C 375.67 527.83 375.58 527.50 375.42 527.21
  C 375.13 526.70 375.05 525.59 375.18 523.90
  C 375.25 522.86 375.09 521.78 374.69 520.67
  C 374.48 520.08 374.45 518.93 374.61 517.23
  C 374.65 516.89 374.57 516.54 374.39 516.24
  C 373.48 514.74 374.26 512.79 373.73 511.23
  C 373.29 509.95 373.18 507.72 373.39 504.53
  C 373.42 504.02 373.35 503.51 373.17 503.04
  C 372.69 501.77 372.55 500.17 372.76 498.24
  C 372.85 497.41 372.78 496.76 372.55 496.28
  C 371.81 494.75 372.57 493.90 371.77 492.81
  C 371.56 492.53 371.46 492.18 371.49 491.83
  C 371.82 488.10 371.25 484.65 369.78 481.50
  C 369.66 481.25 369.67 480.96 369.81 480.73
  L 370.17 480.11
  C 370.35 479.79 370.35 479.41 370.16 479.09
  C 369.31 477.66 370.09 476.33 369.28 474.53
  C 368.53 472.87 370.00 469.40 370.72 467.69
  C 371.16 466.65 372.68 466.87 372.82 467.99
  C 372.83 468.10 372.80 468.44 372.71 469.00
  C 372.47 470.61 371.85 472.54 370.85 474.79
  C 370.65 475.25 370.63 475.76 370.79 476.24
  L 371.56 478.44
  C 371.61 478.59 371.75 478.69 371.91 478.68
  Z"
/>
<path fill="#FFE44C" d="
  M 1312.79 453.34
  C 1312.20 453.17 1312.18 452.34 1312.76 452.14
  L 1319.82 449.68
  C 1320.00 449.62 1320.20 449.61 1320.38 449.66
  C 1322.76 450.29 1324.79 451.21 1326.46 452.44
  C 1326.78 452.67 1326.73 453.16 1326.37 453.33
  L 1324.30 454.29
  C 1323.94 454.45 1323.56 454.54 1323.16 454.54
  L 1317.13 454.54
  C 1317.04 454.54 1316.95 454.53 1316.86 454.50
  L 1312.79 453.34
  Z"
/>
<path fill="#FFE44C" d="
  M 1279.24 450.85
  L 1282.37 449.76
  C 1282.58 449.68 1282.82 449.80 1282.89 450.01
  L 1283.52 451.83
  C 1283.57 451.98 1283.46 452.14 1283.30 452.14
  L 1279.42 452.02
  C 1278.75 452.00 1278.61 451.07 1279.24 450.85
  Z"
/>
<path fill="#FFE44C" d="
  M 1331.39 451.58
  C 1331.74 451.70 1332.19 452.42 1332.73 453.76
  C 1332.84 454.04 1332.69 454.35 1332.41 454.44
  C 1331.68 454.66 1331.03 454.68 1330.46 454.50
  C 1329.89 454.32 1329.37 453.93 1328.91 453.33
  C 1328.73 453.09 1328.79 452.75 1329.04 452.58
  C 1330.26 451.81 1331.04 451.47 1331.39 451.58
  Z"
/>
<path fill="#FFE44C" d="
  M 397.19 469.09
  L 399.24 468.37
  C 400.00 468.11 400.82 468.59 400.95 469.39
  C 401.17 470.69 401.46 471.52 401.81 471.89
  C 402.58 472.70 403.99 472.24 404.36 471.06
  C 405.34 467.96 408.24 470.92 410.02 468.61
  C 410.22 468.35 410.58 468.29 410.85 468.46
  C 412.12 469.28 413.33 469.02 414.48 467.67
  C 415.41 466.58 414.83 464.90 413.45 464.69
  C 413.23 464.66 412.73 464.68 411.95 464.75
  C 411.43 464.80 411.02 464.32 411.15 463.82
  L 411.21 463.56
  C 411.36 462.94 411.86 462.46 412.48 462.33
  C 413.06 462.20 413.63 462.49 414.20 463.19
  C 414.38 463.41 414.64 463.53 414.93 463.54
  L 416.92 463.61
  C 417.41 463.62 417.81 464.03 417.81 464.53
  L 417.81 466.70
  C 417.81 466.95 418.01 467.15 418.26 467.15
  L 420.16 467.15
  C 420.51 467.15 420.84 466.97 421.03 466.67
  C 422.33 464.64 422.87 462.95 422.64 461.59
  C 422.48 460.65 423.25 459.81 424.20 459.89
  L 426.33 460.05
  C 427.58 460.15 428.60 461.11 428.77 462.36
  C 428.94 463.67 429.78 464.45 431.29 464.69
  C 432.46 464.87 433.30 463.60 432.67 462.60
  C 432.26 461.95 432.23 461.22 432.56 460.39
  C 432.70 460.05 433.04 459.84 433.40 459.89
  C 435.31 460.11 437.42 459.76 439.75 458.85
  C 439.98 458.76 440.23 458.71 440.48 458.71
  L 447.89 458.71
  C 448.15 458.71 448.42 458.67 448.66 458.58
  C 450.43 457.96 451.95 457.85 453.23 458.24
  C 455.64 458.99 457.37 459.00 458.41 458.27
  C 458.55 458.17 458.72 458.12 458.90 458.12
  L 469.34 458.12
  C 469.64 458.12 469.95 458.17 470.23 458.27
  C 471.16 458.57 471.74 458.72 471.98 458.72
  C 479.65 458.71 488.11 458.22 489.63 459.10
  C 489.91 459.26 490.23 459.35 490.55 459.35
  L 498.09 459.31
  C 498.37 459.31 498.64 459.40 498.86 459.56
  C 498.88 459.58 499.02 459.68 499.27 459.85
  C 499.34 459.90 499.49 459.93 499.72 459.93
  C 503.54 459.92 508.54 459.92 514.73 459.92
  C 515.11 459.92 515.48 460.02 515.81 460.21
  C 515.88 460.25 515.92 460.28 515.94 460.29
  C 516.26 460.46 516.61 460.55 516.96 460.55
  L 526.76 460.53
  C 527.14 460.53 527.51 460.63 527.83 460.83
  C 527.85 460.84 527.88 460.85 527.91 460.87
  C 528.22 460.96 528.53 461.01 528.85 461.02
  L 555.85 461.85
  C 555.89 461.85 555.92 461.87 555.94 461.90
  C 555.95 461.92 556.02 461.97 556.15 462.05
  C 556.45 462.23 556.80 462.33 557.15 462.33
  L 574.08 462.33
  C 574.42 462.33 574.76 462.40 575.07 462.53
  C 575.68 462.79 576.10 462.92 576.32 462.92
  C 585.89 462.93 590.89 462.93 591.32 462.93
  C 591.59 462.93 591.86 463.01 592.09 463.16
  C 592.25 463.27 592.41 463.34 592.56 463.39
  C 594.08 463.90 598.12 463.57 600.87 463.56
  C 601.21 463.55 601.54 463.65 601.83 463.84
  C 601.94 463.91 602.01 463.96 602.04 463.98
  C 602.23 464.08 602.44 464.14 602.66 464.14
  L 612.75 464.13
  C 613.08 464.13 613.41 464.18 613.74 464.27
  C 615.48 464.79 618.05 464.92 621.46 464.65
  C 621.96 464.61 622.46 464.76 622.86 465.07
  C 623.57 465.61 625.18 465.22 626.41 465.63
  C 627.46 465.98 629.07 466.06 631.23 465.86
  C 631.34 465.85 631.44 465.87 631.54 465.90
  L 633.18 466.50
  C 633.40 466.59 633.64 466.62 633.87 466.60
  C 635.58 466.47 636.63 466.51 637.00 466.72
  C 638.50 467.54 639.94 466.79 641.75 467.83
  C 642.26 468.12 643.21 468.27 644.60 468.28
  C 655.75 468.35 662.77 468.38 665.66 468.36
  C 666.13 468.36 666.59 468.53 666.95 468.83
  C 669.34 470.84 671.55 471.86 673.57 471.89
  C 678.74 471.96 686.18 471.97 695.90 471.92
  C 696.09 471.92 696.28 471.97 696.45 472.06
  L 697.26 472.47
  C 697.37 472.53 697.50 472.56 697.63 472.56
  L 704.30 472.56
  C 704.59 472.56 704.68 472.96 704.41 473.08
  C 702.71 473.86 700.24 473.52 699.25 474.31
  C 699.16 474.38 697.12 474.39 693.12 474.32
  C 692.75 474.31 692.39 474.41 692.08 474.61
  C 692.01 474.65 691.94 474.69 691.87 474.73
  C 691.65 474.88 691.38 474.96 691.11 474.96
  C 689.44 474.95 687.57 474.95 685.50 474.95
  C 685.34 474.95 685.09 475.05 684.75 475.25
  C 684.38 475.46 683.97 475.57 683.55 475.57
  L 677.60 475.57
  C 677.35 475.57 677.11 475.67 676.93 475.85
  L 676.71 476.06
  C 676.65 476.12 676.57 476.16 676.49 476.16
  L 670.14 476.16
  C 669.72 476.16 669.30 476.23 668.90 476.36
  C 667.49 476.83 665.87 476.94 664.03 476.68
  C 663.75 476.64 663.46 476.74 663.26 476.94
  L 663.05 477.15
  C 662.93 477.28 662.76 477.35 662.57 477.36
  C 660.38 477.42 657.71 477.15 655.23 477.66
  C 652.32 478.26 648.84 477.41 645.74 478.44
  C 645.46 478.53 645.15 478.58 644.85 478.58
  L 631.17 478.58
  C 630.82 478.58 630.47 478.49 630.16 478.31
  C 630.15 478.30 630.08 478.26 629.95 478.18
  C 629.71 478.03 629.44 477.95 629.17 477.95
  L 623.77 477.95
  C 623.61 477.95 623.44 477.91 623.30 477.83
  C 621.61 476.94 619.20 478.01 617.83 476.88
  C 617.63 476.71 617.39 476.65 617.11 476.69
  C 615.56 476.92 614.09 476.85 612.70 476.48
  C 610.33 475.85 607.73 476.66 605.89 475.83
  C 605.58 475.70 603.75 475.53 600.39 475.33
  C 600.13 475.32 599.87 475.36 599.63 475.45
  C 599.54 475.48 599.46 475.52 599.41 475.56
  C 599.30 475.64 599.15 475.66 599.03 475.60
  C 596.48 474.44 593.57 474.04 590.30 474.40
  C 589.83 474.45 589.35 474.38 588.91 474.18
  C 586.98 473.32 584.79 474.08 582.45 473.25
  C 582.00 473.09 580.70 473.07 578.55 473.20
  C 578.16 473.23 577.77 473.15 577.42 472.99
  C 576.49 472.55 575.20 472.42 573.56 472.60
  C 573.11 472.65 572.65 472.58 572.23 472.41
  C 570.01 471.48 567.70 472.36 565.39 471.54
  C 564.78 471.33 563.60 471.28 561.84 471.40
  C 561.56 471.42 561.29 471.34 561.06 471.17
  L 560.80 470.99
  C 560.49 470.76 560.11 470.66 559.73 470.70
  C 557.78 470.91 556.11 470.75 554.72 470.22
  C 554.59 470.17 554.46 470.14 554.33 470.14
  L 548.32 470.14
  C 548.24 470.14 548.15 470.11 548.09 470.05
  C 546.96 469.00 543.21 469.94 541.37 469.18
  C 539.85 468.56 538.30 469.39 536.91 468.63
  C 535.43 467.82 532.92 468.82 531.11 467.94
  C 529.77 467.30 527.42 468.02 525.64 467.50
  C 524.27 467.09 522.80 466.99 521.24 467.19
  C 520.94 467.23 520.63 467.16 520.37 466.99
  C 518.92 466.01 516.45 466.89 514.53 466.23
  C 513.62 465.91 512.23 465.82 510.36 465.96
  C 509.95 465.99 509.53 465.93 509.14 465.79
  C 507.96 465.34 506.28 465.20 504.11 465.37
  C 503.56 465.42 503.00 465.29 502.52 465.01
  C 502.43 464.95 502.37 464.91 502.33 464.90
  C 502.01 464.74 501.65 464.67 501.28 464.70
  C 499.92 464.84 498.80 464.69 497.92 464.26
  C 497.73 464.17 497.52 464.12 497.31 464.12
  L 492.74 464.14
  C 492.40 464.14 492.08 464.06 491.78 463.91
  C 491.77 463.90 491.70 463.83 491.57 463.70
  C 491.46 463.58 491.30 463.51 491.13 463.52
  L 485.19 463.59
  C 484.84 463.60 484.49 463.51 484.18 463.33
  C 483.12 462.46 480.93 463.23 479.46 462.52
  C 479.20 462.39 478.91 462.33 478.61 462.33
  L 468.83 462.33
  C 468.62 462.33 468.41 462.36 468.21 462.43
  L 459.35 465.28
  C 459.26 465.31 459.18 465.32 459.09 465.33
  C 458.20 465.39 456.61 465.79 454.31 466.53
  C 451.88 467.31 448.46 468.28 444.05 469.44
  C 443.91 469.48 443.57 469.64 443.15 469.88
  C 442.14 470.45 441.06 469.94 439.94 470.30
  C 437.83 470.97 436.34 471.48 435.47 471.84
  C 435.14 471.98 434.77 472.02 434.42 471.97
  C 433.21 471.78 432.18 471.94 431.33 472.43
  C 430.96 472.64 430.51 472.63 430.16 472.39
  L 429.92 472.22
  C 429.67 472.05 429.38 471.95 429.09 471.94
  C 428.87 471.93 426.94 471.93 423.31 471.94
  C 421.96 471.94 420.97 472.73 419.76 471.66
  C 419.44 471.38 418.98 471.36 418.64 471.60
  C 418.26 471.87 417.04 471.98 414.99 471.92
  C 414.73 471.91 413.73 472.19 411.99 472.75
  C 411.65 472.86 411.37 473.11 411.24 473.43
  C 410.52 475.13 409.13 475.67 407.39 475.57
  C 406.52 475.52 405.95 475.63 405.67 475.90
  C 405.43 476.13 405.09 476.24 404.75 476.20
  C 403.46 476.01 402.32 476.14 401.34 476.59
  C 401.07 476.71 400.77 476.75 400.48 476.70
  C 398.55 476.35 397.53 475.09 397.42 472.92
  C 397.41 472.58 397.28 472.26 397.07 472.01
  C 396.82 471.70 396.72 470.92 396.76 469.67
  C 396.77 469.40 396.94 469.17 397.19 469.09
  Z
  M 452.4616 460.6395
  C 452.18 460.41 451.69 460.56 451.3649 460.9609
  C 451.04 461.36 451.00 461.87 451.2784 462.1005
  C 451.56 462.33 452.05 462.18 452.3751 461.7791
  C 452.70 461.38 452.74 460.87 452.4616 460.6395
  Z
  M 426.9108 466.1369
  C 426.47 466.26 426.26 466.88 426.4430 467.5016
  C 426.62 468.13 427.13 468.53 427.5692 468.4031
  C 428.01 468.28 428.22 467.66 428.0370 467.0384
  C 427.86 466.41 427.35 466.01 426.9108 466.1369
  Z"
/>
<path fill="#FFE44C" d="
  M 711.33 458.17
  C 711.73 458.23 711.94 458.68 711.73 459.02
  L 711.59 459.24
  C 711.31 459.70 710.79 459.96 710.25 459.92
  C 709.32 459.85 708.44 460.03 707.63 460.46
  C 707.35 460.61 707.02 460.65 706.71 460.59
  C 705.90 460.42 705.20 460.50 704.63 460.84
  C 704.39 460.98 704.13 461.06 703.86 461.09
  C 701.50 461.31 700.06 461.19 699.53 460.72
  C 699.28 460.50 698.94 460.40 698.60 460.46
  C 697.82 460.60 696.87 460.58 695.76 460.39
  C 695.46 460.34 695.33 459.98 695.53 459.75
  L 695.87 459.34
  C 695.89 459.31 695.93 459.29 695.97 459.30
  C 697.44 459.48 698.55 459.35 699.30 458.92
  C 699.54 458.78 699.81 458.71 700.09 458.71
  L 706.39 458.71
  C 706.72 458.71 707.05 458.65 707.35 458.53
  C 708.51 458.07 709.84 457.95 711.33 458.17
  Z"
/>
<path fill="#FFE44C" d="
  M 375.81 465.40
  C 375.49 465.45 375.26 465.10 375.40 464.79
  C 375.50 464.58 375.67 464.43 375.92 464.36
  C 376.20 464.28 376.47 464.53 376.43 464.84
  C 376.40 465.16 376.19 465.35 375.81 465.40
  Z"
/>
<path fill="#FFE44C" d="
  M 409.63 466.39
  C 409.38 466.28 409.30 466.05 409.37 465.70
  C 409.40 465.53 409.59 465.44 409.74 465.52
  C 409.82 465.57 409.89 465.65 409.95 465.78
  C 410.10 466.12 409.90 466.50 409.63 466.39
  Z"
/>
<path fill="#FFE44C" d="
  M 379.36 468.97
  C 378.89 468.95 378.61 468.92 378.51 468.89
  C 378.06 468.73 377.96 468.13 378.32 467.77
  C 378.81 467.30 379.27 467.26 379.71 467.67
  C 380.22 468.15 379.99 468.99 379.36 468.97
  Z"
/>
<path fill="#FFE44C" d="
  M 391.96 470.80
  C 391.93 470.33 392.37 469.98 392.82 470.10
  L 393.67 470.34
  C 394.12 470.46 394.41 470.90 394.34 471.37
  C 394.23 472.09 394.62 473.24 395.52 474.81
  C 395.91 475.49 395.54 476.34 394.79 476.53
  L 393.38 476.89
  C 393.34 476.90 393.30 476.90 393.25 476.89
  C 391.32 476.64 390.81 475.36 391.73 473.06
  C 391.82 472.85 391.89 472.63 391.96 472.41
  C 392.01 472.24 392.01 471.70 391.96 470.80
  Z"
/>
<path fill="#FFE44C" d="
  M 387.11 474.53
  C 387.10 474.81 386.87 475.03 386.59 475.02
  L 386.03 475.00
  C 385.62 474.99 385.29 474.64 385.31 474.23
  L 385.36 472.49
  C 385.37 472.24 385.58 472.03 385.84 472.04
  L 386.47 472.06
  C 386.87 472.08 387.18 472.41 387.17 472.81
  L 387.11 474.53
  Z"
/>
<path fill="#FFE44C" d="
  M 392.25 615.46
  C 392.27 616.61 392.28 617.40 392.31 617.84
  C 392.32 618.02 392.10 618.11 391.98 617.97
  C 391.62 617.57 391.43 616.73 391.41 615.47
  C 391.40 614.20 391.57 613.36 391.92 612.94
  C 392.03 612.81 392.26 612.89 392.26 613.08
  C 392.24 613.51 392.24 614.31 392.25 615.46
  Z"
/>
</svg>
