<svg width="1446" height="743" viewBox="0 0 1446 743" fill="none" xmlns="http://www.w3.org/2000/svg">
<path d="M557.441 62.4401C557.161 63.4101 555.851 63.5501 555.371 62.6601C554.661 61.3601 553.891 60.7001 553.061 60.6701C552.751 60.6601 552.501 60.9301 552.531 61.2401C552.641 62.2701 552.571 63.0601 552.331 63.6001C552.161 63.9901 551.771 64.2501 551.341 64.2601C548.131 64.3901 545.991 64.3201 544.901 64.0501C543.811 63.7801 542.701 63.6601 541.591 63.7001C540.281 63.7501 539.321 63.5901 538.701 63.2301C538.431 63.0801 538.111 63.0301 537.811 63.1101C537.751 63.1201 535.481 63.1301 531.001 63.1201C530.781 63.1201 530.511 63.0001 530.181 62.7501C529.991 62.6101 529.761 62.5401 529.531 62.5401H522.511C522.191 62.5401 521.881 62.4801 521.581 62.3601C520.171 61.7901 518.801 61.6801 517.461 62.0301C515.371 62.5601 513.561 62.7001 512.011 62.4601C511.761 62.4201 511.421 62.5501 511.001 62.8601C510.711 63.0701 510.361 63.1701 510.001 63.1401C507.611 62.9701 505.011 63.3201 502.211 64.2101C501.951 64.2901 501.681 64.3301 501.411 64.3301H499.881C499.481 64.3301 499.081 64.4001 498.701 64.5401C497.591 64.9501 496.361 65.0701 495.001 64.9001C494.641 64.8501 494.271 64.9201 493.951 65.1001C493.191 65.5201 492.331 65.6501 491.371 65.5001C490.911 65.4201 490.451 65.5201 490.071 65.7801C490.051 65.7901 490.011 65.8301 489.941 65.8801C489.601 66.1201 489.181 66.2301 488.771 66.1801C487.381 65.9901 486.301 66.1201 485.521 66.5701C485.361 66.6601 485.171 66.7101 484.981 66.7101H481.841C481.711 66.7101 481.581 66.7501 481.471 66.8201C480.581 67.4101 478.951 67.5601 476.581 67.2601C476.221 67.2101 475.851 67.2601 475.521 67.4001C473.241 68.3101 471.021 68.6901 468.871 68.5401C468.541 68.5101 468.211 68.6001 467.931 68.7801C466.511 69.7001 464.391 68.5201 462.741 69.5401C462.261 69.8301 461.531 69.8901 460.551 69.7001C460.191 69.6301 459.811 69.7301 459.531 69.9701C458.701 70.6901 457.141 70.1001 455.821 70.6101C454.911 70.9601 453.671 71.0601 452.111 70.9001C451.701 70.8501 451.281 70.9601 450.931 71.2001C449.591 72.1001 447.811 71.0401 446.531 71.9401C446.251 72.1401 445.901 72.2301 445.561 72.1801C444.361 72.0101 443.421 72.1501 442.731 72.5901C442.631 72.6501 442.521 72.6901 442.411 72.7001L431.891 73.9301C431.551 73.9701 431.221 74.0901 430.921 74.2701C430.701 74.4101 430.471 74.5201 430.231 74.5901C429.461 74.8401 428.541 74.9701 427.471 74.9701C424.681 74.9801 422.411 75.1501 420.681 75.4801C419.461 75.7201 418.671 75.8101 418.311 75.7601C417.591 75.6601 416.991 75.7801 416.511 76.1201C416.221 76.3301 415.861 76.4201 415.511 76.3801C414.021 76.2401 412.971 76.2801 412.381 76.4901C410.261 77.2501 409.071 76.5401 407.271 77.3401C406.941 77.4901 406.581 77.5601 406.211 77.5601H398.541C398.401 77.5601 398.261 77.5901 398.131 77.6501C396.881 78.2201 395.191 78.3801 393.061 78.1301C392.841 78.1001 392.671 77.9201 392.661 77.7001C392.651 77.4701 392.811 77.2801 393.031 77.2401C394.951 76.9101 396.381 76.4801 397.331 75.9701C397.591 75.8301 397.871 75.7601 398.161 75.7601H401.221C401.461 75.7601 401.691 75.7001 401.891 75.5901C402.661 75.1601 403.621 75.0201 404.751 75.1501C405.071 75.1901 405.391 75.1201 405.661 74.9501C405.891 74.8201 406.251 74.6701 406.761 74.5001C407.541 74.2401 408.371 74.0901 409.241 74.0401C410.211 73.9901 411.361 73.9101 412.691 73.7801C413.101 73.7501 414.031 73.5601 415.461 73.2101C415.521 73.2001 417.321 72.8601 420.861 72.2001C421.171 72.1501 421.591 72.1301 422.141 72.1501C422.611 72.1701 423.011 72.0501 423.341 71.7801C423.621 71.5501 423.991 71.4501 424.351 71.5101C425.481 71.7001 426.381 71.5701 427.051 71.1201C427.231 71.0001 427.451 70.9301 427.671 70.9301H430.041C430.381 70.9301 430.721 70.8901 431.051 70.8101C434.431 69.9901 437.871 69.4001 441.371 69.0501C441.561 69.0301 441.791 68.9301 442.051 68.7601C442.121 68.7101 442.371 68.6601 442.781 68.5901C443.861 68.4401 444.941 68.2701 446.011 68.1001C447.721 67.8301 449.221 67.7101 450.511 67.7301C452.041 67.7601 453.121 67.6201 453.761 67.2901C455.581 66.3601 456.851 67.1501 458.531 66.3001C459.111 66.0101 459.941 65.9701 461.021 66.1801C461.301 66.2401 462.291 66.0401 464.001 65.5701C467.001 64.7401 469.571 64.2501 471.721 64.1001C472.781 64.0201 473.701 63.8701 474.481 63.6401C476.031 63.1701 477.331 63.0101 478.391 63.1601C479.861 63.3601 481.171 62.1101 482.811 62.5801C483.141 62.6801 483.501 62.5901 483.741 62.3501C484.151 61.9401 484.741 61.7901 485.511 61.9101C487.091 62.1501 488.481 61.1201 490.271 61.3401C490.791 61.4101 491.301 60.8901 492.031 60.7701C493.311 60.5701 494.221 60.4101 494.761 60.2801C495.691 60.0501 496.771 60.0101 498.021 60.1601C498.351 60.2001 498.671 60.1001 498.931 59.8901C500.261 58.8201 502.491 60.2101 503.861 59.1701C504.171 58.9401 504.551 58.8301 504.931 58.8701C506.791 59.0601 508.251 58.9001 509.311 58.3801C509.541 58.2701 509.801 58.2601 510.041 58.3401C510.411 58.4601 511.371 58.3501 512.941 58.0201C516.481 57.2701 519.501 56.8801 521.991 56.8501C523.741 56.8401 524.831 56.7401 525.241 56.5601C525.751 56.3401 526.101 56.1701 526.301 56.0501C526.601 55.8801 526.951 55.8101 527.291 55.8601C528.581 56.0501 529.651 55.9401 530.501 55.5301C530.801 55.3901 531.121 55.3101 531.461 55.3101L537.151 55.3201C537.461 55.3301 537.771 55.2401 538.031 55.0701C538.061 55.0601 538.101 55.0201 538.151 54.9701C538.341 54.7801 538.601 54.6801 538.871 54.6901C540.701 54.7401 542.631 54.3701 544.641 53.5701C544.921 53.4601 545.231 53.4201 545.531 53.4601C547.221 53.6701 548.681 53.6301 549.911 53.3501C551.621 52.9701 553.051 52.8101 554.191 52.8801C556.521 53.0301 558.641 52.6801 560.541 51.8501C560.871 51.7001 561.251 51.7601 561.531 51.9901C561.961 52.3401 562.341 52.3701 562.691 52.0601C563.031 51.7501 563.441 51.6201 563.921 51.6501C566.241 51.8101 567.831 51.7401 568.701 51.4301C570.561 50.7801 572.461 51.1201 575.001 51.1101C575.371 51.1001 575.721 51.0001 576.021 50.8001C576.031 50.8001 576.091 50.7601 576.191 50.6801C576.511 50.4601 576.911 50.3701 577.301 50.4501C578.281 50.6401 579.071 50.5401 579.661 50.1601C580.081 49.9001 580.581 49.7901 581.061 49.8501C582.301 50.0301 583.531 49.9201 584.741 49.5101C585.171 49.3601 585.631 49.2901 586.091 49.3001L589.971 49.3201C590.351 49.3301 590.721 49.2101 591.031 49.0001C591.081 48.9701 591.141 48.9101 591.221 48.8301C591.331 48.7301 591.471 48.6801 591.611 48.6801H595.421C595.641 48.6801 595.861 48.6301 596.061 48.5301C596.911 48.1301 597.861 47.9901 598.901 48.1101C599.311 48.1601 599.711 48.0501 600.051 47.8201C600.061 47.8101 600.111 47.7701 600.211 47.6801C600.501 47.4301 600.891 47.3301 601.271 47.4001C602.661 47.6701 603.731 47.5601 604.491 47.0601C604.671 46.9501 604.871 46.8901 605.071 46.8901H614.301C614.681 46.8901 615.051 46.8201 615.401 46.6701C616.351 46.2801 617.401 46.1701 618.571 46.3301C619.011 46.3901 619.451 46.2801 619.811 46.0201C619.841 46.0001 619.911 45.9401 620.021 45.8501C620.151 45.7401 620.321 45.6801 620.491 45.6801H629.251C629.521 45.6801 629.791 45.6001 630.011 45.4401C630.121 45.3501 630.201 45.3001 630.231 45.2801C630.391 45.1601 630.591 45.0901 630.791 45.0901H637.181C637.411 45.0901 637.641 45.0201 637.841 44.8801C637.921 44.8201 638.001 44.7601 638.081 44.7101C638.311 44.5401 638.581 44.4501 638.871 44.4501C644.011 44.4801 648.161 44.8201 649.571 44.0301C649.731 43.9301 649.921 43.8801 650.101 43.8801H656.481C656.701 43.8801 656.921 43.7901 657.081 43.6401L657.271 43.4501C657.371 43.3501 657.501 43.2901 657.651 43.2901L668.001 43.3001C668.371 43.3001 668.731 43.2101 669.051 43.0401C669.071 43.0301 669.161 42.9801 669.331 42.8701C669.551 42.7501 669.791 42.6801 670.051 42.6801H682.301C682.641 42.6801 682.991 42.6201 683.311 42.4901C684.241 42.1401 685.051 41.9901 685.761 42.0501C688.171 42.2501 690.121 42.0901 691.601 41.5701C691.771 41.5101 691.951 41.4801 692.131 41.4801L703.951 41.4501C704.211 41.4501 704.451 41.3501 704.631 41.1701C704.711 41.0901 704.841 41.0101 705.021 40.9301C705.091 40.9001 705.151 40.8901 705.221 40.8901L712.161 40.8801C712.491 40.8801 712.801 40.7801 713.071 40.5901C713.091 40.5801 713.141 40.5401 713.211 40.4801C713.381 40.3401 713.601 40.2601 713.821 40.2701C717.231 40.3001 719.951 40.3001 722.001 40.2701C722.141 40.2601 722.351 40.1601 722.641 39.9601C722.911 39.7701 723.231 39.6701 723.561 39.6701H730.791C730.941 39.6701 731.071 39.6401 731.201 39.5901L732.321 39.1401C732.411 39.1001 732.511 39.0801 732.611 39.0801H743.891C744.221 39.0801 744.541 39.1601 744.821 39.3201C745.291 39.5701 745.601 39.7001 745.751 39.7001C747.911 39.6701 750.911 39.6601 754.741 39.6801C755.091 39.6801 755.441 39.7801 755.741 39.9801C755.751 39.9901 755.831 40.0401 755.991 40.1501C756.111 40.2401 756.261 40.2901 756.421 40.2901H766.161C766.461 40.2901 766.761 40.3701 767.031 40.5201L767.301 40.6801C767.531 40.8101 767.791 40.8801 768.061 40.8801H777.681C777.961 40.8801 778.221 40.9501 778.461 41.0901L778.821 41.2901C779.011 41.4001 779.221 41.4601 779.441 41.4601H790.191C790.401 41.4601 790.611 41.5101 790.801 41.6001C792.731 42.5101 796.601 42.0901 800.031 42.0701C800.391 42.0701 800.741 42.1301 801.081 42.2601C803.361 43.1201 809.111 42.6801 816.531 42.6701C816.891 42.6701 817.251 42.7601 817.571 42.9301C817.621 42.9501 817.711 43.0001 817.841 43.0901C818.081 43.2301 818.341 43.3001 818.621 43.3001L830.971 43.2801C831.321 43.2801 831.671 43.3701 831.981 43.5401C832.021 43.5601 832.091 43.6101 832.201 43.6801C832.401 43.8101 832.621 43.8801 832.851 43.8801H840.291C840.591 43.8801 840.881 43.9801 841.111 44.1701C841.841 44.7601 847.051 44.4601 850.911 44.4601C851.211 44.4601 851.501 44.5401 851.751 44.7001C851.761 44.7101 851.831 44.7701 851.941 44.8601C852.151 45.0401 852.411 45.1401 852.681 45.1301C855.961 45.0701 859.551 44.7001 862.241 45.5701C862.461 45.6401 862.691 45.6801 862.921 45.6801H874.161C874.331 45.6801 874.491 45.7501 874.601 45.8701C874.941 46.2401 875.491 46.4001 876.251 46.3401C878.621 46.1401 880.381 46.3001 881.531 46.8301C881.611 46.8701 881.691 46.8901 881.781 46.8901H896.121C896.381 46.8901 896.631 46.9601 896.851 47.0901C896.961 47.1601 897.041 47.2001 897.091 47.2301C897.421 47.4101 897.791 47.5001 898.161 47.4901L906.871 47.4701C907.181 47.4701 907.491 47.5601 907.751 47.7301C907.781 47.7501 907.841 47.8001 907.931 47.8701C908.121 48.0401 908.371 48.1201 908.621 48.1001C909.671 48.0401 910.391 48.1201 910.781 48.3301C912.361 49.2001 913.871 48.1001 915.181 49.0801C916.791 50.2601 918.691 49.8801 920.941 49.9001C921.361 49.9101 921.751 50.1201 921.981 50.4701C923.431 52.6501 925.001 51.0101 926.821 52.1801C928.001 52.9301 929.221 53.1101 930.491 52.7201C931.561 52.3901 932.601 53.3301 932.391 54.4501C932.341 54.7401 932.161 55.0801 931.851 55.4901C931.651 55.7501 931.331 55.9101 930.991 55.9101H925.651C925.541 55.9101 925.431 55.8901 925.321 55.8401C924.451 55.3901 923.021 55.2101 921.051 55.2801C920.831 55.2901 920.621 55.3401 920.421 55.4301C917.771 56.6801 915.591 55.2501 913.301 55.2901C911.511 55.3201 909.881 55.3301 908.391 55.3401C908.201 55.3401 908.011 55.2601 907.881 55.1301L907.691 54.9401C907.541 54.7901 907.331 54.7001 907.111 54.7001H891.121C890.721 54.7001 890.331 54.6101 889.971 54.4501C889.821 54.3801 889.661 54.3201 889.491 54.2601C889.191 54.1501 888.871 54.1001 888.551 54.1001H873.261C872.951 54.1001 872.651 54.0101 872.401 53.8501C871.791 53.4601 871.231 53.3301 870.741 53.4601C867.911 54.1801 865.661 54.6101 864.001 54.7501C863.691 54.7801 863.391 54.9001 863.161 55.1101C863.131 55.1401 863.091 55.1801 863.031 55.2501C862.891 55.4201 862.631 55.4101 862.501 55.2301C862.451 55.1401 862.391 55.0801 862.331 55.0401C862.021 54.8401 861.671 54.7201 861.301 54.6901C859.611 54.5801 858.161 54.0301 856.961 53.0301C854.101 50.6501 852.551 49.5901 849.501 51.0801C848.831 51.4101 847.831 51.5801 846.491 51.5901C831.361 51.7001 823.331 51.7401 822.411 51.7001C821.951 51.6801 821.491 51.5601 821.071 51.3501C820.431 51.0301 819.471 50.9601 818.191 51.1401C817.861 51.1901 817.521 51.1001 817.261 50.8901C816.811 50.5301 815.941 50.3901 814.671 50.4701C813.711 50.5401 812.801 50.4801 811.941 50.3101C808.491 49.6201 805.571 49.2701 803.181 49.2501C802.931 49.2401 802.691 49.1501 802.501 48.9801C802.301 48.7901 802.131 48.6901 802.001 48.6901C793.881 48.6701 789.191 48.6801 787.941 48.7201C787.731 48.7301 787.521 48.6701 787.341 48.5701L786.661 48.1801C786.421 48.0401 786.141 47.9701 785.861 47.9901C783.151 48.2001 780.961 48.1601 779.311 47.8901C776.931 47.5001 775.371 47.3401 774.621 47.4201C773.111 47.5801 772.061 47.5301 771.451 47.2601C770.631 46.9001 769.591 46.7701 768.341 46.8801C766.401 47.0501 764.431 46.8801 762.421 46.3701C762.231 46.3201 762.041 46.2901 761.851 46.2901H748.981C748.761 46.2901 748.551 46.3401 748.351 46.4401C746.571 47.3001 744.571 46.4401 743.361 47.0801C741.681 47.9801 740.141 46.9401 738.671 47.8801C738.451 48.0201 738.191 48.1001 737.931 48.1001H734.861C734.681 48.1001 734.511 48.1501 734.371 48.2401C733.581 48.7301 732.321 48.8601 730.581 48.6401C730.191 48.5901 729.791 48.6801 729.471 48.9101C728.371 49.7001 727.011 48.9801 725.831 49.5401C725.211 49.8301 724.271 49.9501 723.001 49.9001C722.651 49.8901 722.301 49.9801 722.011 50.1801C721.991 50.1901 721.931 50.2301 721.841 50.3001C721.611 50.4701 721.321 50.5701 721.021 50.5601C714.851 50.4101 709.611 50.4301 705.321 50.6001C702.391 50.7301 701.851 53.5701 698.361 53.5501C698.031 53.5401 697.701 53.6301 697.431 53.8101C697.051 54.0601 696.661 54.1601 696.271 54.1301C694.121 53.9601 692.341 54.0901 690.941 54.5101C690.661 54.5901 690.381 54.6301 690.091 54.6401C685.101 54.7701 679.901 55.1401 674.481 55.7501C674.121 55.7901 673.051 55.7001 671.271 55.4801C666.591 54.9101 663.961 54.5301 663.371 54.3401C662.971 54.2001 662.621 53.9501 662.361 53.6201C661.011 51.9101 659.191 51.6101 656.901 52.7201C655.681 53.3101 654.751 53.0601 654.101 51.9901C653.341 50.7501 651.501 50.8801 650.871 52.2201C650.621 52.7501 650.451 53.1301 650.341 53.3601C650.201 53.6401 649.851 53.7401 649.591 53.5801C648.871 53.1601 648.071 52.9201 647.191 52.8501C646.871 52.8301 646.551 52.9501 646.331 53.1701L644.561 54.9401C643.761 55.7401 642.381 55.2901 642.211 54.1701L641.971 52.6401C641.941 52.4701 641.851 52.3201 641.701 52.2401L638.401 50.3401C638.161 50.2001 637.851 50.2401 637.661 50.4301C636.961 51.1301 636.611 51.5101 636.621 51.5801C636.711 53.2301 634.761 54.1601 633.541 53.0401C632.911 52.4601 632.511 52.0601 632.351 51.8501C632.151 51.6001 631.791 51.5501 631.541 51.7501C630.351 52.6801 629.251 53.0701 628.221 52.9001C627.901 52.8501 627.591 53.0101 627.451 53.3001C626.511 55.2201 625.201 54.2901 623.631 55.2201C623.301 55.4101 622.891 55.4101 622.561 55.2201C620.491 54.0401 618.821 54.0601 617.571 55.2901C616.961 55.8801 616.231 55.9501 615.381 55.5001C613.311 54.4101 612.161 54.3401 611.921 55.3101C611.851 55.5901 611.551 55.7501 611.281 55.6501C610.811 55.4701 610.241 55.3601 609.561 55.3201C608.191 55.2301 607.611 56.0001 607.811 57.6101C607.911 58.4201 606.941 58.8901 606.361 58.3201L604.671 56.6301C604.431 56.3901 604.071 56.3001 603.741 56.4101C602.401 56.8801 601.421 57.1201 600.791 57.1401C599.961 57.2201 599.141 57.4301 598.371 57.7601L591.761 60.6101C591.481 60.7301 591.161 60.7701 590.851 60.7401C590.031 60.6401 588.711 61.6901 587.631 61.9301C587.471 61.9701 587.301 61.9701 587.141 61.9201L579.751 59.6901C579.661 59.6601 579.591 59.6201 579.521 59.5601L577.561 57.8701C577.341 57.6801 577.031 57.6601 576.781 57.8001C575.361 58.6101 573.891 58.9901 572.381 58.9301C572.131 58.9201 571.901 59.0201 571.741 59.2101C571.601 59.3801 571.481 59.4701 571.371 59.5001C571.071 59.5901 570.741 59.5101 570.521 59.2901C569.331 58.0801 567.761 58.2401 565.811 59.7601C565.241 60.2001 564.571 60.2801 563.801 59.9901C560.401 58.7101 558.281 59.5301 557.441 62.4401ZM656.541 49.9501C656.541 49.6201 656.281 49.3601 655.951 49.3601C655.621 49.3601 655.361 49.6201 655.361 49.9501C655.361 50.2801 655.621 50.5401 655.951 50.5401C656.281 50.5401 656.541 50.2801 656.541 49.9501Z" fill="#FFE44C"/>
<path d="M56.9119 83.6801L61.0419 83.5001C61.2919 83.4901 61.5219 83.3301 61.6319 83.1001C61.9119 82.4901 61.6919 81.8701 60.9619 81.2401C60.7219 81.0301 60.7619 80.6501 61.0319 80.4901L63.1319 79.2801C63.4119 79.1201 63.7519 79.3401 63.7219 79.6601C63.6919 80.0301 63.8218 80.4101 64.1118 80.7801C64.3118 81.0301 64.6119 81.1701 64.9219 81.1701H68.5719C69.4519 81.1701 70.0019 82.1101 69.5619 82.8701L68.8018 84.1901C68.6518 84.4501 68.5719 84.7401 68.5719 85.0301V256.7C68.5719 256.9 68.6119 257.09 68.6819 257.28C69.1819 258.53 69.3219 259.86 69.1019 261.26C69.0119 261.84 69.2219 262.92 69.7419 264.5C69.8319 264.77 69.9619 265.01 70.1319 265.22C70.3019 265.44 70.3919 265.72 70.3819 266C70.2319 268.89 70.7619 272.04 71.9919 275.47C72.1519 275.93 72.2219 276.43 72.1819 276.92C72.0419 278.6 72.1719 279.74 72.5719 280.35C72.7819 280.67 72.8518 281.28 72.8018 282.18C72.7718 282.65 72.8919 283.21 73.1619 283.85C73.4019 284.43 73.6019 285.35 73.7619 286.62C74.0119 288.59 74.0819 289.74 73.9819 290.07C73.8719 290.4 73.9819 290.77 74.2519 290.99C74.8619 291.51 74.5018 294 74.8618 295.33C75.5118 297.76 75.8219 299.5 75.7719 300.55C75.7619 300.94 75.8419 301.32 76.0019 301.66C76.4319 302.52 76.5319 303.81 76.3219 305.54C76.2819 305.89 76.3419 306.24 76.4819 306.55C76.8119 307.24 76.9719 308.05 76.9619 308.99C76.9519 309.64 77.1119 310.46 77.4419 311.45C77.9219 312.94 78.2119 314.67 78.3219 316.64C78.3219 316.66 78.3219 316.68 78.3219 316.69L80.7619 330.98C80.7719 331.02 80.7819 331.06 80.7919 331.1C81.4019 332.97 81.8519 334.94 82.1319 337C82.4419 339.28 82.7119 341.07 82.9419 342.36C83.4319 345.13 83.7119 346.92 83.7719 347.74C83.7819 347.93 83.9719 348.93 84.3219 350.74C84.6519 352.45 84.8319 353.89 84.8419 355.06C84.8419 355.4 84.9419 355.73 85.1319 356.02C85.1619 356.06 85.2119 356.13 85.2819 356.24C85.3619 356.35 85.4019 356.48 85.4019 356.62V367.49C85.4019 367.59 85.3819 367.69 85.3419 367.78C84.2319 370.31 85.1319 373.06 84.3719 376.31C84.0419 377.73 84.6418 380.67 83.8018 381.96C83.6118 382.26 83.5219 382.62 83.5619 382.98C83.7319 384.44 83.6119 385.75 83.1919 386.92C83.0619 387.28 82.9919 387.66 82.9919 388.04V392.28C82.9919 392.34 82.9819 392.4 82.9519 392.45C82.3519 393.68 82.1819 395.69 82.4519 398.47C82.4819 398.84 82.3919 399.21 82.1919 399.52C81.3819 400.8 82.0919 402.79 81.6019 404.21C81.1619 405.49 81.0319 407.1 81.2219 409.03C81.2619 409.39 81.1519 409.76 80.9119 410.05C80.3219 410.76 80.6019 412.7 80.6219 414.77C80.6219 415.14 80.5319 415.5 80.3519 415.83C79.5219 417.33 80.4119 418.89 79.6219 420.39C79.3719 420.86 79.3019 421.74 79.4119 423.02C79.4319 423.28 79.3519 423.54 79.1819 423.75L78.8919 424.11C78.8319 424.18 78.8018 424.27 78.8018 424.37V430.08C78.8018 430.4 78.7519 430.73 78.6519 431.04C78.1819 432.48 78.0319 434.22 78.2019 436.25C78.2819 437.2 78.1419 437.93 77.7819 438.45C77.6619 438.62 77.5919 438.82 77.5919 439.03V445.16C77.5919 445.24 77.5719 445.31 77.5419 445.38C76.9719 446.37 76.7919 447.73 76.9919 449.47C77.1519 450.8 76.1219 451.29 76.3519 452.55C76.5019 453.33 76.3619 454.09 75.9519 454.83C75.7919 455.12 75.7418 455.86 75.8018 457.06C75.8118 457.24 75.7919 457.43 75.7219 457.61L70.4719 472.11C70.4019 472.3 70.3719 472.51 70.3719 472.72V485.26C70.3719 485.79 70.5619 486.3 70.9119 486.7C71.7419 487.65 72.3519 488.78 72.7319 490.1C72.8019 490.34 72.8119 490.6 72.7419 490.84L71.1019 497.18C71.0519 497.38 71.0219 497.59 71.0119 497.8C70.8919 502.43 71.4719 506.79 70.4319 510.79C70.0319 512.36 70.7919 514.68 70.0919 516.38C69.2819 518.32 70.0619 521.43 69.3819 524.01C69.0919 525.11 69.0219 526.47 69.1719 528.09C69.2019 528.42 69.1119 528.75 68.9219 529.02C68.0119 530.28 69.0519 532.31 68.2319 533.89C68.1419 534.06 68.0919 534.25 68.0719 534.44C67.6719 539.51 67.9219 544.32 68.8219 548.86C69.7819 553.67 70.3019 558.04 70.3719 561.97C70.3719 562.05 70.3819 562.13 70.3919 562.22L73.9119 585.22C73.9319 585.37 73.9419 585.51 73.9419 585.66L73.9919 588.95C73.9919 589.29 74.0519 589.64 74.1719 589.96C74.5919 591.16 74.7119 592.55 74.5419 594.12C74.5019 594.5 74.6019 594.88 74.8219 595.18C74.8719 595.25 74.9219 595.32 74.9719 595.37C75.1519 595.57 75.2419 595.85 75.2019 596.12C75.0419 597.35 75.1818 598.36 75.6118 599.15C75.7318 599.38 75.8018 599.64 75.8018 599.91V603.69C75.8018 603.81 75.8519 603.93 75.9419 604.02C76.4319 604.52 76.5619 605.66 76.3519 607.45C76.3419 607.52 76.3419 607.6 76.3519 607.68L77.7919 616.14C77.8319 616.39 77.9019 616.63 78.0019 616.87L78.1419 617.22C78.1719 617.25 78.1819 617.28 78.1719 617.32C78.0319 620.81 78.3819 624.19 79.2319 627.45C79.5419 628.66 79.1419 629.75 79.5319 630.74C80.0419 632 80.1319 633.72 79.9419 634.8C79.8819 635.15 79.9419 635.51 80.1319 635.81C80.6019 636.57 80.7519 637.9 80.5719 639.8C80.5519 639.97 80.5618 640.14 80.6118 640.31L82.1719 646.58C82.3419 647.26 82.9619 647.74 83.6719 647.72C84.7619 647.69 85.6019 647.47 86.1919 647.06C86.3619 646.94 86.5619 646.88 86.7619 646.88L94.0619 646.91C94.4219 646.92 94.7818 646.8 95.0818 646.59C95.1018 646.58 95.1719 646.52 95.2819 646.43C95.3719 646.35 95.4919 646.3 95.6219 646.3H100.512C101.922 646.3 103.312 646.08 104.662 645.66C110.972 643.69 116.662 642.31 121.752 641.51C123.372 641.26 124.402 640.97 124.852 640.64C125.122 640.45 125.432 640.35 125.762 640.35C126.892 640.35 129.012 639.85 132.112 638.86C133.602 638.38 135.452 638.05 137.662 637.87C137.712 637.87 137.772 637.86 137.822 637.85L155.902 633.34C155.912 633.33 155.932 633.33 155.942 633.33C158.262 632.47 160.352 631.96 162.222 631.81C162.472 631.79 162.722 631.72 162.952 631.61C164.252 630.98 165.442 630.66 166.532 630.66C166.852 630.65 167.182 630.59 167.482 630.48C169.392 629.77 171.092 629.82 172.582 630.65C172.822 630.79 173.112 630.81 173.372 630.71C174.002 630.48 174.512 630.56 174.922 630.96C174.952 630.99 174.982 631 175.012 631.01L180.952 632.47C180.982 632.48 181.022 632.48 181.052 632.48C184.712 632.44 186.562 634.49 188.532 635.68C188.892 635.93 189.322 636.07 189.762 636.08L191.212 636.12C191.282 636.12 191.342 636.14 191.392 636.17C192.902 636.9 194.482 636.96 196.142 636.33C197.232 635.92 198.442 635.87 199.772 636.16C203.982 637.11 206.972 637.87 208.762 638.44C209.032 638.53 209.332 638.54 209.612 638.47C210.012 638.37 211.072 638.56 212.792 639.05C214.272 639.47 215.262 639.73 215.762 639.83C220.112 640.72 223.912 641.49 227.162 642.12C227.322 642.15 227.472 642.2 227.612 642.29C228.212 642.64 228.872 642.77 229.582 642.69C230.072 642.64 230.672 642.69 231.382 642.84C235.562 643.71 238.842 644.56 241.222 645.39C242.842 645.96 244.502 645.93 246.202 645.3C247.062 644.99 248.542 644.69 250.642 644.42C251.082 644.37 251.512 644.23 251.892 644.02C253.202 643.31 254.562 643.35 255.952 644.15C256.192 644.28 256.452 644.37 256.712 644.42C259.522 644.9 261.922 644.22 263.932 642.39C264.142 642.19 264.452 641.86 264.852 641.39C265.562 640.54 266.522 640.12 267.732 640.13C268.742 640.14 269.742 640 270.752 639.72C272.332 639.29 273.832 638.85 275.242 638.41C275.512 638.32 276.522 638.26 278.272 638.22C280.562 638.16 282.622 637.84 284.452 637.25C284.872 637.12 285.332 637.16 285.712 637.37C286.472 637.8 287.192 637.98 287.862 637.9C288.262 637.85 288.662 638.02 288.902 638.35C289.422 639.05 289.502 640.14 290.312 641.06C291.372 642.27 292.762 643.17 294.482 643.75C294.752 643.84 295.042 643.89 295.332 643.89H320.932C321.132 643.89 321.332 643.91 321.522 643.95L347.652 649.44C347.752 649.46 347.842 649.5 347.932 649.56C349.052 650.31 350.812 649.41 351.942 650.29C352.222 650.51 352.562 650.59 352.972 650.53C353.262 650.49 353.612 650.52 354.032 650.61C356.462 651.12 358.082 651.48 358.892 651.69C360.182 652.02 361.932 652.36 364.132 652.69C365.402 652.88 366.562 653.13 367.632 653.43C369.302 653.9 370.472 654.14 371.122 654.15C371.632 654.16 374.382 654.64 379.372 655.6C382.342 656.17 385.702 656.11 389.452 655.42C389.802 655.35 390.162 655.32 390.512 655.32H398.742C399.022 655.32 399.362 655.37 399.742 655.48C400.092 655.58 400.842 655.56 401.992 655.41C404.862 655.05 407.612 655.35 410.232 656.32C410.902 656.57 412.222 656.63 414.212 656.51C414.652 656.48 415.082 656.58 415.462 656.8C416.052 657.13 416.852 657.23 417.872 657.08C418.182 657.04 418.482 657.1 418.752 657.25L419.442 657.65C419.602 657.74 419.792 657.78 419.982 657.75C421.412 657.55 422.662 657.69 423.722 658.18C424.052 658.33 424.412 658.39 424.762 658.35C426.692 658.17 428.212 658.33 429.332 658.84C429.442 658.89 429.552 658.92 429.672 658.92H443.912C444.132 658.92 444.342 658.97 444.532 659.06C445.142 659.34 445.542 659.48 445.752 659.48C466.862 659.57 482.532 659.59 492.782 659.54C493.022 659.54 493.262 659.61 493.472 659.73L493.812 659.93C494.012 660.05 494.242 660.11 494.482 660.11C499.512 660.18 505.012 660.12 510.972 659.95C512.482 659.91 513.492 659.77 513.992 659.53C514.492 659.3 514.762 659.17 514.812 659.15C515.092 658.99 515.412 658.91 515.732 658.91L528.472 658.92C528.592 658.92 528.702 658.88 528.802 658.81C529.482 658.26 530.552 658.11 532.012 658.37C532.432 658.44 532.862 658.32 533.182 658.05C533.512 657.77 533.962 657.66 534.532 657.71C535.082 657.76 535.612 657.57 536.002 657.19C536.722 656.48 537.172 655.95 537.352 655.6C538.082 654.04 539.642 653.03 541.362 653.01L547.922 652.9C548.062 652.9 548.192 652.92 548.322 652.97C549.832 653.55 551.552 653.95 553.472 654.17C553.822 654.21 554.172 654.3 554.502 654.43C557.172 655.46 559.632 656.17 561.892 656.54C563.012 656.73 563.852 657.48 565.242 657.78C566.552 658.06 571.092 659.27 578.882 661.42C581.402 662.11 583.042 662.55 583.792 662.72C585.462 663.1 587.122 663.65 588.752 664.38C588.962 664.47 589.242 664.44 589.592 664.31C589.902 664.19 590.252 664.22 590.532 664.4C591.052 664.73 591.822 665.08 592.852 665.45C593.982 665.86 594.802 666.12 595.302 666.22C598.982 666.97 602.132 667.84 604.742 668.84C606.082 669.35 606.882 668.88 608.052 669.52C609.302 670.21 610.922 670.69 612.912 670.95C613.132 670.98 613.342 671.02 613.552 671.09C619.102 672.8 622.662 673.9 624.232 674.38C624.902 674.58 625.502 674.63 626.022 674.53C626.182 674.5 626.342 674.52 626.482 674.57C629.892 675.8 632.562 676.61 634.472 676.99C636.332 677.36 636.902 678.39 639.082 678.16C639.242 678.14 639.412 678.16 639.562 678.21L646.832 680.55C647.032 680.62 647.242 680.64 647.442 680.61C647.752 680.56 647.942 680.55 648.002 680.58C652.762 682.31 657.632 683.75 662.602 684.9C662.692 684.92 662.982 685.03 663.342 685.19C663.532 685.27 663.662 685.31 663.732 685.32C667.382 685.71 671.002 685.01 674.582 683.24C674.882 683.1 675.202 683.02 675.532 683.03C676.802 683.04 677.692 682.92 678.202 682.66C680.122 681.67 682.452 680.96 685.192 680.53C685.432 680.5 685.662 680.44 685.892 680.35C689.082 679.22 691.462 678.68 693.032 678.71C693.432 678.72 693.822 678.58 694.142 678.33C694.592 677.96 695.882 677.51 698.002 676.97C701.452 676.09 704.962 675.14 708.552 674.12C709.402 673.88 709.842 673.75 709.872 673.74C711.342 673.31 714.322 672.41 718.792 671.04C719.282 670.89 719.672 671 720.082 670.89C725.062 669.56 730.862 667.95 737.482 666.04C738.212 665.83 738.862 665.57 739.412 665.26C740.392 664.73 741.402 665.02 742.652 664.58C744.772 663.84 747.472 663.05 750.762 662.21C754.272 661.3 756.342 660.7 756.972 660.4C758.242 659.78 759.372 660.56 760.612 659.5C760.852 659.3 761.132 659.16 761.422 659.1C767.162 657.89 771.732 656.64 775.132 655.34C776.682 654.75 777.672 654.53 778.102 654.7C778.342 654.8 778.612 654.76 778.812 654.59C779.382 654.11 780.152 654.14 781.102 654.68C781.372 654.83 781.552 655.1 781.602 655.4C782.152 658.63 783.692 660.88 786.232 662.16C788.902 663.51 792.312 663.22 795.762 663.02C796.332 662.99 797.122 662.79 798.112 662.44C800.812 661.48 803.012 660.39 804.712 659.17C805.132 658.88 805.622 658.7 806.142 658.67L815.742 658.15C815.972 658.14 816.192 658.09 816.402 658.02L820.892 656.55C820.922 656.54 820.952 656.53 820.992 656.53H827.512C827.852 656.53 828.192 656.62 828.482 656.79L828.792 656.97C828.962 657.07 829.162 657.12 829.362 657.12H835.992C836.312 657.12 836.632 657.21 836.902 657.39C837.292 657.64 837.572 657.76 837.752 657.75C839.522 657.7 841.922 657.69 844.972 657.7C845.302 657.7 845.622 657.81 845.872 658.01C845.952 658.06 846.032 658.13 846.122 658.2C846.222 658.28 846.332 658.32 846.452 658.32H858.072C858.402 658.32 858.722 658.41 859.002 658.57L859.372 658.79C859.512 658.88 859.682 658.92 859.852 658.92H871.232C871.602 658.92 871.962 659.01 872.292 659.19C872.442 659.27 872.552 659.32 872.602 659.35C872.852 659.47 873.122 659.54 873.402 659.54H878.882C879.032 659.54 879.182 659.58 879.322 659.66C880.642 660.42 884.002 660.13 888.422 660.12C889.262 660.11 890.102 660.17 890.932 660.3C894.722 660.87 897.502 660.98 899.292 660.61C902.862 659.89 906.232 659.89 909.382 660.62C909.642 660.68 909.902 660.71 910.172 660.71H917.392C917.582 660.71 917.762 660.78 917.892 660.91C918.342 661.3 919.052 661.46 920.002 661.39C923.062 661.16 925.532 661.31 927.422 661.84C927.802 661.95 928.212 661.98 928.612 661.93C928.782 661.92 932.162 661.91 938.752 661.92C939.002 661.92 939.442 662.08 940.072 662.39C940.292 662.5 940.532 662.55 940.772 662.55H946.562C946.902 662.55 947.232 662.64 947.522 662.81L947.762 662.95C947.962 663.07 948.192 663.13 948.432 663.13L957.702 663.12C958.112 663.12 958.522 663.21 958.892 663.39C958.942 663.42 959.042 663.47 959.182 663.55C959.402 663.69 959.662 663.76 959.932 663.75L965.002 663.7C965.382 663.7 965.752 663.8 966.072 663.98C966.092 663.99 966.172 664.04 966.322 664.13C966.342 664.14 966.362 664.15 966.392 664.15L987.802 664.99C987.882 664.99 987.972 665.01 988.042 665.06C989.462 665.84 991.812 665.54 995.842 665.55C996.222 665.55 996.582 665.67 996.882 665.88C996.942 665.92 997.012 665.97 997.082 666.04C997.142 666.1 997.232 666.13 997.332 666.13H1004.93C1005.24 666.13 1005.55 666.18 1005.85 666.27C1008.82 667.22 1013.1 666.72 1016.25 666.73C1016.61 666.73 1016.96 666.83 1017.26 667.02C1017.33 667.06 1017.4 667.11 1017.47 667.16C1017.63 667.28 1017.82 667.34 1018.02 667.34H1030.65C1030.77 667.34 1030.88 667.36 1030.99 667.41C1033.44 668.47 1036.21 667.35 1038.31 668.25C1039.08 668.58 1041.31 668.66 1045.01 668.51C1046.13 668.46 1047.93 668.62 1050.41 668.99C1052.7 669.33 1054.85 669.31 1056.85 668.94C1058.83 668.57 1060.14 668.43 1060.79 668.53C1061.82 668.69 1062.92 668.55 1064.09 668.1C1064.78 667.84 1065.52 667.78 1066.23 667.94L1080.1 670.96C1080.89 671.13 1081.71 670.98 1082.38 670.54C1082.69 670.34 1083.11 670.28 1083.64 670.37C1084.27 670.48 1084.91 670.34 1085.44 669.98C1088 668.23 1090.91 666.93 1094.16 666.06C1095 665.84 1096.39 664.79 1098.34 662.91C1098.59 662.67 1098.92 662.54 1099.26 662.54H1101.72C1101.94 662.54 1102.16 662.48 1102.35 662.36C1102.99 661.95 1104.03 661.8 1105.46 661.9C1105.79 661.93 1106.13 661.89 1106.45 661.79C1108.9 661.03 1111.13 660.67 1113.14 660.7C1113.71 660.71 1114.47 660.55 1115.42 660.2C1115.81 660.07 1116.59 660.05 1117.76 660.14C1118.12 660.17 1118.48 660.08 1118.78 659.88C1120.01 659.05 1120.93 660.06 1121.89 659.17C1122.63 658.47 1125.09 659.29 1126.32 658.52C1126.63 658.33 1127 658.24 1127.36 658.27C1130.19 658.55 1132.91 658.21 1135.52 657.24C1135.84 657.12 1136.19 657.08 1136.53 657.11C1137.85 657.24 1138.85 657.1 1139.53 656.69C1139.69 656.59 1139.88 656.54 1140.07 656.54H1142.34C1142.41 656.54 1142.49 656.53 1142.56 656.51C1145.05 655.78 1147.28 655.38 1149.25 655.3C1150.06 655.26 1150.28 654.7 1151.25 654.68C1154.42 654.63 1157.26 653.82 1159.79 652.24C1160.84 651.58 1161.97 652 1162.73 650.78C1163.01 650.33 1163.42 650.08 1163.96 650.01C1164.28 649.98 1164.75 649.77 1165.37 649.39C1168.92 647.23 1173.26 645.04 1178.39 642.83C1178.61 642.74 1178.85 642.69 1179.09 642.69H1225.69C1226 642.69 1226.3 642.81 1226.52 643.03L1228.86 645.37C1229.19 645.7 1229.67 645.83 1230.13 645.72C1231.63 645.35 1231.64 646.33 1232.94 646.32C1235.05 646.3 1237.42 646.3 1240.05 646.31C1240.32 646.31 1240.58 646.23 1240.8 646.07C1240.88 646.01 1240.95 645.95 1241.01 645.9C1241.07 645.85 1241.14 645.83 1241.21 645.82C1243.86 645.53 1245.86 645.56 1247.19 645.93C1249.54 646.57 1251.44 646.03 1253.61 646.58C1254.79 646.89 1255.49 647.23 1255.72 647.62C1255.89 647.92 1256.2 648.11 1256.54 648.11H1262.36C1262.45 648.11 1262.53 648.09 1262.62 648.05C1265.55 646.73 1269.02 646.54 1273.01 647.47C1274.15 647.74 1275.07 647.92 1275.76 648.01C1276.13 648.06 1278.74 648.09 1283.58 648.1C1283.9 648.1 1284.21 648.17 1284.49 648.31C1286.07 649.08 1287.79 648.39 1289.5 648.96C1290.83 649.39 1292.92 649.49 1295.78 649.25C1296.77 649.16 1297.61 649.33 1298.29 649.76C1298.58 649.95 1298.93 650.03 1299.27 649.98C1301.61 649.69 1303.42 649.85 1304.69 650.47C1305.02 650.64 1305.41 650.65 1305.75 650.52C1305.76 650.51 1307.86 650.51 1312.04 650.51C1312.4 650.51 1312.77 650.56 1313.12 650.67C1314.69 651.15 1316.55 651.28 1318.68 651.06C1319.05 651.02 1319.42 651.08 1319.75 651.23C1321.57 652.06 1324.21 651.09 1325.84 652.11C1326.06 652.25 1326.32 652.32 1326.57 652.32H1334.98C1335.26 652.32 1335.53 652.4 1335.76 652.55C1337.21 653.52 1339.39 652.44 1341.09 653.38C1341.27 653.48 1341.47 653.53 1341.67 653.53H1347.05C1347.44 653.53 1347.83 653.59 1348.21 653.71C1349.75 654.19 1351.42 654.31 1353.22 654.07C1353.69 654 1354.17 654.07 1354.61 654.25C1355.81 654.74 1357.86 654.89 1360.76 654.68C1361.32 654.63 1361.88 654.69 1362.42 654.86C1364.61 655.52 1366.99 655.57 1369.56 655C1371.1 654.67 1372.82 654.56 1374.73 654.68C1375.87 654.76 1376.83 653.85 1376.82 652.71L1376.8 648.15C1376.8 647.88 1376.91 647.61 1377.11 647.42C1377.12 647.41 1377.17 647.33 1377.27 647.17C1377.35 647.04 1377.4 646.89 1377.39 646.74C1377.32 639.72 1377.33 624.06 1377.42 599.75C1377.42 599.51 1377.52 599.15 1377.72 598.68C1378.25 597.43 1377.78 596.17 1378.37 594.82C1378.51 594.5 1378.58 594.15 1378.58 593.79V557.21C1378.58 556.93 1378.51 556.65 1378.38 556.4C1377.54 554.78 1378.51 553.12 1377.58 551.69C1377.29 551.24 1377.23 550.71 1377.42 550.1C1377.52 549.75 1377.42 549.37 1377.15 549.11C1376.94 548.91 1376.82 548.52 1376.78 547.95C1376.68 546.51 1375.94 544.82 1375.3 543.6C1375.07 543.17 1374.95 542.69 1374.95 542.2V538.94C1374.95 538.57 1374.85 538.22 1374.66 537.91C1373.85 536.62 1372.96 535.62 1371.97 534.91C1371.56 534.61 1371.27 534.18 1371.14 533.69L1369.1 525.8C1369.07 525.69 1369.06 525.59 1369.05 525.48C1368.9 523.41 1368.48 521.09 1367.79 518.53C1367.68 518.13 1367.69 516.47 1367.81 513.54C1367.82 513.36 1367.88 513.18 1367.98 513.04L1371.53 507.78C1371.8 507.38 1371.95 506.9 1371.95 506.42V492.35C1371.95 491.95 1371.88 491.56 1371.73 491.19C1370.65 488.32 1370.42 485.56 1371.04 482.89C1371.34 481.61 1371.45 480.67 1371.37 480.06C1371.22 478.93 1371.36 478.14 1371.78 477.71C1371.89 477.6 1371.95 477.45 1371.95 477.3V472.89C1371.95 472.61 1372.03 472.34 1372.18 472.1C1373.2 470.53 1372.02 468.6 1372.96 466.93C1373.13 466.63 1373.21 466.29 1373.18 465.95C1372.99 462.92 1373.34 459.95 1374.23 457.02C1374.26 456.91 1374.28 456.8 1374.29 456.69L1375.08 444.78C1375.08 444.75 1375.09 444.72 1375.11 444.69C1375.56 443.81 1375.71 442.82 1375.57 441.72C1375.51 441.29 1375.64 440.86 1375.92 440.54C1375.93 440.53 1375.97 440.47 1376.03 440.37C1376.13 440.21 1376.17 440.03 1376.16 439.85C1376.05 438.56 1376.19 437.5 1376.58 436.67C1376.71 436.39 1376.78 436.09 1376.78 435.78C1376.78 433.48 1376.65 432.19 1376.94 430.42C1377.25 428.47 1377.77 424.38 1378.5 418.14C1379.01 413.77 1379.24 409.67 1379.19 405.83C1379.16 403.49 1379.15 391.72 1379.17 370.51C1379.17 370.26 1379.05 369.97 1378.82 369.65C1378.66 369.44 1378.58 369.19 1378.59 368.94C1378.63 360.45 1378.58 355.38 1378.45 353.75C1378.45 353.72 1378.34 353.3 1378.13 352.47C1378.1 352.36 1378.08 352.24 1378.08 352.13L1377.1 330.21C1377.1 330.18 1377.1 330.16 1377.09 330.14C1376.92 329.86 1376.84 329.65 1376.83 329.5C1376.78 326.39 1376.77 321.91 1376.8 316.08C1376.8 315.72 1376.7 315.37 1376.51 315.07C1376.45 314.98 1376.4 314.91 1376.37 314.85C1376.23 314.65 1376.16 314.41 1376.16 314.16V306.84C1376.16 306.55 1376.07 306.27 1375.91 306.04C1375.89 306.01 1375.83 305.93 1375.73 305.79C1375.61 305.63 1375.55 305.43 1375.56 305.23C1375.58 302.87 1376.07 298.08 1375.14 296.1C1375.01 295.84 1374.95 295.56 1374.95 295.28V275.75C1374.95 275.57 1374.99 275.39 1375.07 275.23L1375.51 274.25C1375.56 274.16 1375.58 274.06 1375.58 273.96V252.51C1375.58 252.12 1375.66 251.74 1375.82 251.39C1375.86 251.3 1375.9 251.21 1375.94 251.12C1376.09 250.78 1376.16 250.41 1376.16 250.03V206.79C1376.16 206.6 1376.13 206.41 1376.08 206.22C1375.34 203.8 1374.97 201.52 1374.96 199.37C1374.96 199.03 1374.91 198.7 1374.82 198.37C1373.92 195.16 1373.3 191.47 1372.95 187.29C1372.88 186.46 1372.7 185.66 1372.43 184.9C1372.06 183.88 1371.91 183.04 1371.97 182.38C1372.03 181.74 1372 181.35 1371.87 181.22C1371.78 181.13 1371.66 180.96 1371.52 180.73C1371.35 180.43 1371.28 180.08 1371.33 179.74C1371.59 178.1 1370.76 177.23 1370.76 175.72C1370.75 167.41 1370.76 160.93 1370.77 156.26C1370.77 155.46 1370.25 154.89 1370.23 154.26C1370.11 151.18 1370.1 141.59 1370.19 125.5C1370.2 124.91 1370.41 124.42 1370.83 124.03C1373.37 121.7 1374.13 116.32 1373.76 114.22C1373.46 112.51 1373.28 111.21 1373.21 110.31C1373.13 109.24 1372.86 107.95 1372.39 106.43C1371.02 101.97 1370.12 99.4301 1369.69 98.8101C1369.42 98.4001 1368.91 97.1201 1368.18 94.9701C1367.24 92.1701 1368.19 89.3401 1367.28 86.4401C1367.17 86.1001 1367.12 85.7401 1367.13 85.3801C1367.16 81.8301 1367.44 78.5501 1366.77 77.4301C1366.63 77.2101 1366.56 76.9501 1366.56 76.6901V64.7901C1366.56 64.4801 1366.48 64.1701 1366.32 63.8901L1366.08 63.4801C1365.99 63.3201 1365.94 63.1301 1365.94 62.9401V54.8701C1365.94 54.5601 1365.9 54.2601 1365.82 53.9701C1365.05 51.1101 1362.95 50.3101 1359.52 51.5701C1359.28 51.6601 1359.03 51.7001 1358.77 51.7001H1351.14C1350.97 51.7001 1350.8 51.7401 1350.66 51.8301L1350.15 52.1301C1349.95 52.2501 1349.72 52.3101 1349.48 52.3101H1339.99C1339.66 52.3101 1339.34 52.3901 1339.04 52.5401C1338.88 52.6301 1338.77 52.6801 1338.72 52.7101C1338.48 52.8301 1338.2 52.9001 1337.92 52.9001H1328.8C1328.46 52.9001 1328.12 52.9701 1327.8 53.1001C1327.15 53.3601 1326.71 53.4901 1326.5 53.4901C1322.77 53.4801 1320.43 53.4901 1319.49 53.5101C1319.12 53.5201 1318.75 53.6301 1318.43 53.8301C1318.4 53.8401 1318.33 53.9001 1318.21 53.9901C1318.13 54.0601 1318.02 54.1001 1317.91 54.1001H1309.95C1309.56 54.1001 1309.19 54.2101 1308.86 54.4101C1308.81 54.4401 1308.73 54.4901 1308.64 54.5401C1308.48 54.6401 1308.29 54.6901 1308.1 54.6901H1293.74C1293.38 54.6901 1293.03 54.7901 1292.72 54.9901C1292.7 55.0001 1292.62 55.0601 1292.48 55.1601C1292.35 55.2601 1292.19 55.3101 1292.03 55.3101H1282.1C1281.79 55.3101 1281.49 55.3901 1281.23 55.5501L1280.96 55.7001C1280.72 55.8401 1280.46 55.9101 1280.19 55.9101H1271.57C1271.3 55.9101 1271.04 56.0101 1270.85 56.2001L1270.66 56.3901C1270.58 56.4701 1270.46 56.5201 1270.34 56.5201H1260.48C1260.19 56.5201 1259.9 56.6001 1259.64 56.7501C1259.49 56.8401 1259.4 56.8901 1259.35 56.9201C1259.15 57.0401 1258.91 57.1101 1258.67 57.1101H1249.88C1249.79 57.1101 1249.71 57.1201 1249.62 57.1501C1247.73 57.8001 1245.32 57.9401 1242.4 57.5601C1241.76 57.4801 1241.2 57.1001 1240.89 56.5301L1237.42 50.2901C1237.4 50.2501 1237.37 50.2101 1237.34 50.1801C1234.32 46.6501 1230.44 45.5201 1225.71 46.7801C1225.38 46.8701 1225.03 46.9001 1224.69 46.8801C1222.02 46.7501 1220 46.9201 1218.61 47.3801C1218.26 47.5001 1217.89 47.5501 1217.51 47.5201C1215.1 47.3401 1213.41 47.4001 1212.42 47.6901C1210.93 48.1301 1209.81 48.2701 1209.05 48.1201C1208.24 47.9501 1207.27 48.0801 1206.16 48.5001C1205.84 48.6201 1205.51 48.6801 1205.17 48.6801C1202.79 48.7001 1200.13 48.3101 1198.47 49.1401C1197.04 49.8501 1195.23 48.7201 1193.77 49.7201C1193.57 49.8501 1193.34 49.9201 1193.11 49.9201L1189.06 49.8701C1188.66 49.8601 1188.27 49.9701 1187.92 50.1801C1187.91 50.1901 1187.84 50.2401 1187.69 50.3301C1187.53 50.4301 1187.35 50.4901 1187.16 50.4901H1179.8C1179.59 50.4901 1179.39 50.5601 1179.22 50.6801C1177.79 51.6801 1175.54 50.7701 1173.71 51.5601C1173.4 51.7001 1173.06 51.7601 1172.72 51.7401C1170.35 51.5801 1168.78 51.6301 1168.01 51.8901C1165.7 52.6601 1164.48 51.9101 1162.31 52.7301C1162 52.8401 1161.67 52.9001 1161.35 52.9001H1155.38C1155.23 52.9001 1155.08 52.9701 1154.99 53.0901C1154.24 54.0001 1151.76 53.1901 1150.5 53.9101C1150.19 54.0901 1149.83 54.1601 1149.47 54.1301C1147.61 53.9601 1146.02 54.1101 1144.69 54.5801C1144.46 54.6601 1144.22 54.7001 1143.98 54.7001H1136.4C1136.19 54.7001 1135.98 54.7801 1135.83 54.9301C1135.48 55.2801 1135.04 55.4201 1134.49 55.3501C1132.76 55.1201 1131.43 55.2701 1130.48 55.7901C1130.34 55.8701 1130.19 55.9101 1130.04 55.9101H1124.84C1124.6 55.9101 1124.37 55.9501 1124.15 56.0401C1122.88 56.5701 1121.38 56.7101 1119.64 56.4801C1119.29 56.4301 1118.94 56.4901 1118.63 56.6501C1117.69 57.1401 1116.25 57.2801 1114.31 57.0501C1113.96 57.0001 1113.61 57.0601 1113.29 57.2201C1110.91 58.4101 1108.04 57.1701 1105.83 58.1701C1105.47 58.3301 1105.08 58.3901 1104.69 58.3601C1102.24 58.1501 1100.24 58.3201 1098.67 58.8701C1098.59 58.9001 1098.51 58.9101 1098.43 58.9101H1092.51C1092.16 58.9101 1091.81 58.9801 1091.48 59.1101C1090.33 59.5801 1089 59.7101 1087.5 59.5001C1087.18 59.4501 1086.85 59.5301 1086.58 59.7101C1086.09 60.0601 1085.39 60.2001 1084.5 60.1501C1081.91 60.0001 1080.07 60.0601 1079 60.3301C1076.79 60.9001 1071.96 60.2901 1070.9 60.9801C1069.55 61.8501 1067.5 60.8601 1065.69 61.7101C1065.4 61.8501 1065.09 61.9201 1064.77 61.9201H1049.96C1049.79 61.9201 1049.61 61.9001 1049.44 61.8501C1047.8 61.4101 1045.98 61.2401 1043.98 61.3301C1042.65 61.4001 1041.01 61.2601 1039.06 60.9101C1036.38 60.4301 1032.95 61.1301 1030.07 60.3101C1029.11 60.0401 1027.72 60.0001 1025.91 60.1701C1025.39 60.2201 1024.87 60.0901 1024.44 59.8101C1024.13 59.6001 1023.73 59.5001 1023.23 59.4901C1022.89 59.4801 1022.62 59.1901 1022.63 58.8501L1022.74 55.3301C1022.76 54.8101 1023.39 54.5601 1023.76 54.9301L1026.38 57.5401C1026.77 57.9301 1027.39 57.9401 1027.79 57.5801C1031.06 54.6101 1031.89 59.2701 1034.75 56.6701C1035.71 55.8001 1036.54 55.2201 1037.25 54.9301C1037.47 54.8401 1037.72 54.7901 1037.96 54.7901H1043.57C1043.97 54.7901 1044.34 54.9701 1044.59 55.2901L1045.91 56.9801C1046.05 57.1701 1046.26 57.3101 1046.5 57.3701C1047.8 57.6901 1049.45 57.0901 1050.44 57.5601C1050.85 57.7601 1051.23 57.9001 1051.59 57.9801C1052.17 58.1001 1052.76 58.1301 1053.34 58.0701C1055.55 57.8601 1057.78 57.6901 1060.01 57.5601C1060.85 57.5101 1061.31 56.8101 1061.4 55.4401C1061.43 55.0301 1061.78 54.7101 1062.19 54.7301C1063.51 54.8001 1064.54 54.7001 1065.27 54.4501C1067.23 53.7601 1067.81 54.1901 1069.76 54.8701C1070 54.9501 1070.22 55.0801 1070.4 55.2401C1073.21 57.7601 1076.2 56.1401 1078.36 53.9801C1078.6 53.7501 1078.89 53.5901 1079.22 53.5101C1079.55 53.4401 1080.06 53.2601 1080.73 52.9701C1081.72 52.5601 1083.31 52.1601 1085.51 51.7801C1087.1 51.5001 1088.81 51.9401 1090.49 51.4401C1092.69 50.7901 1095.27 51.6501 1097.36 50.7201C1099.12 49.9401 1101.24 50.9501 1103.04 50.0401C1103.33 49.8901 1103.67 49.8201 1104 49.8401C1105.69 49.9301 1108.51 49.9301 1112.46 49.8301C1113.09 49.8101 1114.14 49.3001 1114.96 49.3001C1119.11 49.3101 1121.95 49.3101 1123.5 49.3101C1123.71 49.3101 1123.99 49.1901 1124.36 48.9501C1124.63 48.7801 1124.94 48.6901 1125.26 48.6901H1136.22C1136.27 48.6901 1136.33 48.6801 1136.38 48.6601C1138.24 48.0901 1140.38 47.9101 1142.8 48.1401C1144.01 48.2501 1145.97 48.0901 1148.68 47.6501C1150.43 47.3601 1153.21 47.3401 1157.02 47.5901C1157.3 47.6101 1157.57 47.5101 1157.77 47.3101L1157.98 47.1001C1158.11 46.9701 1158.3 46.8901 1158.49 46.8901H1171.8C1172.09 46.8901 1172.38 46.8501 1172.67 46.7801C1174.78 46.2301 1177.14 46.0901 1179.76 46.3401C1180.8 46.4401 1181.59 46.2901 1182.12 45.8801C1182.29 45.7501 1182.5 45.6801 1182.72 45.6801H1193.52C1193.75 45.6801 1193.98 45.6301 1194.19 45.5401C1195.29 45.0501 1196.81 44.9101 1198.75 45.1201C1200.06 45.2601 1200.84 44.4601 1202.12 44.4601C1205.87 44.4501 1208.82 44.4701 1210.98 44.5101C1211.34 44.5201 1211.7 44.4101 1212.01 44.2101C1212.09 44.1601 1212.14 44.1201 1212.16 44.1101C1212.41 43.9501 1212.71 43.8701 1213.01 43.8701L1220.07 43.9001C1220.43 43.9001 1220.78 43.8001 1221.08 43.6101C1221.09 43.6001 1221.13 43.5701 1221.22 43.5001C1221.38 43.3601 1221.59 43.2901 1221.8 43.2901C1225.65 43.3001 1230.55 43.3001 1236.5 43.3001C1236.73 43.3001 1237.03 43.1801 1237.38 42.9501C1237.64 42.7701 1237.95 42.6701 1238.27 42.6701H1250.66C1250.95 42.6701 1251.24 42.6301 1251.52 42.5601C1253.5 42.0301 1255.83 41.8801 1258.5 42.1301C1259.45 42.2201 1260.32 42.0501 1261.1 41.6201C1261.28 41.5201 1261.49 41.4601 1261.7 41.4601H1272.45C1272.69 41.4601 1272.92 41.4001 1273.12 41.2801L1273.68 40.9601C1273.77 40.9101 1273.88 40.8801 1273.99 40.8801H1283.73C1284.11 40.8801 1284.49 40.7901 1284.82 40.6101C1284.89 40.5801 1284.96 40.5301 1285.05 40.4801C1285.28 40.3601 1285.53 40.2901 1285.79 40.2901H1292.73C1293.08 40.2901 1293.42 40.1901 1293.72 40.0101C1293.79 39.9601 1293.86 39.9101 1293.95 39.8601C1294.15 39.7401 1294.37 39.6701 1294.61 39.6701H1307.44C1307.6 39.6701 1307.77 39.6301 1307.91 39.5401L1308.47 39.2201C1308.56 39.1701 1308.66 39.1401 1308.76 39.1401H1328.01C1329.22 39.1401 1330.26 40.0301 1330.44 41.2301L1330.58 42.1301C1330.62 42.3901 1330.74 42.6301 1330.93 42.8301C1332.2 44.1401 1332.9 44.8501 1333.02 44.9501C1335.51 46.9901 1337.67 46.9301 1339.51 44.7801C1339.74 44.5101 1340.13 44.4301 1340.45 44.6001C1342.03 45.4401 1343.59 45.8001 1345.13 45.6701C1345.38 45.6501 1345.64 45.7101 1345.87 45.8401L1346.63 46.2801C1346.96 46.4701 1347.37 46.4401 1347.67 46.2101C1349.42 44.8401 1351.08 44.6701 1352.67 45.6801C1353 45.8901 1353.43 45.8401 1353.7 45.5701L1355.02 44.2401C1355.36 43.9001 1355.85 43.7501 1356.32 43.8401C1357.45 44.0501 1358.35 43.7401 1359.04 42.9301C1359.22 42.7101 1359.56 42.7201 1359.73 42.9501C1360.42 43.8501 1361.62 44.3101 1362.65 43.3401C1364.34 41.7501 1366.19 41.6101 1368.2 42.9201C1368.57 43.1601 1368.99 43.2901 1369.42 43.2901C1371.9 43.3001 1373.42 42.7301 1374.73 44.5901C1374.92 44.8601 1375.21 45.0401 1375.54 45.0801C1376.88 45.2601 1377.82 45.0901 1378.37 44.5701C1378.59 44.3601 1378.94 44.3801 1379.14 44.6101C1380.48 46.2001 1380.76 47.9101 1379.99 49.7501C1378.77 52.6301 1377.87 56.3201 1377.3 60.8201C1377.09 62.4301 1376.36 64.2801 1375.1 66.3701C1374.49 67.3901 1374.25 68.5601 1374.39 69.8801C1374.42 70.1601 1374.36 70.4501 1374.2 70.7001C1373.47 71.8201 1373.48 73.0001 1374.21 74.2501C1374.35 74.4801 1374.4 74.7501 1374.37 75.0201C1374.22 76.3401 1374.64 78.0401 1375.63 80.1301C1376.56 82.1101 1377.37 84.9001 1378.04 88.4901C1378.09 88.7701 1378.22 89.0301 1378.4 89.2501C1378.73 89.6601 1378.76 90.1601 1378.49 90.7501C1378.33 91.0801 1378.42 91.4901 1378.71 91.7201C1379.2 92.1201 1379.32 92.8101 1379.08 93.7901C1379.03 93.9501 1379.04 94.1301 1379.1 94.2901L1383.33 106.48C1383.35 106.54 1383.36 106.6 1383.37 106.67C1383.41 107.28 1383.4 108.75 1383.35 111.09C1383.3 113.19 1384.49 114.89 1383.55 117.2C1383.39 117.6 1383.32 118.03 1383.35 118.46C1383.5 120.52 1383.48 121.97 1383.29 122.81C1382.86 124.71 1382.69 126.19 1382.78 127.26C1382.89 128.52 1382.75 129.83 1382.36 131.18C1382.25 131.58 1382.19 131.99 1382.19 132.41C1382.17 137.2 1382.16 142.16 1382.16 147.31C1382.16 149.22 1382.96 150.71 1382.83 152.69C1382.83 152.71 1382.83 152.73 1382.84 152.75L1384.61 162.01C1384.73 162.64 1384.71 163.28 1384.55 163.89C1383.38 168.28 1382.6 171.31 1382.2 173C1381.9 174.26 1382.55 175.53 1381.83 176.9C1381.67 177.21 1381.58 177.55 1381.58 177.89V196.31C1381.58 196.6 1381.67 196.88 1381.83 197.12C1382.81 198.62 1381.61 200.66 1382.63 202.32C1382.74 202.5 1382.8 202.7 1382.8 202.91V219.53C1382.8 219.89 1382.88 220.23 1383.04 220.55C1383.12 220.7 1383.16 220.77 1383.16 220.78C1383.3 221.07 1383.38 221.39 1383.38 221.72V243.01C1383.38 243.34 1383.41 243.66 1383.48 243.97C1383.81 245.43 1384.1 246.74 1384.36 247.91C1384.77 249.71 1384.17 252.15 1384.99 253.34C1385.32 253.81 1385.15 255 1385.45 256.04C1386.27 258.91 1386.81 261.62 1387.08 264.17C1387.19 265.28 1387.58 266.72 1388.23 268.51C1388.93 270.4 1388.67 271.99 1389.13 273.83C1389.82 276.63 1390.24 278.81 1390.39 280.37C1390.58 282.46 1391.01 284.63 1391.67 286.88C1391.76 287.19 1392.51 290.16 1393.91 295.81C1394.1 296.6 1394.2 297.41 1394.2 298.22C1394.19 301.41 1394.19 305.84 1394.19 311.5C1394.19 311.69 1394.08 311.9 1393.86 312.12C1393.56 312.41 1393.38 312.8 1393.37 313.21L1392.54 337.72C1392.53 338.04 1392.58 338.35 1392.69 338.65C1393.34 340.49 1392.37 344.3 1394.41 346.17C1397.41 348.92 1396.08 351.19 1397.08 354.62C1397.16 354.91 1397.2 355.2 1397.2 355.49V370.75C1397.2 371.07 1397.14 371.4 1397.03 371.71C1396.16 374.14 1395.26 377.71 1394.34 382.44C1394.19 383.25 1394.14 383.96 1394.19 384.58C1394.26 385.3 1394.12 385.86 1393.78 386.25C1393.7 386.34 1393.65 386.46 1393.64 386.59L1392.29 409.44C1392.28 409.53 1392.26 409.62 1392.22 409.71L1391.89 410.38C1391.84 410.48 1391.81 410.59 1391.81 410.7V418.36C1391.81 418.42 1391.8 418.48 1391.79 418.54C1391.3 420.19 1391.09 421.61 1391.17 422.8C1391.28 424.53 1391.18 425.82 1390.87 426.65C1390.65 427.24 1390.58 429.16 1390.66 432.4C1390.69 434.01 1390.56 435.91 1390.26 438.11C1389.94 440.38 1389.87 443.51 1390.04 447.5C1390.06 447.93 1389.98 448.36 1389.8 448.75C1388.78 450.98 1390.09 453.71 1388.92 455.49C1388.73 455.78 1388.67 456.13 1388.77 456.45C1388.82 456.61 1388.83 462.13 1388.8 473.01C1388.8 473.23 1388.92 473.51 1389.15 473.84C1389.35 474.12 1389.44 474.47 1389.38 474.82C1389.12 476.47 1390.11 477.96 1390.01 479.81C1389.87 482.26 1390.05 484.18 1390.55 485.59C1390.58 485.68 1390.6 485.78 1390.6 485.88V491.48C1390.6 491.77 1390.68 492.05 1390.82 492.3C1391.35 493.21 1391.36 494.08 1390.85 494.89C1390.69 495.14 1390.6 495.44 1390.6 495.75V514.1C1390.6 514.34 1390.55 514.58 1390.44 514.8C1389.8 516.12 1390.11 517.42 1389.67 519.02C1389.11 521.01 1389.18 523.14 1389.88 525.39C1389.95 525.64 1389.99 525.9 1389.99 526.16V531.19C1389.99 531.48 1390.07 531.76 1390.21 532L1390.47 532.46C1390.56 532.6 1390.6 532.77 1390.6 532.93V543.57C1390.6 543.89 1390.65 544.22 1390.74 544.53C1391.23 546.24 1391.37 548.33 1391.14 550.78C1390.99 552.33 1391.84 553.37 1391.83 554.78C1391.81 557.45 1391.81 560.98 1391.82 565.37C1391.82 565.72 1391.87 565.97 1391.97 566.1C1392.06 566.23 1392.15 566.36 1392.22 566.49C1392.34 566.7 1392.4 566.93 1392.4 567.17V576.19C1392.4 576.32 1392.43 576.45 1392.48 576.58C1393.49 578.81 1393.01 584.76 1393 591.33C1393 591.71 1393.07 592.1 1393.2 592.46C1393.96 594.58 1393 597.27 1394.02 598.96C1394.13 599.14 1394.19 599.35 1394.19 599.57V612.7C1394.19 613.19 1394.27 613.68 1394.42 614.14C1395.33 616.94 1394.82 621.57 1394.82 624.58C1394.82 625.07 1394.88 625.56 1395 626.04C1395.48 627.91 1395.59 630.08 1395.34 632.54C1395.32 632.73 1395.34 632.92 1395.4 633.1L1398.87 643.87C1398.91 643.99 1398.93 644.11 1398.94 644.24C1399.03 647.18 1399.4 649.37 1400.04 650.81C1400.71 652.32 1402.1 653.57 1404.2 654.58C1406.97 655.92 1408.9 657.5 1408.64 660.53C1408.55 661.48 1408.69 662.25 1409.04 662.84C1409.57 663.72 1408.85 664.95 1409.51 666.03C1410.28 667.28 1409.38 669.18 1410.26 670.66C1410.53 671.11 1410.57 671.78 1410.39 672.69C1410.33 673.02 1410.39 673.37 1410.57 673.66C1411.07 674.47 1411.23 675.22 1411.06 675.91C1410.74 677.12 1410.33 678.31 1409.84 679.47C1409.67 679.88 1408.94 680.61 1407.67 681.66C1407.43 681.87 1407.08 681.92 1406.79 681.79C1405.38 681.18 1404.18 680.23 1403.19 678.92C1403.06 678.75 1402.89 678.61 1402.7 678.51L1400.01 677.16C1399.72 677.02 1399.41 676.95 1399.09 676.95H1389.25C1389 676.95 1388.75 676.89 1388.53 676.77C1387.64 676.3 1386.23 676.17 1384.3 676.38C1384.22 676.39 1384.14 676.39 1384.07 676.38L1375.98 675.11C1375.84 675.09 1375.72 675.03 1375.62 674.93C1375.47 674.78 1375.36 674.7 1375.29 674.69C1373.78 674.44 1370.61 673.97 1365.77 673.26C1365.6 673.23 1365.45 673.16 1365.33 673.04C1365.01 672.74 1364.47 672.65 1363.71 672.76C1362.14 672.98 1360.96 671.92 1359.05 672.18C1358.71 672.23 1358.37 672.11 1358.13 671.86C1357.79 671.51 1357.19 671.42 1356.34 671.61C1356.02 671.68 1355.68 671.61 1355.41 671.42C1355.2 671.27 1354.89 671.09 1354.5 670.9C1353.93 670.61 1352.97 670.44 1351.62 670.39C1350.45 670.34 1349.72 670.33 1349.44 670.36C1349.12 670.39 1348.8 670.31 1348.54 670.12C1347.93 669.67 1347.15 669.56 1346.2 669.8C1345.87 669.89 1345.52 669.81 1345.26 669.58C1344.86 669.24 1344.23 669.1 1343.36 669.15C1341.76 669.24 1341.63 668.19 1340.17 668.55C1339.87 668.62 1339.43 668.6 1338.85 668.49C1337.18 668.16 1334.95 667.8 1332.18 667.43C1331.85 667.38 1331.53 667.28 1331.23 667.11C1330.46 666.66 1329.52 666.56 1328.43 666.8C1328.11 666.88 1327.77 666.83 1327.47 666.67C1326.41 666.11 1325 665.95 1323.24 666.2C1322.88 666.25 1322.51 666.14 1322.23 665.9C1321.46 665.25 1319.61 665.65 1318.31 665.23C1316.68 664.7 1314.91 664.34 1312.99 664.15C1312.64 664.12 1312.3 664.05 1311.96 663.96C1309.75 663.36 1307.88 663.07 1306.37 663.1C1306.15 663.1 1305.93 663.01 1305.78 662.84C1305.59 662.64 1305.42 662.54 1305.25 662.54C1286.48 662.55 1276.99 662.55 1276.76 662.56C1276.48 662.55 1276.2 662.52 1275.93 662.45L1259.21 658.28C1258.85 658.18 1258.47 658.25 1258.16 658.45C1257.47 658.9 1256.48 659.05 1255.17 658.9C1255.08 658.89 1255 658.9 1254.92 658.93L1251.57 660.09C1251.24 660.2 1250.98 660.45 1250.84 660.76C1250.12 662.39 1248.35 664.61 1246 663.54C1244.79 662.99 1243.35 663.42 1242.5 662.78C1242.2 662.56 1241.84 662.46 1241.47 662.49C1239.18 662.68 1237.57 662.64 1236.66 662.37C1235.07 661.9 1233.8 661.74 1232.83 661.89C1231.48 662.08 1230.39 661.95 1229.55 661.49C1229.45 661.44 1229.34 661.4 1229.23 661.39L1218.68 660.1C1218.61 660.09 1218.55 660.09 1218.48 660.1C1215.71 660.22 1214 660.13 1213.33 659.84C1211.69 659.12 1209.77 660 1208.08 659.09C1207.72 658.9 1207.3 658.83 1206.89 658.89C1205.7 659.06 1204.73 658.94 1203.99 658.51C1203.77 658.38 1203.52 658.31 1203.27 658.31L1196.84 658.33C1196.56 658.33 1196.29 658.29 1196.02 658.2C1196 658.19 1195.85 658.1 1195.56 657.93C1195.32 657.78 1195.04 657.7 1194.75 657.7H1184.5C1184.21 657.7 1183.93 657.82 1183.73 658.02L1183.54 658.21C1183.38 658.37 1183.15 658.45 1182.92 658.41C1180.85 658.06 1179.17 658.47 1177.88 659.66C1177.63 659.89 1177.32 660.03 1176.99 660.08C1176.98 660.08 1176.89 660.09 1176.72 660.11C1176.49 660.13 1176.27 660.21 1176.07 660.34C1174.38 661.48 1172.66 662.45 1170.93 663.25C1170.42 663.49 1170.06 663.76 1169.84 664.06C1169.65 664.31 1169.36 664.42 1168.95 664.38C1168.67 664.35 1168.35 664.44 1168 664.65C1166.63 665.44 1165.51 666.03 1164.64 666.41C1164.16 666.61 1163.64 666.72 1163.12 666.72H1147.85C1147.59 666.72 1147.34 666.79 1147.12 666.92L1143.87 668.8C1143.67 668.91 1143.52 669.09 1143.44 669.31C1143.3 669.7 1143.17 669.94 1143.05 670.03C1141 671.62 1138.73 672.33 1136.23 672.15C1135.48 672.09 1135.29 672.28 1134.75 672.62C1134.53 672.77 1134.33 672.83 1134.16 672.81C1132.39 672.6 1130.67 672.9 1129.01 673.71C1128.6 673.9 1128.16 673.98 1127.71 673.95C1125.7 673.8 1123.5 673.98 1121.1 674.48C1119.86 674.74 1118.25 675 1116.27 675.25C1114.97 675.42 1113.36 675.63 1111.43 675.88C1111.26 675.91 1111.13 675.95 1111.05 676.02C1110.95 676.11 1110.77 676.27 1110.63 676.28C1107.96 676.46 1105.27 676.82 1102.57 677.36C1099.78 677.91 1097.96 678.19 1097.12 678.2C1097.1 678.2 1096.58 678.18 1095.57 678.14C1095.07 678.12 1094.58 678.19 1094.11 678.34C1092.83 678.75 1091.52 678.88 1090.19 678.73C1089.94 678.7 1089.7 678.79 1089.53 678.97C1089.51 678.99 1089.44 679.06 1089.32 679.17C1089.26 679.23 1089.18 679.27 1089.1 679.28C1085.18 679.77 1082.53 680.17 1081.14 680.5C1080.47 680.65 1079.88 680.68 1079.39 680.57C1078.86 680.45 1078.39 680.56 1077.98 680.9C1077.83 681.02 1077.65 681.1 1077.46 681.12C1075.89 681.3 1074.19 681.97 1072.36 681.85C1071.53 681.79 1070.77 681.89 1070.08 682.15C1069.42 682.4 1068.31 682.57 1066.76 682.67C1065.16 682.78 1062.75 683.13 1059.54 683.72C1057.67 684.07 1056.46 684.22 1055.91 684.18C1055.16 684.13 1053.97 684.3 1052.34 684.67C1050.78 685.02 1048.87 684.89 1046.6 684.28C1046.32 684.21 1046.03 684.17 1045.74 684.17C1043.65 684.18 1041.87 684.16 1040.39 684.12C1039.14 684.09 1038.29 683.94 1037.86 683.68C1037.58 683.51 1037.29 683.35 1036.99 683.19C1036.69 683.04 1036.35 682.96 1036.01 682.96H1031.13C1030.95 682.96 1030.77 682.94 1030.6 682.89C1024.96 681.36 1021.98 680.75 1018.99 679.02C1018.71 678.86 1018.39 678.77 1018.07 678.77H1013.23C1012.89 678.77 1012.56 678.87 1012.29 679.06L1008.57 681.57C1008.44 681.66 1008.29 681.72 1008.14 681.77C1005.3 682.68 1002.44 682.69 999.562 681.82C999.472 681.79 999.372 681.78 999.272 681.78H994.282C994.012 681.78 993.752 681.74 993.492 681.67C991.642 681.14 989.652 680.98 987.512 681.2C986.862 681.27 986.322 681.14 985.902 680.81C985.702 680.65 985.462 680.57 985.212 680.57H975.862C975.792 680.57 975.732 680.56 975.662 680.54C973.932 679.94 971.462 679.76 968.252 680.01C967.402 680.08 966.612 679.92 965.862 679.55C965.582 679.41 965.282 679.34 964.972 679.35L957.872 679.38C957.592 679.38 957.312 679.27 957.092 679.08C957.032 679.03 956.962 678.95 956.892 678.86C956.852 678.8 956.792 678.77 956.732 678.77H946.812C946.602 678.77 946.392 678.73 946.202 678.64C944.212 677.71 939.242 678.13 934.572 678.18C934.212 678.18 933.852 678.06 933.572 677.83C933.542 677.8 933.492 677.74 933.402 677.65C933.352 677.6 933.282 677.57 933.212 677.57H926.662C926.392 677.57 926.132 677.64 925.912 677.78C925.742 677.89 925.642 677.95 925.632 677.97C925.422 678.21 925.102 678.31 924.802 678.21C924.212 678.02 923.642 678.07 923.092 678.37C921.602 679.18 920.162 678.48 918.782 678.99C916.922 679.67 915.172 679.99 913.532 679.95C912.942 679.93 912.282 680.09 911.552 680.42C910.312 680.98 908.442 680.09 907.332 680.9C907.082 681.08 906.782 681.17 906.472 681.15C904.262 681.03 901.892 681.31 899.362 681.99C898.072 682.34 897.052 682.47 896.312 682.39C895.132 682.26 894.282 682.39 893.752 682.77C893.642 682.85 893.512 682.9 893.382 682.92L881.542 684.21C881.462 684.22 881.382 684.25 881.312 684.29C880.502 684.72 879.092 684.9 877.102 684.81C876.712 684.79 876.332 684.88 875.992 685.07C875.382 685.42 874.482 685.5 873.292 685.33C872.942 685.28 872.592 685.34 872.282 685.49C870.362 686.42 868.172 685.67 865.732 686.48C865.402 686.59 865.052 686.63 864.712 686.6C862.882 686.44 861.482 686.61 860.492 687.11C860.212 687.25 859.872 687.26 859.592 687.12C859.512 687.08 857.932 687.34 854.842 687.91C853.672 688.12 852.112 688.32 850.182 688.51C846.472 688.86 844.432 689.12 844.072 689.28C842.602 689.93 841.402 689.15 840.382 689.97C839.832 690.42 837.762 690.02 836.862 690.32C835.462 690.78 833.852 690.94 832.032 690.79C831.692 690.76 831.342 690.86 831.062 691.06C830.682 691.33 829.952 691.44 828.872 691.37C828.452 691.34 827.712 691.41 826.642 691.58C816.212 693.16 806.292 694.47 796.902 695.5C795.592 695.65 794.012 695.9 792.162 696.25C789.822 696.7 788.222 696.9 787.362 696.83C787.072 696.8 786.792 696.87 786.552 697.03C785.932 697.42 784.882 697.54 783.392 697.37C782.942 697.32 782.492 697.38 782.082 697.56C781.142 697.95 780.132 698.08 779.042 697.96C778.582 697.92 778.122 698.05 777.762 698.33C777.732 698.35 777.712 698.37 777.692 698.39C777.542 698.53 777.352 698.61 777.152 698.61C770.722 698.44 765.232 700.47 760.682 704.7C759.292 705.99 757.562 706.75 755.482 706.98C753.192 707.23 750.762 707.77 748.192 708.61C747.752 708.76 747.282 708.83 746.802 708.83H744.882C744.762 708.83 744.652 708.88 744.572 708.97C744.162 709.4 743.092 709.55 741.382 709.4C741.012 709.37 740.632 709.44 740.302 709.6C738.872 710.31 737.592 710.65 736.442 710.61C735.192 710.56 734.022 710.73 732.932 711.11C732.742 711.18 731.682 711.26 729.742 711.35C729.472 711.36 729.212 711.4 728.942 711.45C719.722 713.3 713.242 714.42 709.502 714.83C708.972 714.88 708.472 715.03 708.002 715.26C707.832 715.35 707.642 715.39 707.452 715.39C704.812 715.41 702.532 715.75 700.622 716.4C698.802 717.03 697.432 717.27 696.522 717.12C696.222 717.07 695.632 717.25 694.752 717.64C694.662 717.69 694.562 717.72 694.452 717.74L688.402 719.05C688.372 719.06 688.342 719.06 688.312 719.06H683.202C682.502 719.06 681.902 718.59 681.722 717.92C681.392 716.65 680.902 715.75 680.252 715.2C679.102 714.23 678.512 713.71 678.462 713.66C676.842 711.93 675.682 710.86 674.982 710.45C674.972 710.44 674.952 710.43 674.942 710.41L671.242 704C671.012 703.61 670.682 703.29 670.292 703.07C667.582 701.59 664.732 700.45 661.742 699.66C659.742 699.13 658.432 698.76 657.812 698.53C656.992 698.24 655.652 697.87 653.782 697.44C653.552 697.39 653.322 697.31 653.102 697.21C651.692 696.57 650.472 696.21 649.442 696.14C649.102 696.11 648.772 696.03 648.462 695.89C646.752 695.15 645.152 694.63 643.672 694.34C642.172 694.05 640.872 693.38 639.782 692.34C639.712 692.27 639.642 692.22 639.552 692.19L629.022 688.47C628.652 688.34 628.262 688.3 627.872 688.36C626.372 688.59 625.152 688.31 624.202 687.53C623.922 687.3 623.572 687.17 623.212 687.17H620.682C620.482 687.17 620.292 687.12 620.122 687.03C618.752 686.33 617.412 686.32 616.102 686.99C615.722 687.18 615.292 687.24 614.872 687.17C613.042 686.84 611.142 687.58 609.182 689.39C609.032 689.53 608.912 689.71 608.842 689.91L607.822 692.75C607.732 693 607.502 693.17 607.242 693.19C605.942 693.3 604.872 692.39 604.172 692.62C603.552 692.82 602.692 692.02 601.952 691.76C598.062 690.38 593.362 688.69 587.832 686.68C586.132 686.06 585.122 685.7 584.792 685.6C578.462 683.65 572.192 681.43 565.972 678.95C565.662 678.83 565.332 678.77 564.992 678.78C564.462 678.79 551.302 678.78 525.512 678.74C524.772 678.74 523.852 678.56 522.752 678.21C521.562 677.82 520.392 677.38 519.252 676.89C518.362 676.5 517.442 676.31 516.482 676.34C515.932 676.35 515.102 676.34 513.982 676.33C512.472 676.32 511.392 676.15 510.762 675.84C510.342 675.64 510.002 675.48 509.742 675.36C509.442 675.22 509.112 675.15 508.782 675.15H491.802C491.662 675.15 491.532 675.09 491.432 674.99C491.062 674.6 490.422 674.45 489.502 674.53C487.752 674.68 486.492 674.63 485.732 674.37C484.522 673.95 483.332 673.81 482.182 673.95C480.272 674.18 478.312 673.57 476.302 672.14C474.712 671.01 472.952 669.93 471.022 668.91C470.142 668.44 469.102 668.36 468.162 668.68L459.942 671.48C459.792 671.53 459.632 671.56 459.472 671.56H451.262C451.012 671.56 450.772 671.63 450.552 671.76C449.342 672.5 447.722 671.97 446.162 672.39C441.392 673.7 437.502 674.86 434.492 675.89C434.212 675.99 433.972 676.15 433.772 676.37C432.012 678.35 430.412 679.34 428.982 679.34C421.112 679.36 410.772 679.37 397.952 679.36C397.552 679.36 397.152 679.26 396.802 679.08C396.782 679.07 396.752 679.05 396.722 679.03C396.362 678.8 395.942 678.69 395.512 678.73C393.792 678.88 392.372 678.8 391.252 678.48C390.892 678.37 390.562 678.17 390.302 677.9C388.012 675.54 385.442 672.88 382.192 673.38C381.862 673.43 381.522 673.32 381.272 673.09C380.952 672.78 380.512 672.66 379.962 672.72C379.392 672.78 378.942 672.77 378.592 672.7C375.622 672.07 373.502 671.6 372.232 671.3C370.082 670.79 368.722 670.52 368.142 670.48C366.422 670.37 365.062 670.17 364.062 669.86C363.392 669.65 360.812 669.1 356.322 668.23C356.152 668.2 354.022 667.78 349.912 666.96C347.172 666.42 344.832 666.14 342.882 666.11C342.582 666.11 342.292 666.01 342.042 665.83C342.032 665.82 341.992 665.79 341.922 665.73C341.802 665.62 341.642 665.56 341.482 665.59C340.452 665.74 338.542 665.38 335.742 664.53C335.452 664.44 334.542 664.32 333.002 664.19C332.352 664.13 331.362 663.96 330.032 663.67C328.602 663.36 327.342 662.97 326.232 662.5C325.632 662.25 324.802 662.1 323.752 662.06C321.482 661.96 320.192 661.91 319.892 661.91C318.792 661.92 317.832 661.74 317.012 661.38C315.172 660.56 313.382 660.15 311.652 660.14C311.322 660.13 310.992 660.08 310.672 659.99C309.092 659.5 306.912 659.02 304.132 658.57C300.262 657.94 296.422 658.11 292.622 659.08C292.112 659.21 290.872 659.49 288.882 659.9C281.992 661.34 276.852 662.27 273.472 662.68C273.212 662.71 272.962 662.79 272.722 662.9C271.122 663.63 269.642 663.9 268.292 663.72C268.112 663.69 267.942 663.76 267.822 663.89C267.672 664.06 267.472 664.17 267.242 664.22C262.332 665.11 259.272 665.67 258.062 665.9C255.272 666.43 253.182 666.73 251.792 666.8C251.762 666.81 250.962 667.06 249.392 667.55C249.032 667.67 248.662 667.76 248.282 667.81C244.672 668.34 241.272 667.87 238.082 666.39C237.762 666.24 237.422 666.15 237.082 666.1C234.892 665.83 233.052 665.25 231.562 664.37C231.492 664.33 231.342 664.33 231.092 664.38C230.932 664.41 230.752 664.39 230.562 664.33C227.712 663.4 221.192 661.3 210.992 658.04C209.702 657.63 208.422 657.32 207.132 657.11C207.092 657.1 207.052 657.09 207.022 657.08L196.922 653.71C196.862 653.69 196.802 653.66 196.752 653.63C195.422 652.84 194.012 652.38 192.522 652.27C192.512 652.27 192.492 652.27 192.482 652.26L183.082 649.29C182.942 649.24 182.802 649.24 182.662 649.28C182.012 649.46 181.502 649.37 181.132 649C180.782 648.65 180.002 648.62 178.802 648.91C174.892 649.87 171.412 649.5 168.342 647.79C167.782 647.48 167.122 647.37 166.492 647.48C165.482 647.66 164.632 647.53 163.952 647.09C163.752 646.96 163.522 646.89 163.292 646.89H146.822C146.472 646.89 146.132 646.97 145.812 647.11C144.462 647.72 142.762 647.1 141.822 647.85C141.432 648.16 140.982 648.24 140.472 648.11C139.132 647.76 138.872 648.92 137.392 648.7C137.012 648.65 136.602 648.7 136.172 648.87C134.322 649.57 132.552 649.92 130.842 649.92C130.522 649.92 130.222 649.99 129.942 650.13C128.412 650.9 127.152 651.22 126.182 651.08C126.112 651.07 126.032 651.07 125.962 651.1L121.972 652.29C121.902 652.31 121.822 652.32 121.742 652.31C120.672 652.22 119.372 652.53 117.822 653.25C117.602 653.36 117.362 653.42 117.122 653.44C113.352 653.79 109.832 654.58 106.562 655.79C106.212 655.92 105.832 655.97 105.462 655.93C104.152 655.79 103.162 655.94 102.512 656.38C102.362 656.48 102.182 656.54 102.002 656.54H93.4919C93.1519 656.54 92.8319 656.65 92.5619 656.86C92.5219 656.89 92.4619 656.94 92.3719 657.02C92.3019 657.08 92.2119 657.11 92.1219 657.11H78.9019C78.7919 657.11 78.6919 657.13 78.6019 657.16C76.8419 657.75 74.1519 657.91 70.5319 657.63C70.1719 657.6 69.8219 657.7 69.5219 657.89C67.0419 659.5 65.6319 660.63 65.2919 661.3C64.2719 663.28 63.5619 664.5 63.1519 664.97C61.3519 667.04 60.1219 668.7 59.4619 669.95C59.3319 670.2 59.0719 670.35 58.7919 670.35H57.1319C56.8119 670.35 56.5518 670.09 56.5518 669.78V665.18C56.5518 664.9 56.4519 664.62 56.2719 664.39C55.8219 663.81 55.8119 663.23 56.2219 662.64C56.2819 662.56 56.3219 662.47 56.3419 662.37L59.4919 648.57C59.5319 648.4 59.5419 648.24 59.5319 648.07C59.4419 647.1 59.6318 646.09 60.0818 645.04C60.3118 644.52 60.2519 643.97 59.8919 643.38C59.7319 643.12 59.6319 642.82 59.6219 642.51C59.3919 637.59 57.9019 633.04 55.1419 628.86C55.0519 628.71 54.9719 628.56 54.9019 628.39L52.4819 621.92C52.3919 621.66 52.3419 621.38 52.3419 621.1V562.92C52.3419 562.52 52.2619 562.12 52.1019 561.75C51.6519 560.7 51.5319 559.4 51.7519 557.86C51.7819 557.65 51.7619 557.43 51.7119 557.23L50.2119 551.18C50.1819 551.05 50.1319 550.93 50.0619 550.81C47.9919 546.94 47.1619 543.13 47.5919 539.37C47.6419 538.98 47.5318 538.58 47.3018 538.25C47.2918 538.24 47.2318 538.16 47.1118 537.99C46.9918 537.82 46.9219 537.61 46.9219 537.4V526.73C46.9219 526.27 47.0219 525.81 47.2019 525.39C48.0019 523.62 48.3019 522.01 48.0919 520.58C47.8619 518.96 48.9519 517.35 48.6919 515.33C48.6419 514.92 48.7219 514.51 48.9319 514.16L49.2419 513.62C49.3819 513.39 49.4319 513.12 49.3919 512.86C49.1719 511.15 49.3118 509.78 49.8018 508.75C49.8918 508.57 49.9319 508.37 49.9319 508.17V505.22C49.9319 505.06 49.9819 504.91 50.0719 504.77C50.8619 503.61 50.4419 501.51 50.7519 499.82C51.4519 495.92 51.7619 493.52 51.6719 492.61C51.6419 492.28 51.7119 491.94 51.8519 491.64C52.3619 490.57 52.5019 488.9 52.2919 486.64C52.2419 486.22 52.3319 485.78 52.5319 485.4C52.9619 484.56 53.0819 483.49 52.8819 482.2C52.8319 481.84 52.9118 481.47 53.1118 481.17C53.5918 480.46 53.7219 479.26 53.4919 477.57C53.4419 477.19 53.5319 476.81 53.7219 476.49C54.6719 474.92 53.7119 472.46 54.4919 470.55C54.7219 469.98 54.8019 469 54.7219 467.6C54.7019 467.2 54.8119 466.81 55.0319 466.48C55.8019 465.33 54.9119 464 55.7119 462.81C55.9219 462.49 56.0119 462.11 55.9619 461.74C55.7919 460.41 55.9219 459.31 56.3719 458.44C56.4819 458.22 56.5419 457.97 56.5419 457.71V454.57C56.5419 454.42 56.5919 454.28 56.6919 454.16C57.1019 453.65 57.2519 452.77 57.1219 451.54C57.1119 451.45 57.1119 451.37 57.1219 451.29L58.4419 440.67C58.4519 440.57 58.4919 440.48 58.5419 440.39C58.9819 439.72 59.1019 438.35 58.9019 436.29C58.8719 435.88 58.9419 435.48 59.1019 435.11C59.5519 434.09 59.6919 432.79 59.5219 431.22C59.4719 430.7 59.5919 430.21 59.8919 429.83C60.1019 429.55 60.2019 429.21 60.1719 428.86C60.0419 427.63 60.1519 426.5 60.4919 425.47C60.9019 424.22 60.4519 422.28 61.0019 421.48C61.7819 420.35 61.0819 418.36 61.7519 416.93C61.9519 416.49 62.0319 416.01 61.9819 415.53C61.7919 413.66 61.9119 412.1 62.3419 410.85C62.4919 410.43 62.5619 409.98 62.5719 409.53C62.6019 407.06 63.0019 404.47 63.7519 401.74C64.1419 400.31 64.3319 399.24 64.3219 398.51C64.3019 396.6 64.3219 395.35 64.3819 394.74C64.4019 394.31 64.5219 393.89 64.7319 393.52L68.4019 386.9C68.4419 386.83 68.4719 386.75 68.4919 386.66L70.2719 380.58C70.3419 380.37 70.3719 380.16 70.3719 379.94V369.66C70.3819 368.82 70.2718 367.98 70.0518 367.17C69.9618 366.84 69.7419 365.78 69.3719 363.97C68.8019 361.15 69.1819 358.14 69.1619 354.09C69.1619 353.56 69.0919 353.03 68.9419 352.52C68.3019 350.23 67.9619 348.12 67.9219 346.17C67.9119 345.87 67.8619 345.57 67.7619 345.29C66.8219 342.7 66.4619 339.9 66.6819 336.88C66.6919 336.78 66.7119 336.68 66.7419 336.59L68.5219 330.59C68.6119 330.28 68.6119 329.96 68.5219 329.66C67.5619 326.52 66.8819 323.09 66.4819 319.36C66.1619 316.34 65.8419 314.11 65.5219 312.67C65.1919 311.13 64.8018 308.91 64.3618 306C63.9918 303.55 63.5219 301.3 62.9419 299.23C62.6119 298.03 62.4819 297.05 62.5619 296.28C62.6919 295.06 62.5419 294.22 62.1219 293.76C61.8819 293.5 61.8119 293.12 61.9419 292.79C62.0719 292.47 61.8819 291.24 61.3819 289.09C61.2019 288.32 60.9919 287.12 60.7619 285.49C59.9519 279.89 59.2119 275.84 58.5419 273.33C58.2719 272.32 57.0919 271 54.9919 269.37C54.7019 269.14 54.4619 268.83 54.3219 268.48C53.7719 267.14 53.5019 265.99 53.5319 265.02C53.5519 264.49 53.4818 263.96 53.3318 263.45C52.0518 259.04 52.0819 254.82 53.4319 250.81C53.5119 250.56 53.5518 250.31 53.5518 250.06V228.65C53.5518 228.44 53.6219 228.24 53.7419 228.07C54.2119 227.43 54.3318 226.21 54.0818 224.4C54.0218 223.99 54.1219 223.57 54.3519 223.22C55.2019 221.93 54.3719 220.47 55.1719 218.96C55.7519 217.85 56.0019 216.59 55.9219 215.16C55.8919 214.72 56.0219 214.28 56.2719 213.92C56.3019 213.88 56.3119 213.85 56.3219 213.84C56.5419 213.52 56.6319 213.13 56.5719 212.74C56.3119 210.88 57.2919 209.33 57.7519 207.39C59.6819 199.4 61.7118 191.67 63.8618 184.2C63.8918 184.08 63.9619 183.98 64.0419 183.9C64.4119 183.56 64.5219 183.11 64.3819 182.55C64.2319 181.95 64.2219 181.59 64.3519 181.46C64.3619 181.45 64.4919 181.27 64.7319 180.92C64.8719 180.71 64.9519 180.46 64.9519 180.21V171.51C64.9519 171.23 64.9019 170.94 64.8119 170.68C64.3219 169.19 64.1819 167.21 64.4119 164.76C64.5019 163.84 64.3219 163.15 63.8819 162.68C63.6519 162.44 63.5919 162.08 63.7119 161.77C63.9119 161.24 63.8719 160.72 63.5919 160.21C62.6519 158.53 63.6419 156.91 62.9819 155.41C62.5119 154.32 62.3819 152.64 62.6019 150.39C62.6519 149.96 62.5819 149.53 62.4219 149.13C61.5919 147.15 62.1119 144.6 61.6519 142.33C61.0419 139.26 60.7119 136.21 60.6819 133.16C60.6719 132.83 60.5819 132.5 60.4219 132.21C60.1319 131.7 60.0519 130.59 60.1819 128.9C60.2519 127.86 60.0919 126.78 59.6919 125.67C59.4819 125.08 59.4518 123.93 59.6118 122.23C59.6518 121.89 59.5719 121.54 59.3919 121.24C58.4819 119.74 59.2619 117.79 58.7319 116.23C58.2919 114.95 58.1819 112.72 58.3919 109.53C58.4219 109.02 58.3519 108.51 58.1719 108.04C57.6919 106.77 57.5519 105.17 57.7619 103.24C57.8519 102.41 57.7818 101.76 57.5518 101.28C56.8118 99.7501 57.5719 98.9001 56.7719 97.8101C56.5619 97.5301 56.4619 97.1801 56.4919 96.8301C56.8219 93.1001 56.2519 89.6501 54.7819 86.5001C54.6619 86.2501 54.6719 85.9601 54.8119 85.7301L55.1719 85.1101C55.3519 84.7901 55.3519 84.4101 55.1619 84.0901C54.3119 82.6601 55.0919 81.3301 54.2819 79.5301C53.5319 77.8701 55.0019 74.4001 55.7219 72.6901C56.1619 71.6501 57.6819 71.8701 57.8219 72.9901C57.8319 73.1001 57.8019 73.4401 57.7119 74.0001C57.4719 75.6101 56.8519 77.5401 55.8519 79.7901C55.6519 80.2501 55.6319 80.7601 55.7919 81.2401L56.5619 83.4401C56.6119 83.5901 56.7519 83.6901 56.9119 83.6801Z" fill="#FFE44C"/>
<path d="M997.79 58.3399C997.2 58.1699 997.18 57.34 997.76 57.14L1004.82 54.6799C1005 54.6199 1005.2 54.6099 1005.38 54.6599C1007.76 55.2899 1009.79 56.2099 1011.46 57.4399C1011.78 57.6699 1011.73 58.1599 1011.37 58.3299L1009.3 59.29C1008.94 59.45 1008.56 59.54 1008.16 59.54H1002.13C1002.04 59.54 1001.95 59.5299 1001.86 59.4999L997.79 58.3399Z" fill="#FFE44C"/>
<path d="M964.241 55.8498L967.371 54.7598C967.581 54.6798 967.821 54.7998 967.891 55.0098L968.521 56.8298C968.571 56.9798 968.461 57.1398 968.301 57.1398L964.421 57.0198C963.751 56.9998 963.611 56.0698 964.241 55.8498Z" fill="#FFE44C"/>
<path d="M1016.39 56.5798C1016.74 56.6998 1017.19 57.4198 1017.73 58.7598C1017.84 59.0398 1017.69 59.3498 1017.41 59.4398C1016.68 59.6598 1016.03 59.6798 1015.46 59.4998C1014.89 59.3198 1014.37 58.9298 1013.91 58.3298C1013.73 58.0898 1013.79 57.7498 1014.04 57.5798C1015.26 56.8098 1016.04 56.4698 1016.39 56.5798Z" fill="#FFE44C"/>
<path d="M82.1885 74.0898L84.2385 73.3698C84.9985 73.1098 85.8185 73.5898 85.9485 74.3898C86.1685 75.6898 86.4585 76.5198 86.8085 76.8898C87.5785 77.6998 88.9885 77.2398 89.3585 76.0598C90.3385 72.9598 93.2385 75.9198 95.0185 73.6098C95.2185 73.3498 95.5785 73.2898 95.8485 73.4598C97.1185 74.2798 98.3285 74.0198 99.4785 72.6698C100.409 71.5798 99.8285 69.8998 98.4485 69.6898C98.2285 69.6598 97.7285 69.6798 96.9485 69.7498C96.4285 69.7998 96.0185 69.3198 96.1485 68.8198L96.2085 68.5598C96.3585 67.9398 96.8585 67.4598 97.4785 67.3298C98.0585 67.1998 98.6285 67.4898 99.1985 68.1898C99.3785 68.4098 99.6385 68.5298 99.9285 68.5398L101.919 68.6098C102.409 68.6198 102.809 69.0298 102.809 69.5298V71.6998C102.809 71.9498 103.009 72.1498 103.259 72.1498H105.159C105.509 72.1498 105.839 71.9698 106.029 71.6698C107.329 69.6398 107.869 67.9498 107.639 66.5898C107.479 65.6498 108.249 64.8098 109.199 64.8898L111.329 65.0498C112.579 65.1498 113.599 66.1098 113.769 67.3598C113.939 68.6698 114.779 69.4498 116.289 69.6898C117.459 69.8698 118.299 68.5998 117.669 67.5998C117.259 66.9498 117.229 66.2198 117.559 65.3898C117.699 65.0498 118.039 64.8398 118.399 64.8898C120.309 65.1098 122.419 64.7598 124.749 63.8498C124.979 63.7598 125.229 63.7098 125.479 63.7098H132.889C133.149 63.7098 133.419 63.6698 133.659 63.5798C135.429 62.9598 136.949 62.8498 138.229 63.2398C140.639 63.9898 142.369 63.9998 143.409 63.2698C143.549 63.1698 143.719 63.1198 143.899 63.1198H154.339C154.639 63.1198 154.949 63.1698 155.229 63.2698C156.159 63.5698 156.739 63.7198 156.979 63.7198C164.649 63.7098 173.109 63.2198 174.629 64.0998C174.909 64.2598 175.229 64.3498 175.549 64.3498L183.089 64.3098C183.369 64.3098 183.639 64.3998 183.859 64.5598C183.879 64.5798 184.019 64.6798 184.269 64.8498C184.339 64.8998 184.489 64.9298 184.719 64.9298C188.539 64.9198 193.539 64.9198 199.729 64.9198C200.109 64.9198 200.479 65.0198 200.809 65.2098C200.879 65.2498 200.919 65.2798 200.939 65.2898C201.259 65.4598 201.609 65.5498 201.959 65.5498L211.759 65.5298C212.139 65.5298 212.509 65.6298 212.829 65.8298C212.849 65.8398 212.879 65.8498 212.909 65.8698C213.219 65.9598 213.529 66.0098 213.849 66.0198L240.849 66.8498C240.889 66.8498 240.919 66.8698 240.939 66.8998C240.949 66.9198 241.019 66.9698 241.149 67.0498C241.449 67.2298 241.799 67.3298 242.149 67.3298H259.079C259.419 67.3298 259.759 67.3998 260.069 67.5298C260.679 67.7898 261.099 67.9198 261.319 67.9198C270.889 67.9298 275.889 67.9298 276.319 67.9298C276.589 67.9298 276.859 68.0098 277.089 68.1598C277.249 68.2698 277.409 68.3398 277.559 68.3898C279.079 68.8998 283.119 68.5698 285.869 68.5598C286.209 68.5498 286.539 68.6498 286.829 68.8398C286.939 68.9098 287.009 68.9598 287.039 68.9798C287.229 69.0798 287.439 69.1398 287.659 69.1398L297.749 69.1298C298.079 69.1298 298.409 69.1798 298.739 69.2698C300.479 69.7898 303.049 69.9198 306.459 69.6498C306.959 69.6098 307.459 69.7598 307.859 70.0698C308.569 70.6098 310.179 70.2198 311.409 70.6298C312.459 70.9798 314.069 71.0598 316.229 70.8598C316.339 70.8498 316.439 70.8698 316.539 70.8998L318.179 71.4998C318.399 71.5898 318.639 71.6198 318.869 71.5998C320.579 71.4698 321.629 71.5098 321.999 71.7198C323.499 72.5398 324.939 71.7898 326.749 72.8298C327.259 73.1198 328.209 73.2698 329.599 73.2798C340.749 73.3498 347.769 73.3798 350.659 73.3598C351.129 73.3598 351.589 73.5298 351.949 73.8298C354.339 75.8398 356.549 76.8598 358.569 76.8898C363.739 76.9598 371.179 76.9698 380.899 76.9198C381.089 76.9198 381.279 76.9698 381.449 77.0598L382.259 77.4698C382.369 77.5298 382.499 77.5598 382.629 77.5598H389.299C389.589 77.5598 389.679 77.9598 389.409 78.0798C387.709 78.8598 385.239 78.5198 384.249 79.3098C384.159 79.3798 382.119 79.3898 378.119 79.3198C377.749 79.3098 377.389 79.4098 377.079 79.6098C377.009 79.6498 376.939 79.6898 376.869 79.7298C376.649 79.8798 376.379 79.9598 376.109 79.9598C374.439 79.9498 372.569 79.9498 370.499 79.9498C370.339 79.9498 370.089 80.0498 369.749 80.2498C369.379 80.4598 368.969 80.5698 368.549 80.5698H362.599C362.349 80.5698 362.109 80.6698 361.929 80.8498L361.709 81.0598C361.649 81.1198 361.569 81.1598 361.489 81.1598H355.139C354.719 81.1598 354.299 81.2298 353.899 81.3598C352.489 81.8298 350.869 81.9398 349.029 81.6798C348.749 81.6398 348.459 81.7398 348.259 81.9398L348.049 82.1498C347.929 82.2798 347.759 82.3498 347.569 82.3598C345.379 82.4198 342.709 82.1498 340.229 82.6598C337.319 83.2598 333.839 82.4098 330.739 83.4398C330.459 83.5298 330.149 83.5798 329.849 83.5798H316.169C315.819 83.5798 315.469 83.4898 315.159 83.3098C315.149 83.2998 315.079 83.2598 314.949 83.1798C314.709 83.0298 314.439 82.9498 314.169 82.9498H308.769C308.609 82.9498 308.439 82.9098 308.299 82.8298C306.609 81.9398 304.199 83.0098 302.829 81.8798C302.629 81.7098 302.389 81.6498 302.109 81.6898C300.559 81.9198 299.089 81.8498 297.699 81.4798C295.329 80.8498 292.729 81.6598 290.889 80.8298C290.579 80.6998 288.749 80.5298 285.389 80.3298C285.129 80.3198 284.869 80.3598 284.629 80.4498C284.539 80.4798 284.459 80.5198 284.409 80.5598C284.299 80.6398 284.149 80.6598 284.029 80.5998C281.479 79.4398 278.569 79.0398 275.299 79.3998C274.829 79.4498 274.349 79.3798 273.909 79.1798C271.979 78.3198 269.789 79.0798 267.449 78.2498C266.999 78.0898 265.699 78.0698 263.549 78.1998C263.159 78.2298 262.769 78.1498 262.419 77.9898C261.489 77.5498 260.199 77.4198 258.559 77.5998C258.109 77.6498 257.649 77.5798 257.229 77.4098C255.009 76.4798 252.699 77.3598 250.389 76.5398C249.779 76.3298 248.599 76.2798 246.839 76.3998C246.559 76.4198 246.289 76.3398 246.059 76.1698L245.799 75.9898C245.489 75.7598 245.109 75.6598 244.729 75.6998C242.779 75.9098 241.109 75.7498 239.719 75.2198C239.589 75.1698 239.459 75.1398 239.329 75.1398H233.319C233.239 75.1398 233.149 75.1098 233.089 75.0498C231.959 73.9998 228.209 74.9398 226.369 74.1798C224.849 73.5598 223.299 74.3898 221.909 73.6298C220.429 72.8198 217.919 73.8198 216.109 72.9398C214.769 72.2998 212.419 73.0198 210.639 72.4998C209.269 72.0898 207.799 71.9898 206.239 72.1898C205.939 72.2298 205.629 72.1598 205.369 71.9898C203.919 71.0098 201.449 71.8898 199.529 71.2298C198.619 70.9098 197.229 70.8198 195.359 70.9598C194.949 70.9898 194.529 70.9298 194.139 70.7898C192.959 70.3398 191.279 70.1998 189.109 70.3698C188.559 70.4198 187.999 70.2898 187.519 70.0098C187.429 69.9498 187.369 69.9098 187.329 69.8998C187.009 69.7398 186.649 69.6698 186.279 69.6998C184.919 69.8398 183.799 69.6898 182.919 69.2598C182.729 69.1698 182.519 69.1198 182.309 69.1198L177.739 69.1398C177.399 69.1398 177.079 69.0598 176.779 68.9098C176.769 68.8998 176.699 68.8298 176.569 68.6998C176.459 68.5798 176.299 68.5098 176.129 68.5198L170.189 68.5898C169.839 68.5998 169.489 68.5098 169.179 68.3298C168.119 67.4598 165.929 68.2298 164.459 67.5198C164.199 67.3898 163.909 67.3298 163.609 67.3298H153.829C153.619 67.3298 153.409 67.3598 153.209 67.4298L144.349 70.2798C144.259 70.3098 144.179 70.3198 144.089 70.3298C143.199 70.3898 141.609 70.7898 139.309 71.5298C136.879 72.3098 133.459 73.2798 129.049 74.4398C128.909 74.4798 128.569 74.6398 128.149 74.8798C127.139 75.4498 126.059 74.9398 124.939 75.2998C122.829 75.9698 121.339 76.4798 120.469 76.8398C120.139 76.9798 119.769 77.0198 119.419 76.9698C118.209 76.7798 117.179 76.9398 116.329 77.4298C115.959 77.6398 115.509 77.6298 115.159 77.3898L114.919 77.2198C114.669 77.0498 114.379 76.9498 114.089 76.9398C113.869 76.9298 111.939 76.9298 108.309 76.9398C106.959 76.9398 105.969 77.7298 104.759 76.6598C104.439 76.3798 103.979 76.3598 103.639 76.5998C103.259 76.8698 102.039 76.9798 99.9885 76.9198C99.7285 76.9098 98.7285 77.1898 96.9885 77.7498C96.6485 77.8598 96.3685 78.1098 96.2385 78.4298C95.5185 80.1298 94.1285 80.6698 92.3885 80.5698C91.5185 80.5198 90.9485 80.6298 90.6685 80.8998C90.4285 81.1298 90.0885 81.2398 89.7485 81.1998C88.4585 81.0098 87.3185 81.1398 86.3385 81.5898C86.0685 81.7098 85.7685 81.7498 85.4785 81.6998C83.5485 81.3498 82.5285 80.0898 82.4185 77.9198C82.4085 77.5798 82.2785 77.2598 82.0685 77.0098C81.8185 76.6998 81.7185 75.9198 81.7585 74.6698C81.7685 74.3998 81.9385 74.1698 82.1885 74.0898ZM137.46 65.6393C137.179 65.4098 136.689 65.5598 136.363 65.9607C136.039 66.3598 135.999 66.8698 136.277 67.1003C136.559 67.3298 137.049 67.1798 137.374 66.7789C137.699 66.3798 137.739 65.8698 137.46 65.6393ZM111.909 71.1367C111.469 71.2598 111.259 71.8798 111.442 72.5014C111.619 73.1298 112.129 73.5298 112.568 73.4029C113.009 73.2798 113.219 72.6598 113.036 72.0382C112.859 71.4098 112.349 71.0098 111.909 71.1367Z" fill="#FFE44C"/>
<path d="M396.33 63.1702C396.73 63.2302 396.939 63.6802 396.729 64.0202L396.59 64.2402C396.31 64.7002 395.79 64.9602 395.25 64.9202C394.32 64.8502 393.44 65.0302 392.63 65.4602C392.35 65.6102 392.02 65.6502 391.71 65.5902C390.9 65.4202 390.2 65.5002 389.63 65.8402C389.39 65.9802 389.129 66.0602 388.859 66.0902C386.499 66.3102 385.06 66.1902 384.53 65.7202C384.28 65.5002 383.939 65.4002 383.599 65.4602C382.819 65.6002 381.87 65.5802 380.76 65.3902C380.46 65.3402 380.33 64.9802 380.53 64.7502L380.87 64.3402C380.89 64.3102 380.929 64.2902 380.969 64.3002C382.439 64.4802 383.549 64.3502 384.299 63.9202C384.539 63.7802 384.81 63.7102 385.09 63.7102H391.39C391.72 63.7102 392.049 63.6502 392.349 63.5302C393.509 63.0702 394.84 62.9502 396.33 63.1702Z" fill="#FFE44C"/>
<path d="M60.8112 70.3998C60.4912 70.4498 60.2612 70.0998 60.4012 69.7898C60.5012 69.5798 60.6713 69.4298 60.9213 69.3598C61.2013 69.2798 61.4712 69.5298 61.4312 69.8398C61.4012 70.1598 61.1912 70.3498 60.8112 70.3998Z" fill="#FFE44C"/>
<path d="M94.6319 71.3898C94.3819 71.2798 94.3019 71.0498 94.3719 70.6998C94.4019 70.5298 94.5919 70.4398 94.7419 70.5198C94.8219 70.5698 94.8919 70.6498 94.9519 70.7798C95.1019 71.1198 94.9019 71.4998 94.6319 71.3898Z" fill="#FFE44C"/>
<path d="M64.3599 73.9698C63.8899 73.9498 63.61 73.9198 63.51 73.8898C63.06 73.7298 62.96 73.1298 63.32 72.7698C63.81 72.2998 64.27 72.2598 64.71 72.6698C65.22 73.1498 64.9899 73.9898 64.3599 73.9698Z" fill="#FFE44C"/>
<path d="M76.9594 75.7999C76.9294 75.3299 77.3694 74.9799 77.8194 75.0999L78.6694 75.3399C79.1194 75.4599 79.4094 75.8999 79.3394 76.3699C79.2294 77.0899 79.6194 78.2399 80.5194 79.8099C80.9094 80.4899 80.5394 81.3399 79.7894 81.5299L78.3794 81.8899C78.3394 81.8999 78.2994 81.8999 78.2494 81.8899C76.3194 81.6399 75.8094 80.3599 76.7294 78.0599C76.8194 77.8499 76.8894 77.6299 76.9594 77.4099C77.0094 77.2399 77.0094 76.6999 76.9594 75.7999Z" fill="#FFE44C"/>
<path d="M72.1094 79.5299C72.0994 79.8099 71.8695 80.0299 71.5895 80.0199L71.0295 79.9999C70.6195 79.9899 70.2895 79.6399 70.3095 79.2299L70.3594 77.4899C70.3694 77.2399 70.5795 77.0299 70.8395 77.0399L71.4695 77.0599C71.8695 77.0799 72.1795 77.4099 72.1695 77.8099L72.1094 79.5299Z" fill="#FFE44C"/>
<path d="M77.2506 220.46C77.2706 221.61 77.2806 222.4 77.3106 222.84C77.3206 223.02 77.1006 223.11 76.9806 222.97C76.6206 222.57 76.4306 221.73 76.4106 220.47C76.4006 219.2 76.5706 218.36 76.9206 217.94C77.0306 217.81 77.2606 217.89 77.2606 218.08C77.2406 218.51 77.2406 219.31 77.2506 220.46Z" fill="#FFE44C"/>
</svg>
