<svg width="1366" height="681" viewBox="0 0 1366 681" fill="none" xmlns="http://www.w3.org/2000/svg">
<path d="M10.9119 44.6801L15.0419 44.5001C15.2919 44.4901 15.5219 44.3301 15.6319 44.1001C15.9119 43.4901 15.6919 42.8701 14.9619 42.2401C14.7219 42.0301 14.7619 41.6501 15.0319 41.4901L17.1319 40.2801C17.4119 40.1201 17.7519 40.3401 17.7219 40.6601C17.6919 41.0301 17.8218 41.4101 18.1118 41.7801C18.3118 42.0301 18.6119 42.1701 18.9219 42.1701H22.5719C23.4519 42.1701 24.0019 43.1101 23.5619 43.8701L22.8018 45.1901C22.6518 45.4501 22.5719 45.7401 22.5719 46.0301V217.7C22.5719 217.9 22.6119 218.09 22.6819 218.28C23.1819 219.53 23.3219 220.86 23.1019 222.26C23.0119 222.84 23.2219 223.92 23.7419 225.5C23.8319 225.77 23.9619 226.01 24.1319 226.22C24.3019 226.44 24.3919 226.72 24.3819 227C24.2319 229.89 24.7619 233.04 25.9919 236.47C26.1519 236.93 26.2219 237.43 26.1819 237.92C26.0419 239.6 26.1719 240.74 26.5719 241.35C26.7819 241.67 26.8518 242.28 26.8018 243.18C26.7718 243.65 26.8919 244.21 27.1619 244.85C27.4019 245.43 27.6019 246.35 27.7619 247.62C28.0119 249.59 28.0819 250.74 27.9819 251.07C27.8719 251.4 27.9819 251.77 28.2519 251.99C28.8619 252.51 28.5018 255 28.8618 256.33C29.5118 258.76 29.8219 260.5 29.7719 261.55C29.7619 261.94 29.8419 262.32 30.0019 262.66C30.4319 263.52 30.5319 264.81 30.3219 266.54C30.2819 266.89 30.3419 267.24 30.4819 267.55C30.8119 268.24 30.9719 269.05 30.9619 269.99C30.9519 270.64 31.1119 271.46 31.4419 272.45C31.9219 273.94 32.2119 275.67 32.3219 277.64C32.3219 277.66 32.3219 277.68 32.3219 277.69L34.7619 291.98C34.7719 292.02 34.7819 292.06 34.7919 292.1C35.4019 293.97 35.8519 295.94 36.1319 298C36.4419 300.28 36.7119 302.07 36.9419 303.36C37.4319 306.13 37.7119 307.92 37.7719 308.74C37.7819 308.93 37.9719 309.93 38.3219 311.74C38.6519 313.45 38.8319 314.89 38.8419 316.06C38.8419 316.4 38.9419 316.73 39.1319 317.02C39.1619 317.06 39.2119 317.13 39.2819 317.24C39.3619 317.35 39.4019 317.48 39.4019 317.62V328.49C39.4019 328.59 39.3819 328.69 39.3419 328.78C38.2319 331.31 39.1319 334.06 38.3719 337.31C38.0419 338.73 38.6418 341.67 37.8018 342.96C37.6118 343.26 37.5219 343.62 37.5619 343.98C37.7319 345.44 37.6119 346.75 37.1919 347.92C37.0619 348.28 36.9919 348.66 36.9919 349.04V353.28C36.9919 353.34 36.9819 353.4 36.9519 353.45C36.3519 354.68 36.1819 356.69 36.4519 359.47C36.4819 359.84 36.3919 360.21 36.1919 360.52C35.3819 361.8 36.0919 363.79 35.6019 365.21C35.1619 366.49 35.0319 368.1 35.2219 370.03C35.2619 370.39 35.1519 370.76 34.9119 371.05C34.3219 371.76 34.6019 373.7 34.6219 375.77C34.6219 376.14 34.5319 376.5 34.3519 376.83C33.5219 378.33 34.4119 379.89 33.6219 381.39C33.3719 381.86 33.3019 382.74 33.4119 384.02C33.4319 384.28 33.3519 384.54 33.1819 384.75L32.8919 385.11C32.8319 385.18 32.8018 385.27 32.8018 385.37V391.08C32.8018 391.4 32.7519 391.73 32.6519 392.04C32.1819 393.48 32.0319 395.22 32.2019 397.25C32.2819 398.2 32.1419 398.93 31.7819 399.45C31.6619 399.62 31.5919 399.82 31.5919 400.03V406.16C31.5919 406.24 31.5719 406.31 31.5419 406.38C30.9719 407.37 30.7919 408.73 30.9919 410.47C31.1519 411.8 30.1219 412.29 30.3519 413.55C30.5019 414.33 30.3619 415.09 29.9519 415.83C29.7919 416.12 29.7418 416.86 29.8018 418.06C29.8118 418.24 29.7919 418.43 29.7219 418.61L24.4719 433.11C24.4019 433.3 24.3719 433.51 24.3719 433.72V446.26C24.3719 446.79 24.5619 447.3 24.9119 447.7C25.7419 448.65 26.3519 449.78 26.7319 451.1C26.8019 451.34 26.8119 451.6 26.7419 451.84L25.1019 458.18C25.0519 458.38 25.0219 458.59 25.0119 458.8C24.8919 463.43 25.4719 467.79 24.4319 471.79C24.0319 473.36 24.7919 475.68 24.0919 477.38C23.2819 479.32 24.0619 482.43 23.3819 485.01C23.0919 486.11 23.0219 487.47 23.1719 489.09C23.2019 489.42 23.1119 489.75 22.9219 490.02C22.0119 491.28 23.0519 493.31 22.2319 494.89C22.1419 495.06 22.0919 495.25 22.0719 495.44C21.6719 500.51 21.9219 505.32 22.8219 509.86C23.7819 514.67 24.3019 519.04 24.3719 522.97C24.3719 523.05 24.3819 523.13 24.3919 523.22L27.9119 546.22C27.9319 546.37 27.9419 546.51 27.9419 546.66L27.9919 549.95C27.9919 550.29 28.0519 550.64 28.1719 550.96C28.5919 552.16 28.7119 553.55 28.5419 555.12C28.5019 555.5 28.6019 555.88 28.8219 556.18C28.8719 556.25 28.9219 556.32 28.9719 556.37C29.1519 556.57 29.2419 556.85 29.2019 557.12C29.0419 558.35 29.1818 559.36 29.6118 560.15C29.7318 560.38 29.8018 560.64 29.8018 560.91V564.69C29.8018 564.81 29.8519 564.93 29.9419 565.02C30.4319 565.52 30.5619 566.66 30.3519 568.45C30.3419 568.52 30.3419 568.6 30.3519 568.68L31.7919 577.14C31.8319 577.39 31.9019 577.63 32.0019 577.87L32.1419 578.22C32.1719 578.25 32.1819 578.28 32.1719 578.32C32.0319 581.81 32.3819 585.19 33.2319 588.45C33.5419 589.66 33.1419 590.75 33.5319 591.74C34.0419 593 34.1319 594.72 33.9419 595.8C33.8819 596.15 33.9419 596.51 34.1319 596.81C34.6019 597.57 34.7519 598.9 34.5719 600.8C34.5519 600.97 34.5618 601.14 34.6118 601.31L36.1719 607.58C36.3419 608.26 36.9619 608.74 37.6719 608.72C38.7619 608.69 39.6019 608.47 40.1919 608.06C40.3619 607.94 40.5619 607.88 40.7619 607.88L48.0619 607.91C48.4219 607.92 48.7818 607.8 49.0818 607.59C49.1018 607.58 49.1719 607.52 49.2819 607.43C49.3719 607.35 49.4919 607.3 49.6219 607.3H54.5119C55.9219 607.3 57.3119 607.08 58.6619 606.66C64.9719 604.69 70.6619 603.31 75.7519 602.51C77.3719 602.26 78.4019 601.97 78.8519 601.64C79.1219 601.45 79.4319 601.35 79.7619 601.35C80.8919 601.35 83.0118 600.85 86.1118 599.86C87.6018 599.38 89.4519 599.05 91.6619 598.87C91.7119 598.87 91.7719 598.86 91.8219 598.85L109.902 594.34C109.912 594.33 109.932 594.33 109.942 594.33C112.262 593.47 114.352 592.96 116.222 592.81C116.472 592.79 116.722 592.72 116.952 592.61C118.252 591.98 119.442 591.66 120.532 591.66C120.852 591.65 121.182 591.59 121.482 591.48C123.392 590.77 125.092 590.82 126.582 591.65C126.822 591.79 127.112 591.81 127.372 591.71C128.002 591.48 128.512 591.56 128.922 591.96C128.952 591.99 128.982 592 129.012 592.01L134.952 593.47C134.982 593.48 135.022 593.48 135.052 593.48C138.712 593.44 140.562 595.49 142.532 596.68C142.892 596.93 143.322 597.07 143.762 597.08L145.212 597.12C145.282 597.12 145.342 597.14 145.392 597.17C146.902 597.9 148.482 597.96 150.142 597.33C151.232 596.92 152.442 596.87 153.772 597.16C157.982 598.11 160.972 598.87 162.762 599.44C163.032 599.53 163.332 599.54 163.612 599.47C164.012 599.37 165.072 599.56 166.792 600.05C168.272 600.47 169.262 600.73 169.762 600.83C174.112 601.72 177.912 602.49 181.162 603.12C181.322 603.15 181.472 603.2 181.612 603.29C182.212 603.64 182.872 603.77 183.582 603.69C184.072 603.64 184.672 603.69 185.382 603.84C189.562 604.71 192.842 605.56 195.222 606.39C196.842 606.96 198.502 606.93 200.202 606.3C201.062 605.99 202.542 605.69 204.642 605.42C205.082 605.37 205.512 605.23 205.892 605.02C207.202 604.31 208.562 604.35 209.952 605.15C210.192 605.28 210.452 605.37 210.712 605.42C213.522 605.9 215.922 605.22 217.932 603.39C218.142 603.19 218.452 602.86 218.852 602.39C219.562 601.54 220.522 601.12 221.732 601.13C222.742 601.14 223.742 601 224.752 600.72C226.332 600.29 227.832 599.85 229.242 599.41C229.512 599.32 230.522 599.26 232.272 599.22C234.562 599.16 236.622 598.84 238.452 598.25C238.872 598.12 239.332 598.16 239.712 598.37C240.472 598.8 241.192 598.98 241.862 598.9C242.262 598.85 242.662 599.02 242.902 599.35C243.422 600.05 243.502 601.14 244.312 602.06C245.372 603.27 246.762 604.17 248.482 604.75C248.752 604.84 249.042 604.89 249.332 604.89H274.932C275.132 604.89 275.332 604.91 275.522 604.95L301.652 610.44C301.752 610.46 301.842 610.5 301.932 610.56C303.052 611.31 304.812 610.41 305.942 611.29C306.222 611.51 306.562 611.59 306.972 611.53C307.262 611.49 307.612 611.52 308.032 611.61C310.462 612.12 312.082 612.48 312.892 612.69C314.182 613.02 315.932 613.36 318.132 613.69C319.402 613.88 320.562 614.13 321.632 614.43C323.302 614.9 324.472 615.14 325.122 615.15C325.632 615.16 328.382 615.64 333.372 616.6C336.342 617.17 339.702 617.11 343.452 616.42C343.802 616.35 344.162 616.32 344.512 616.32H352.742C353.022 616.32 353.362 616.37 353.742 616.48C354.092 616.58 354.842 616.56 355.992 616.41C358.862 616.05 361.612 616.35 364.232 617.32C364.902 617.57 366.222 617.63 368.212 617.51C368.652 617.48 369.082 617.58 369.462 617.8C370.052 618.13 370.852 618.23 371.872 618.08C372.182 618.04 372.482 618.1 372.752 618.25L373.442 618.65C373.602 618.74 373.792 618.78 373.982 618.75C375.412 618.55 376.662 618.69 377.722 619.18C378.052 619.33 378.412 619.39 378.762 619.35C380.692 619.17 382.212 619.33 383.332 619.84C383.442 619.89 383.552 619.92 383.672 619.92H397.912C398.132 619.92 398.342 619.97 398.532 620.06C399.142 620.34 399.542 620.48 399.752 620.48C420.862 620.57 436.532 620.59 446.782 620.54C447.022 620.54 447.262 620.61 447.472 620.73L447.812 620.93C448.012 621.05 448.242 621.11 448.482 621.11C453.512 621.18 459.012 621.12 464.972 620.95C466.482 620.91 467.492 620.77 467.992 620.53C468.492 620.3 468.762 620.17 468.812 620.15C469.092 619.99 469.412 619.91 469.732 619.91L482.472 619.92C482.592 619.92 482.702 619.88 482.802 619.81C483.482 619.26 484.552 619.11 486.012 619.37C486.432 619.44 486.862 619.32 487.182 619.05C487.512 618.77 487.962 618.66 488.532 618.71C489.082 618.76 489.612 618.57 490.002 618.19C490.722 617.48 491.172 616.95 491.352 616.6C492.082 615.04 493.642 614.03 495.362 614.01L501.922 613.9C502.062 613.9 502.192 613.92 502.322 613.97C503.832 614.55 505.552 614.95 507.472 615.17C507.822 615.21 508.172 615.3 508.502 615.43C511.172 616.46 513.632 617.17 515.892 617.54C517.012 617.73 517.852 618.48 519.242 618.78C520.552 619.06 525.092 620.27 532.882 622.42C535.402 623.11 537.042 623.55 537.792 623.72C539.462 624.1 541.122 624.65 542.752 625.38C542.962 625.47 543.242 625.44 543.592 625.31C543.902 625.19 544.252 625.22 544.532 625.4C545.052 625.73 545.822 626.08 546.852 626.45C547.982 626.86 548.802 627.12 549.302 627.22C552.982 627.97 556.132 628.84 558.742 629.84C560.082 630.35 560.882 629.88 562.052 630.52C563.302 631.21 564.922 631.69 566.912 631.95C567.132 631.98 567.342 632.02 567.552 632.09C573.102 633.8 576.662 634.9 578.232 635.38C578.902 635.58 579.502 635.63 580.022 635.53C580.182 635.5 580.342 635.52 580.482 635.57C583.892 636.8 586.562 637.61 588.472 637.99C590.332 638.36 590.902 639.39 593.082 639.16C593.242 639.14 593.412 639.16 593.562 639.21L600.832 641.55C601.032 641.62 601.242 641.64 601.442 641.61C601.752 641.56 601.942 641.55 602.002 641.58C606.762 643.31 611.632 644.75 616.602 645.9C616.692 645.92 616.982 646.03 617.342 646.19C617.532 646.27 617.662 646.31 617.732 646.32C621.382 646.71 625.002 646.01 628.582 644.24C628.882 644.1 629.202 644.02 629.532 644.03C630.802 644.04 631.692 643.92 632.202 643.66C634.122 642.67 636.452 641.96 639.192 641.53C639.432 641.5 639.662 641.44 639.892 641.35C643.082 640.22 645.462 639.68 647.032 639.71C647.432 639.72 647.822 639.58 648.142 639.33C648.592 638.96 649.882 638.51 652.002 637.97C655.452 637.09 658.962 636.14 662.552 635.12C663.402 634.88 663.842 634.75 663.872 634.74C665.342 634.31 668.322 633.41 672.792 632.04C673.282 631.89 673.672 632 674.082 631.89C679.062 630.56 684.862 628.95 691.482 627.04C692.212 626.83 692.862 626.57 693.412 626.26C694.392 625.73 695.402 626.02 696.652 625.58C698.772 624.84 701.472 624.05 704.762 623.21C708.272 622.3 710.342 621.7 710.972 621.4C712.242 620.78 713.372 621.56 714.612 620.5C714.852 620.3 715.132 620.16 715.422 620.1C721.162 618.89 725.732 617.64 729.132 616.34C730.682 615.75 731.672 615.53 732.102 615.7C732.342 615.8 732.612 615.76 732.812 615.59C733.382 615.11 734.152 615.14 735.102 615.68C735.372 615.83 735.552 616.1 735.602 616.4C736.152 619.63 737.692 621.88 740.232 623.16C742.902 624.51 746.312 624.22 749.762 624.02C750.332 623.99 751.122 623.79 752.112 623.44C754.812 622.48 757.012 621.39 758.712 620.17C759.132 619.88 759.622 619.7 760.142 619.67L769.742 619.15C769.972 619.14 770.192 619.09 770.402 619.02L774.892 617.55C774.922 617.54 774.952 617.53 774.992 617.53H781.512C781.852 617.53 782.192 617.62 782.482 617.79L782.792 617.97C782.962 618.07 783.162 618.12 783.362 618.12H789.992C790.312 618.12 790.632 618.21 790.902 618.39C791.292 618.64 791.572 618.76 791.752 618.75C793.522 618.7 795.922 618.69 798.972 618.7C799.302 618.7 799.622 618.81 799.872 619.01C799.952 619.06 800.032 619.13 800.122 619.2C800.222 619.28 800.332 619.32 800.452 619.32H812.072C812.402 619.32 812.722 619.41 813.002 619.57L813.372 619.79C813.512 619.88 813.682 619.92 813.852 619.92H825.232C825.602 619.92 825.962 620.01 826.292 620.19C826.442 620.27 826.552 620.32 826.602 620.35C826.852 620.47 827.122 620.54 827.402 620.54H832.882C833.032 620.54 833.182 620.58 833.322 620.66C834.642 621.42 838.002 621.13 842.422 621.12C843.262 621.11 844.102 621.17 844.932 621.3C848.722 621.87 851.502 621.98 853.292 621.61C856.862 620.89 860.232 620.89 863.382 621.62C863.642 621.68 863.902 621.71 864.172 621.71H871.392C871.582 621.71 871.762 621.78 871.892 621.91C872.342 622.3 873.052 622.46 874.002 622.39C877.062 622.16 879.532 622.31 881.422 622.84C881.802 622.95 882.212 622.98 882.612 622.93C882.782 622.92 886.162 622.91 892.752 622.92C893.002 622.92 893.442 623.08 894.072 623.39C894.292 623.5 894.532 623.55 894.772 623.55H900.562C900.902 623.55 901.232 623.64 901.522 623.81L901.762 623.95C901.962 624.07 902.192 624.13 902.432 624.13L911.702 624.12C912.112 624.12 912.522 624.21 912.892 624.39C912.942 624.42 913.042 624.47 913.182 624.55C913.402 624.69 913.662 624.76 913.932 624.75L919.002 624.7C919.382 624.7 919.752 624.8 920.072 624.98C920.092 624.99 920.172 625.04 920.322 625.13C920.342 625.14 920.362 625.15 920.392 625.15L941.802 625.99C941.882 625.99 941.972 626.01 942.042 626.06C943.462 626.84 945.812 626.54 949.842 626.55C950.222 626.55 950.582 626.67 950.882 626.88C950.942 626.92 951.012 626.97 951.082 627.04C951.142 627.1 951.232 627.13 951.332 627.13H958.932C959.242 627.13 959.552 627.18 959.852 627.27C962.822 628.22 967.102 627.72 970.252 627.73C970.612 627.73 970.962 627.83 971.262 628.02C971.332 628.06 971.402 628.11 971.472 628.16C971.632 628.28 971.822 628.34 972.022 628.34H984.652C984.772 628.34 984.882 628.36 984.992 628.41C987.442 629.47 990.212 628.35 992.312 629.25C993.082 629.58 995.312 629.66 999.012 629.51C1000.13 629.46 1001.93 629.62 1004.41 629.99C1006.7 630.33 1008.85 630.31 1010.85 629.94C1012.83 629.57 1014.14 629.43 1014.79 629.53C1015.82 629.69 1016.92 629.55 1018.09 629.1C1018.78 628.84 1019.52 628.78 1020.23 628.94L1034.1 631.96C1034.89 632.13 1035.71 631.98 1036.38 631.54C1036.69 631.34 1037.11 631.28 1037.64 631.37C1038.27 631.48 1038.91 631.34 1039.44 630.98C1042 629.23 1044.91 627.93 1048.16 627.06C1049 626.84 1050.39 625.79 1052.34 623.91C1052.59 623.67 1052.92 623.54 1053.26 623.54H1055.72C1055.94 623.54 1056.16 623.48 1056.35 623.36C1056.99 622.95 1058.03 622.8 1059.46 622.9C1059.79 622.93 1060.13 622.89 1060.45 622.79C1062.9 622.03 1065.13 621.67 1067.14 621.7C1067.71 621.71 1068.47 621.55 1069.42 621.2C1069.81 621.07 1070.59 621.05 1071.76 621.14C1072.12 621.17 1072.48 621.08 1072.78 620.88C1074.01 620.05 1074.93 621.06 1075.89 620.17C1076.63 619.47 1079.09 620.29 1080.32 619.52C1080.63 619.33 1081 619.24 1081.36 619.27C1084.19 619.55 1086.91 619.21 1089.52 618.24C1089.84 618.12 1090.19 618.08 1090.53 618.11C1091.85 618.24 1092.85 618.1 1093.53 617.69C1093.69 617.59 1093.88 617.54 1094.07 617.54H1096.34C1096.41 617.54 1096.49 617.53 1096.56 617.51C1099.05 616.78 1101.28 616.38 1103.25 616.3C1104.06 616.26 1104.28 615.7 1105.25 615.68C1108.42 615.63 1111.26 614.82 1113.79 613.24C1114.84 612.58 1115.97 613 1116.73 611.78C1117.01 611.33 1117.42 611.08 1117.96 611.01C1118.28 610.98 1118.75 610.77 1119.37 610.39C1122.92 608.23 1127.26 606.04 1132.39 603.83C1132.61 603.74 1132.85 603.69 1133.09 603.69H1179.69C1180 603.69 1180.3 603.81 1180.52 604.03L1182.86 606.37C1183.19 606.7 1183.67 606.83 1184.13 606.72C1185.63 606.35 1185.64 607.33 1186.94 607.32C1189.05 607.3 1191.42 607.3 1194.05 607.31C1194.32 607.31 1194.58 607.23 1194.8 607.07C1194.88 607.01 1194.95 606.95 1195.01 606.9C1195.07 606.85 1195.14 606.83 1195.21 606.82C1197.86 606.53 1199.86 606.56 1201.19 606.93C1203.54 607.57 1205.44 607.03 1207.61 607.58C1208.79 607.89 1209.49 608.23 1209.72 608.62C1209.89 608.92 1210.2 609.11 1210.54 609.11H1216.36C1216.45 609.11 1216.53 609.09 1216.62 609.05C1219.55 607.73 1223.02 607.54 1227.01 608.47C1228.15 608.74 1229.07 608.92 1229.76 609.01C1230.13 609.06 1232.74 609.09 1237.58 609.1C1237.9 609.1 1238.21 609.17 1238.49 609.31C1240.07 610.08 1241.79 609.39 1243.5 609.96C1244.83 610.39 1246.92 610.49 1249.78 610.25C1250.77 610.16 1251.61 610.33 1252.29 610.76C1252.58 610.95 1252.93 611.03 1253.27 610.98C1255.61 610.69 1257.42 610.85 1258.69 611.47C1259.02 611.64 1259.41 611.65 1259.75 611.52C1259.76 611.51 1261.86 611.51 1266.04 611.51C1266.4 611.51 1266.77 611.56 1267.12 611.67C1268.69 612.15 1270.55 612.28 1272.68 612.06C1273.05 612.02 1273.42 612.08 1273.75 612.23C1275.57 613.06 1278.21 612.09 1279.84 613.11C1280.06 613.25 1280.32 613.32 1280.57 613.32H1288.98C1289.26 613.32 1289.53 613.4 1289.76 613.55C1291.21 614.52 1293.39 613.44 1295.09 614.38C1295.27 614.48 1295.47 614.53 1295.67 614.53H1301.05C1301.44 614.53 1301.83 614.59 1302.21 614.71C1303.75 615.19 1305.42 615.31 1307.22 615.07C1307.69 615 1308.17 615.07 1308.61 615.25C1309.81 615.74 1311.86 615.89 1314.76 615.68C1315.32 615.63 1315.88 615.69 1316.42 615.86C1318.61 616.52 1320.99 616.57 1323.56 616C1325.1 615.67 1326.82 615.56 1328.73 615.68C1329.87 615.76 1330.83 614.85 1330.82 613.71L1330.8 609.15C1330.8 608.88 1330.91 608.61 1331.11 608.42C1331.12 608.41 1331.17 608.33 1331.27 608.17C1331.35 608.04 1331.4 607.89 1331.39 607.74C1331.32 600.72 1331.33 585.06 1331.42 560.75C1331.42 560.51 1331.52 560.15 1331.72 559.68C1332.25 558.43 1331.78 557.17 1332.37 555.82C1332.51 555.5 1332.58 555.15 1332.58 554.79V518.21C1332.58 517.93 1332.51 517.65 1332.38 517.4C1331.54 515.78 1332.51 514.12 1331.58 512.69C1331.29 512.24 1331.23 511.71 1331.42 511.1C1331.52 510.75 1331.42 510.37 1331.15 510.11C1330.94 509.91 1330.82 509.52 1330.78 508.95C1330.68 507.51 1329.94 505.82 1329.3 504.6C1329.07 504.17 1328.95 503.69 1328.95 503.2V499.94C1328.95 499.57 1328.85 499.22 1328.66 498.91C1327.85 497.62 1326.96 496.62 1325.97 495.91C1325.56 495.61 1325.27 495.18 1325.14 494.69L1323.1 486.8C1323.07 486.69 1323.06 486.59 1323.05 486.48C1322.9 484.41 1322.48 482.09 1321.79 479.53C1321.68 479.13 1321.69 477.47 1321.81 474.54C1321.82 474.36 1321.88 474.18 1321.98 474.04L1325.53 468.78C1325.8 468.38 1325.95 467.9 1325.95 467.42V453.35C1325.95 452.95 1325.88 452.56 1325.73 452.19C1324.65 449.32 1324.42 446.56 1325.04 443.89C1325.34 442.61 1325.45 441.67 1325.37 441.06C1325.22 439.93 1325.36 439.14 1325.78 438.71C1325.89 438.6 1325.95 438.45 1325.95 438.3V433.89C1325.95 433.61 1326.03 433.34 1326.18 433.1C1327.2 431.53 1326.02 429.6 1326.96 427.93C1327.13 427.63 1327.21 427.29 1327.18 426.95C1326.99 423.92 1327.34 420.95 1328.23 418.02C1328.26 417.91 1328.28 417.8 1328.29 417.69L1329.08 405.78C1329.08 405.75 1329.09 405.72 1329.11 405.69C1329.56 404.81 1329.71 403.82 1329.57 402.72C1329.51 402.29 1329.64 401.86 1329.92 401.54C1329.93 401.53 1329.97 401.47 1330.03 401.37C1330.13 401.21 1330.17 401.03 1330.16 400.85C1330.05 399.56 1330.19 398.5 1330.58 397.67C1330.71 397.39 1330.78 397.09 1330.78 396.78C1330.78 394.48 1330.65 393.19 1330.94 391.42C1331.25 389.47 1331.77 385.38 1332.5 379.14C1333.01 374.77 1333.24 370.67 1333.19 366.83C1333.16 364.49 1333.15 352.72 1333.17 331.51C1333.17 331.26 1333.05 330.97 1332.82 330.65C1332.66 330.44 1332.58 330.19 1332.59 329.94C1332.63 321.45 1332.58 316.38 1332.45 314.75C1332.45 314.72 1332.34 314.3 1332.13 313.47C1332.1 313.36 1332.08 313.24 1332.08 313.13L1331.1 291.21C1331.1 291.18 1331.1 291.16 1331.09 291.14C1330.92 290.86 1330.84 290.65 1330.83 290.5C1330.78 287.39 1330.77 282.91 1330.8 277.08C1330.8 276.72 1330.7 276.37 1330.51 276.07C1330.45 275.98 1330.4 275.91 1330.37 275.85C1330.23 275.65 1330.16 275.41 1330.16 275.16V267.84C1330.16 267.55 1330.07 267.27 1329.91 267.04C1329.89 267.01 1329.83 266.93 1329.73 266.79C1329.61 266.63 1329.55 266.43 1329.56 266.23C1329.58 263.87 1330.07 259.08 1329.14 257.1C1329.01 256.84 1328.95 256.56 1328.95 256.28V236.75C1328.95 236.57 1328.99 236.39 1329.07 236.23L1329.51 235.25C1329.56 235.16 1329.58 235.06 1329.58 234.96V213.51C1329.58 213.12 1329.66 212.74 1329.82 212.39C1329.86 212.3 1329.9 212.21 1329.94 212.12C1330.09 211.78 1330.16 211.41 1330.16 211.03V167.79C1330.16 167.6 1330.13 167.41 1330.08 167.22C1329.34 164.8 1328.97 162.52 1328.96 160.37C1328.96 160.03 1328.91 159.7 1328.82 159.37C1327.92 156.16 1327.3 152.47 1326.95 148.29C1326.88 147.46 1326.7 146.66 1326.43 145.9C1326.06 144.88 1325.91 144.04 1325.97 143.38C1326.03 142.74 1326 142.35 1325.87 142.22C1325.78 142.13 1325.66 141.96 1325.52 141.73C1325.35 141.43 1325.28 141.08 1325.33 140.74C1325.59 139.1 1324.76 138.23 1324.76 136.72C1324.75 128.41 1324.76 121.93 1324.77 117.26C1324.77 116.46 1324.25 115.89 1324.23 115.26C1324.11 112.18 1324.1 102.59 1324.19 86.5001C1324.2 85.9101 1324.41 85.4202 1324.83 85.0302C1327.37 82.7002 1328.13 77.3201 1327.76 75.2201C1327.46 73.5101 1327.28 72.2101 1327.21 71.3101C1327.13 70.2401 1326.86 68.9501 1326.39 67.4301C1325.02 62.9701 1324.12 60.4301 1323.69 59.8101C1323.42 59.4001 1322.91 58.1201 1322.18 55.9701C1321.24 53.1701 1322.19 50.3401 1321.28 47.4401C1321.17 47.1001 1321.12 46.7401 1321.13 46.3801C1321.16 42.8301 1321.44 39.5501 1320.77 38.4301C1320.63 38.2101 1320.56 37.9501 1320.56 37.6901V25.7901C1320.56 25.4801 1320.48 25.1701 1320.32 24.8901L1320.08 24.4801C1319.99 24.3201 1319.94 24.1301 1319.94 23.9401V15.8701C1319.94 15.5601 1319.9 15.2601 1319.82 14.9701C1319.05 12.1101 1316.95 11.3101 1313.52 12.5701C1313.28 12.6601 1313.03 12.7001 1312.77 12.7001H1305.14C1304.97 12.7001 1304.8 12.7401 1304.66 12.8301L1304.15 13.1301C1303.95 13.2501 1303.72 13.3101 1303.48 13.3101H1293.99C1293.66 13.3101 1293.34 13.3901 1293.04 13.5401C1292.88 13.6301 1292.77 13.6801 1292.72 13.7101C1292.48 13.8301 1292.2 13.9001 1291.92 13.9001H1282.8C1282.46 13.9001 1282.12 13.9701 1281.8 14.1001C1281.15 14.3601 1280.71 14.4901 1280.5 14.4901C1276.77 14.4801 1274.43 14.4901 1273.49 14.5101C1273.12 14.5201 1272.75 14.6301 1272.43 14.8301C1272.4 14.8401 1272.33 14.9001 1272.21 14.9901C1272.13 15.0601 1272.02 15.1001 1271.91 15.1001H1263.95C1263.56 15.1001 1263.19 15.2101 1262.86 15.4101C1262.81 15.4401 1262.73 15.4901 1262.64 15.5401C1262.48 15.6401 1262.29 15.6901 1262.1 15.6901H1247.74C1247.38 15.6901 1247.03 15.7901 1246.72 15.9901C1246.7 16.0001 1246.62 16.0601 1246.48 16.1601C1246.35 16.2601 1246.19 16.3101 1246.03 16.3101H1236.1C1235.79 16.3101 1235.49 16.3901 1235.23 16.5501L1234.96 16.7001C1234.72 16.8401 1234.46 16.9101 1234.19 16.9101H1225.57C1225.3 16.9101 1225.04 17.0101 1224.85 17.2001L1224.66 17.3901C1224.58 17.4701 1224.46 17.5201 1224.34 17.5201H1214.48C1214.19 17.5201 1213.9 17.6001 1213.64 17.7501C1213.49 17.8401 1213.4 17.8901 1213.35 17.9201C1213.15 18.0401 1212.91 18.1101 1212.67 18.1101H1203.88C1203.79 18.1101 1203.71 18.1201 1203.62 18.1501C1201.73 18.8001 1199.32 18.9401 1196.4 18.5601C1195.76 18.4801 1195.2 18.1001 1194.89 17.5301L1191.42 11.2901C1191.4 11.2501 1191.37 11.2101 1191.34 11.1801C1188.32 7.65011 1184.44 6.52012 1179.71 7.78012C1179.38 7.87012 1179.03 7.90013 1178.69 7.88013C1176.02 7.75013 1174 7.92013 1172.61 8.38013C1172.26 8.50013 1171.89 8.55011 1171.51 8.52011C1169.1 8.34011 1167.41 8.40012 1166.42 8.69012C1164.93 9.13012 1163.81 9.27012 1163.05 9.12012C1162.24 8.95012 1161.27 9.08012 1160.16 9.50012C1159.84 9.62012 1159.51 9.68011 1159.17 9.68011C1156.79 9.70011 1154.13 9.31014 1152.47 10.1401C1151.04 10.8501 1149.23 9.72012 1147.77 10.7201C1147.57 10.8501 1147.34 10.9201 1147.11 10.9201L1143.06 10.8701C1142.66 10.8601 1142.27 10.9701 1141.92 11.1801C1141.91 11.1901 1141.84 11.2401 1141.69 11.3301C1141.53 11.4301 1141.35 11.4901 1141.16 11.4901H1133.8C1133.59 11.4901 1133.39 11.5601 1133.22 11.6801C1131.79 12.6801 1129.54 11.7701 1127.71 12.5601C1127.4 12.7001 1127.06 12.7601 1126.72 12.7401C1124.35 12.5801 1122.78 12.6301 1122.01 12.8901C1119.7 13.6601 1118.48 12.9101 1116.31 13.7301C1116 13.8401 1115.67 13.9001 1115.35 13.9001H1109.38C1109.23 13.9001 1109.08 13.9701 1108.99 14.0901C1108.24 15.0001 1105.76 14.1901 1104.5 14.9101C1104.19 15.0901 1103.83 15.1601 1103.47 15.1301C1101.61 14.9601 1100.02 15.1101 1098.69 15.5801C1098.46 15.6601 1098.22 15.7001 1097.98 15.7001H1090.4C1090.19 15.7001 1089.98 15.7801 1089.83 15.9301C1089.48 16.2801 1089.04 16.4201 1088.49 16.3501C1086.76 16.1201 1085.43 16.2701 1084.48 16.7901C1084.34 16.8701 1084.19 16.9101 1084.04 16.9101H1078.84C1078.6 16.9101 1078.37 16.9501 1078.15 17.0401C1076.88 17.5701 1075.38 17.7101 1073.64 17.4801C1073.29 17.4301 1072.94 17.4901 1072.63 17.6501C1071.69 18.1401 1070.25 18.2801 1068.31 18.0501C1067.96 18.0001 1067.61 18.0601 1067.29 18.2201C1064.91 19.4101 1062.04 18.1701 1059.83 19.1701C1059.47 19.3301 1059.08 19.3901 1058.69 19.3601C1056.24 19.1501 1054.24 19.3201 1052.67 19.8701C1052.59 19.9001 1052.51 19.9101 1052.43 19.9101H1046.51C1046.16 19.9101 1045.81 19.9801 1045.48 20.1101C1044.33 20.5801 1043 20.7101 1041.5 20.5001C1041.18 20.4501 1040.85 20.5301 1040.58 20.7101C1040.09 21.0601 1039.39 21.2001 1038.5 21.1501C1035.91 21.0001 1034.07 21.0601 1033 21.3301C1030.79 21.9001 1025.96 21.2901 1024.9 21.9801C1023.55 22.8501 1021.5 21.8601 1019.69 22.7101C1019.4 22.8501 1019.09 22.9201 1018.77 22.9201H1003.96C1003.79 22.9201 1003.61 22.9001 1003.44 22.8501C1001.8 22.4101 999.982 22.2401 997.982 22.3301C996.652 22.4001 995.012 22.2601 993.062 21.9101C990.382 21.4301 986.952 22.1301 984.072 21.3101C983.112 21.0401 981.722 21.0001 979.912 21.1701C979.392 21.2201 978.872 21.0901 978.442 20.8101C978.132 20.6001 977.732 20.5001 977.232 20.4901C976.892 20.4801 976.622 20.1901 976.632 19.8501L976.742 16.3301C976.762 15.8101 977.392 15.5601 977.762 15.9301L980.382 18.5401C980.772 18.9301 981.392 18.9401 981.792 18.5801C985.062 15.6101 985.892 20.2701 988.752 17.6701C989.712 16.8001 990.542 16.2201 991.252 15.9301C991.472 15.8401 991.722 15.7901 991.962 15.7901H997.572C997.972 15.7901 998.342 15.9701 998.592 16.2901L999.912 17.9801C1000.05 18.1701 1000.26 18.3101 1000.5 18.3701C1001.8 18.6901 1003.45 18.0901 1004.44 18.5601C1004.85 18.7601 1005.23 18.9001 1005.59 18.9801C1006.17 19.1001 1006.76 19.1301 1007.34 19.0701C1009.55 18.8601 1011.78 18.6901 1014.01 18.5601C1014.85 18.5101 1015.31 17.8101 1015.4 16.4401C1015.43 16.0301 1015.78 15.7101 1016.19 15.7301C1017.51 15.8001 1018.54 15.7001 1019.27 15.4501C1021.23 14.7601 1021.81 15.1901 1023.76 15.8701C1024 15.9501 1024.22 16.0801 1024.4 16.2401C1027.21 18.7601 1030.2 17.1401 1032.36 14.9801C1032.6 14.7501 1032.89 14.5901 1033.22 14.5101C1033.55 14.4401 1034.06 14.2601 1034.73 13.9701C1035.72 13.5601 1037.31 13.1601 1039.51 12.7801C1041.1 12.5001 1042.81 12.9401 1044.49 12.4401C1046.69 11.7901 1049.27 12.6501 1051.36 11.7201C1053.12 10.9401 1055.24 11.9501 1057.04 11.0401C1057.33 10.8901 1057.67 10.8201 1058 10.8401C1059.69 10.9301 1062.51 10.9301 1066.46 10.8301C1067.09 10.8101 1068.14 10.3001 1068.96 10.3001C1073.11 10.3101 1075.95 10.3101 1077.5 10.3101C1077.71 10.3101 1077.99 10.1901 1078.36 9.95013C1078.63 9.78013 1078.94 9.69012 1079.26 9.69012H1090.22C1090.27 9.69012 1090.33 9.68013 1090.38 9.66013C1092.24 9.09013 1094.38 8.91014 1096.8 9.14014C1098.01 9.25014 1099.97 9.09012 1102.68 8.65012C1104.43 8.36012 1107.21 8.34012 1111.02 8.59012C1111.3 8.61012 1111.57 8.51012 1111.77 8.31012L1111.98 8.10013C1112.11 7.97013 1112.3 7.89014 1112.49 7.89014H1125.8C1126.09 7.89014 1126.38 7.85012 1126.67 7.78012C1128.78 7.23012 1131.14 7.09012 1133.76 7.34012C1134.8 7.44012 1135.59 7.29013 1136.12 6.88013C1136.29 6.75013 1136.5 6.68011 1136.72 6.68011H1147.52C1147.75 6.68011 1147.98 6.63013 1148.19 6.54013C1149.29 6.05013 1150.81 5.91012 1152.75 6.12012C1154.06 6.26012 1154.84 5.46011 1156.12 5.46011C1159.87 5.45011 1162.82 5.47013 1164.98 5.51013C1165.34 5.52013 1165.7 5.41011 1166.01 5.21011C1166.09 5.16011 1166.14 5.12011 1166.16 5.11011C1166.41 4.95011 1166.71 4.87012 1167.01 4.87012L1174.07 4.90012C1174.43 4.90012 1174.78 4.80011 1175.08 4.61011C1175.09 4.60011 1175.13 4.57012 1175.22 4.50012C1175.38 4.36012 1175.59 4.29013 1175.8 4.29013C1179.65 4.30013 1184.55 4.30011 1190.5 4.30011C1190.73 4.30011 1191.03 4.18013 1191.38 3.95013C1191.64 3.77013 1191.95 3.67014 1192.27 3.67014H1204.66C1204.95 3.67014 1205.24 3.63012 1205.52 3.56012C1207.5 3.03012 1209.83 2.88013 1212.5 3.13013C1213.45 3.22013 1214.32 3.05012 1215.1 2.62012C1215.28 2.52012 1215.49 2.46011 1215.7 2.46011H1226.45C1226.69 2.46011 1226.92 2.40012 1227.12 2.28012L1227.68 1.96011C1227.77 1.91011 1227.88 1.88013 1227.99 1.88013H1237.73C1238.11 1.88013 1238.49 1.79011 1238.82 1.61011C1238.89 1.58011 1238.96 1.53013 1239.05 1.48013C1239.28 1.36013 1239.53 1.29013 1239.79 1.29013H1246.73C1247.08 1.29013 1247.42 1.19013 1247.72 1.01013C1247.79 0.960132 1247.86 0.910107 1247.95 0.860107C1248.15 0.740107 1248.37 0.670135 1248.61 0.670135H1261.44C1261.6 0.670135 1261.77 0.630131 1261.91 0.540131L1262.47 0.220123C1262.56 0.170123 1262.66 0.140137 1262.76 0.140137H1282.01C1283.22 0.140137 1284.26 1.03013 1284.44 2.23013L1284.58 3.13013C1284.62 3.39013 1284.74 3.63011 1284.93 3.83011C1286.2 5.14011 1286.9 5.85013 1287.02 5.95013C1289.51 7.99013 1291.67 7.93012 1293.51 5.78012C1293.74 5.51012 1294.13 5.43013 1294.45 5.60013C1296.03 6.44013 1297.59 6.80014 1299.13 6.67014C1299.38 6.65014 1299.64 6.71012 1299.87 6.84012L1300.63 7.28012C1300.96 7.47012 1301.37 7.44011 1301.67 7.21011C1303.42 5.84011 1305.08 5.67011 1306.67 6.68011C1307 6.89011 1307.43 6.84013 1307.7 6.57013L1309.02 5.24011C1309.36 4.90011 1309.85 4.75012 1310.32 4.84012C1311.45 5.05012 1312.35 4.74011 1313.04 3.93011C1313.22 3.71011 1313.56 3.72013 1313.73 3.95013C1314.42 4.85013 1315.62 5.31012 1316.65 4.34012C1318.34 2.75012 1320.19 2.61014 1322.2 3.92014C1322.57 4.16014 1322.99 4.29013 1323.42 4.29013C1325.9 4.30013 1327.42 3.73012 1328.73 5.59012C1328.92 5.86012 1329.21 6.04011 1329.54 6.08011C1330.88 6.26011 1331.82 6.09013 1332.37 5.57013C1332.59 5.36013 1332.94 5.38011 1333.14 5.61011C1334.48 7.20011 1334.76 8.91012 1333.99 10.7501C1332.77 13.6301 1331.87 17.3201 1331.3 21.8201C1331.09 23.4301 1330.36 25.2801 1329.1 27.3701C1328.49 28.3901 1328.25 29.5601 1328.39 30.8801C1328.42 31.1601 1328.36 31.4501 1328.2 31.7001C1327.47 32.8201 1327.48 34.0001 1328.21 35.2501C1328.35 35.4801 1328.4 35.7501 1328.37 36.0201C1328.22 37.3401 1328.64 39.0401 1329.63 41.1301C1330.56 43.1101 1331.37 45.9001 1332.04 49.4901C1332.09 49.7701 1332.22 50.0301 1332.4 50.2501C1332.73 50.6601 1332.76 51.1601 1332.49 51.7501C1332.33 52.0801 1332.42 52.4901 1332.71 52.7201C1333.2 53.1201 1333.32 53.8101 1333.08 54.7901C1333.03 54.9501 1333.04 55.1301 1333.1 55.2901L1337.33 67.4801C1337.35 67.5401 1337.36 67.6001 1337.37 67.6701C1337.41 68.2801 1337.4 69.7501 1337.35 72.0901C1337.3 74.1901 1338.49 75.8901 1337.55 78.2001C1337.39 78.6001 1337.32 79.0301 1337.35 79.4601C1337.5 81.5201 1337.48 82.9701 1337.29 83.8101C1336.86 85.7101 1336.69 87.1901 1336.78 88.2601C1336.89 89.5201 1336.75 90.8301 1336.36 92.1801C1336.25 92.5801 1336.19 92.9901 1336.19 93.4101C1336.17 98.2001 1336.16 103.16 1336.16 108.31C1336.16 110.22 1336.96 111.71 1336.83 113.69C1336.83 113.71 1336.83 113.73 1336.84 113.75L1338.61 123.01C1338.73 123.64 1338.71 124.28 1338.55 124.89C1337.38 129.28 1336.6 132.31 1336.2 134C1335.9 135.26 1336.55 136.53 1335.83 137.9C1335.67 138.21 1335.58 138.55 1335.58 138.89V157.31C1335.58 157.6 1335.67 157.88 1335.83 158.12C1336.81 159.62 1335.61 161.66 1336.63 163.32C1336.74 163.5 1336.8 163.7 1336.8 163.91V180.53C1336.8 180.89 1336.88 181.23 1337.04 181.55C1337.12 181.7 1337.16 181.77 1337.16 181.78C1337.3 182.07 1337.38 182.39 1337.38 182.72V204.01C1337.38 204.34 1337.41 204.66 1337.48 204.97C1337.81 206.43 1338.1 207.74 1338.36 208.91C1338.77 210.71 1338.17 213.15 1338.99 214.34C1339.32 214.81 1339.15 216 1339.45 217.04C1340.27 219.91 1340.81 222.62 1341.08 225.17C1341.19 226.28 1341.58 227.72 1342.23 229.51C1342.93 231.4 1342.67 232.99 1343.13 234.83C1343.82 237.63 1344.24 239.81 1344.39 241.37C1344.58 243.46 1345.01 245.63 1345.67 247.88C1345.76 248.19 1346.51 251.16 1347.91 256.81C1348.1 257.6 1348.2 258.41 1348.2 259.22C1348.19 262.41 1348.19 266.84 1348.19 272.5C1348.19 272.69 1348.08 272.9 1347.86 273.12C1347.56 273.41 1347.38 273.8 1347.37 274.21L1346.54 298.72C1346.53 299.04 1346.58 299.35 1346.69 299.65C1347.34 301.49 1346.37 305.3 1348.41 307.17C1351.41 309.92 1350.08 312.19 1351.08 315.62C1351.16 315.91 1351.2 316.2 1351.2 316.49V331.75C1351.2 332.07 1351.14 332.4 1351.03 332.71C1350.16 335.14 1349.26 338.71 1348.34 343.44C1348.19 344.25 1348.14 344.96 1348.19 345.58C1348.26 346.3 1348.12 346.86 1347.78 347.25C1347.7 347.34 1347.65 347.46 1347.64 347.59L1346.29 370.44C1346.28 370.53 1346.26 370.62 1346.22 370.71L1345.89 371.38C1345.84 371.48 1345.81 371.59 1345.81 371.7V379.36C1345.81 379.42 1345.8 379.48 1345.79 379.54C1345.3 381.19 1345.09 382.61 1345.17 383.8C1345.28 385.53 1345.18 386.82 1344.87 387.65C1344.65 388.24 1344.58 390.16 1344.66 393.4C1344.69 395.01 1344.56 396.91 1344.26 399.11C1343.94 401.38 1343.87 404.51 1344.04 408.5C1344.06 408.93 1343.98 409.36 1343.8 409.75C1342.78 411.98 1344.09 414.71 1342.92 416.49C1342.73 416.78 1342.67 417.13 1342.77 417.45C1342.82 417.61 1342.83 423.13 1342.8 434.01C1342.8 434.23 1342.92 434.51 1343.15 434.84C1343.35 435.12 1343.44 435.47 1343.38 435.82C1343.12 437.47 1344.11 438.96 1344.01 440.81C1343.87 443.26 1344.05 445.18 1344.55 446.59C1344.58 446.68 1344.6 446.78 1344.6 446.88V452.48C1344.6 452.77 1344.68 453.05 1344.82 453.3C1345.35 454.21 1345.36 455.08 1344.85 455.89C1344.69 456.14 1344.6 456.44 1344.6 456.75V475.1C1344.6 475.34 1344.55 475.58 1344.44 475.8C1343.8 477.12 1344.11 478.42 1343.67 480.02C1343.11 482.01 1343.18 484.14 1343.88 486.39C1343.95 486.64 1343.99 486.9 1343.99 487.16V492.19C1343.99 492.48 1344.07 492.76 1344.21 493L1344.47 493.46C1344.56 493.6 1344.6 493.77 1344.6 493.93V504.57C1344.6 504.89 1344.65 505.22 1344.74 505.53C1345.23 507.24 1345.37 509.33 1345.14 511.78C1344.99 513.33 1345.84 514.37 1345.83 515.78C1345.81 518.45 1345.81 521.98 1345.82 526.37C1345.82 526.72 1345.87 526.97 1345.97 527.1C1346.06 527.23 1346.15 527.36 1346.22 527.49C1346.34 527.7 1346.4 527.93 1346.4 528.17V537.19C1346.4 537.32 1346.43 537.45 1346.48 537.58C1347.49 539.81 1347.01 545.76 1347 552.33C1347 552.71 1347.07 553.1 1347.2 553.46C1347.96 555.58 1347 558.27 1348.02 559.96C1348.13 560.14 1348.19 560.35 1348.19 560.57V573.7C1348.19 574.19 1348.27 574.68 1348.42 575.14C1349.33 577.94 1348.82 582.57 1348.82 585.58C1348.82 586.07 1348.88 586.56 1349 587.04C1349.48 588.91 1349.59 591.08 1349.34 593.54C1349.32 593.73 1349.34 593.92 1349.4 594.1L1352.87 604.87C1352.91 604.99 1352.93 605.11 1352.94 605.24C1353.03 608.18 1353.4 610.37 1354.04 611.81C1354.71 613.32 1356.1 614.57 1358.2 615.58C1360.97 616.92 1362.9 618.5 1362.64 621.53C1362.55 622.48 1362.69 623.25 1363.04 623.84C1363.57 624.72 1362.85 625.95 1363.51 627.03C1364.28 628.28 1363.38 630.18 1364.26 631.66C1364.53 632.11 1364.57 632.78 1364.39 633.69C1364.33 634.02 1364.39 634.37 1364.57 634.66C1365.07 635.47 1365.23 636.22 1365.06 636.91C1364.74 638.12 1364.33 639.31 1363.84 640.47C1363.67 640.88 1362.94 641.61 1361.67 642.66C1361.43 642.87 1361.08 642.92 1360.79 642.79C1359.38 642.18 1358.18 641.23 1357.19 639.92C1357.06 639.75 1356.89 639.61 1356.7 639.51L1354.01 638.16C1353.72 638.02 1353.41 637.95 1353.09 637.95H1343.25C1343 637.95 1342.75 637.89 1342.53 637.77C1341.64 637.3 1340.23 637.17 1338.3 637.38C1338.22 637.39 1338.14 637.39 1338.07 637.38L1329.98 636.11C1329.84 636.09 1329.72 636.03 1329.62 635.93C1329.47 635.78 1329.36 635.7 1329.29 635.69C1327.78 635.44 1324.61 634.97 1319.77 634.26C1319.6 634.23 1319.45 634.16 1319.33 634.04C1319.01 633.74 1318.47 633.65 1317.71 633.76C1316.14 633.98 1314.96 632.92 1313.05 633.18C1312.71 633.23 1312.37 633.11 1312.13 632.86C1311.79 632.51 1311.19 632.42 1310.34 632.61C1310.02 632.68 1309.68 632.61 1309.41 632.42C1309.2 632.27 1308.89 632.09 1308.5 631.9C1307.93 631.61 1306.97 631.44 1305.62 631.39C1304.45 631.34 1303.72 631.33 1303.44 631.36C1303.12 631.39 1302.8 631.31 1302.54 631.12C1301.93 630.67 1301.15 630.56 1300.2 630.8C1299.87 630.89 1299.52 630.81 1299.26 630.58C1298.86 630.24 1298.23 630.1 1297.36 630.15C1295.76 630.24 1295.63 629.19 1294.17 629.55C1293.87 629.62 1293.43 629.6 1292.85 629.49C1291.18 629.16 1288.95 628.8 1286.18 628.43C1285.85 628.38 1285.53 628.28 1285.23 628.11C1284.46 627.66 1283.52 627.56 1282.43 627.8C1282.11 627.88 1281.77 627.83 1281.47 627.67C1280.41 627.11 1279 626.95 1277.24 627.2C1276.88 627.25 1276.51 627.14 1276.23 626.9C1275.46 626.25 1273.61 626.65 1272.31 626.23C1270.68 625.7 1268.91 625.34 1266.99 625.15C1266.64 625.12 1266.3 625.05 1265.96 624.96C1263.75 624.36 1261.88 624.07 1260.37 624.1C1260.15 624.1 1259.93 624.01 1259.78 623.84C1259.59 623.64 1259.42 623.54 1259.25 623.54C1240.48 623.55 1230.99 623.55 1230.76 623.56C1230.48 623.55 1230.2 623.52 1229.93 623.45L1213.21 619.28C1212.85 619.18 1212.47 619.25 1212.16 619.45C1211.47 619.9 1210.48 620.05 1209.17 619.9C1209.08 619.89 1209 619.9 1208.92 619.93L1205.57 621.09C1205.24 621.2 1204.98 621.45 1204.84 621.76C1204.12 623.39 1202.35 625.61 1200 624.54C1198.79 623.99 1197.35 624.42 1196.5 623.78C1196.2 623.56 1195.84 623.46 1195.47 623.49C1193.18 623.68 1191.57 623.64 1190.66 623.37C1189.07 622.9 1187.8 622.74 1186.83 622.89C1185.48 623.08 1184.39 622.95 1183.55 622.49C1183.45 622.44 1183.34 622.4 1183.23 622.39L1172.68 621.1C1172.61 621.09 1172.55 621.09 1172.48 621.1C1169.71 621.22 1168 621.13 1167.33 620.84C1165.69 620.12 1163.77 621 1162.08 620.09C1161.72 619.9 1161.3 619.83 1160.89 619.89C1159.7 620.06 1158.73 619.94 1157.99 619.51C1157.77 619.38 1157.52 619.31 1157.27 619.31L1150.84 619.33C1150.56 619.33 1150.29 619.29 1150.02 619.2C1150 619.19 1149.85 619.1 1149.56 618.93C1149.32 618.78 1149.04 618.7 1148.75 618.7H1138.5C1138.21 618.7 1137.93 618.82 1137.73 619.02L1137.54 619.21C1137.38 619.37 1137.15 619.45 1136.92 619.41C1134.85 619.06 1133.17 619.47 1131.88 620.66C1131.63 620.89 1131.32 621.03 1130.99 621.08C1130.98 621.08 1130.89 621.09 1130.72 621.11C1130.49 621.13 1130.27 621.21 1130.07 621.34C1128.38 622.48 1126.66 623.45 1124.93 624.25C1124.42 624.49 1124.06 624.76 1123.84 625.06C1123.65 625.31 1123.36 625.42 1122.95 625.38C1122.67 625.35 1122.35 625.44 1122 625.65C1120.63 626.44 1119.51 627.03 1118.64 627.41C1118.16 627.61 1117.64 627.72 1117.12 627.72H1101.85C1101.59 627.72 1101.34 627.79 1101.12 627.92L1097.87 629.8C1097.67 629.91 1097.52 630.09 1097.44 630.31C1097.3 630.7 1097.17 630.94 1097.05 631.03C1095 632.62 1092.73 633.33 1090.23 633.15C1089.48 633.09 1089.29 633.28 1088.75 633.62C1088.53 633.77 1088.33 633.83 1088.16 633.81C1086.39 633.6 1084.67 633.9 1083.01 634.71C1082.6 634.9 1082.16 634.98 1081.71 634.95C1079.7 634.8 1077.5 634.98 1075.1 635.48C1073.86 635.74 1072.25 636 1070.27 636.25C1068.97 636.42 1067.36 636.63 1065.43 636.88C1065.26 636.91 1065.13 636.95 1065.05 637.02C1064.95 637.11 1064.77 637.27 1064.63 637.28C1061.96 637.46 1059.27 637.82 1056.57 638.36C1053.78 638.91 1051.96 639.19 1051.12 639.2C1051.1 639.2 1050.58 639.18 1049.57 639.14C1049.07 639.12 1048.58 639.19 1048.11 639.34C1046.83 639.75 1045.52 639.88 1044.19 639.73C1043.94 639.7 1043.7 639.79 1043.53 639.97C1043.51 639.99 1043.44 640.06 1043.32 640.17C1043.26 640.23 1043.18 640.27 1043.1 640.28C1039.18 640.77 1036.53 641.17 1035.14 641.5C1034.47 641.65 1033.88 641.68 1033.39 641.57C1032.86 641.45 1032.39 641.56 1031.98 641.9C1031.83 642.02 1031.65 642.1 1031.46 642.12C1029.89 642.3 1028.19 642.97 1026.36 642.85C1025.53 642.79 1024.77 642.89 1024.08 643.15C1023.42 643.4 1022.31 643.57 1020.76 643.67C1019.16 643.78 1016.75 644.13 1013.54 644.72C1011.67 645.07 1010.46 645.22 1009.91 645.18C1009.16 645.13 1007.97 645.3 1006.34 645.67C1004.78 646.02 1002.87 645.89 1000.6 645.28C1000.32 645.21 1000.03 645.17 999.742 645.17C997.652 645.18 995.872 645.16 994.392 645.12C993.142 645.09 992.292 644.94 991.862 644.68C991.582 644.51 991.292 644.35 990.992 644.19C990.692 644.04 990.352 643.96 990.012 643.96H985.132C984.952 643.96 984.772 643.94 984.602 643.89C978.962 642.36 975.982 641.75 972.992 640.02C972.712 639.86 972.392 639.77 972.072 639.77H967.232C966.892 639.77 966.562 639.87 966.292 640.06L962.572 642.57C962.442 642.66 962.292 642.72 962.142 642.77C959.302 643.68 956.442 643.69 953.562 642.82C953.472 642.79 953.372 642.78 953.272 642.78H948.282C948.012 642.78 947.752 642.74 947.492 642.67C945.642 642.14 943.652 641.98 941.512 642.2C940.862 642.27 940.322 642.14 939.902 641.81C939.702 641.65 939.462 641.57 939.212 641.57H929.862C929.792 641.57 929.732 641.56 929.662 641.54C927.932 640.94 925.462 640.76 922.252 641.01C921.402 641.08 920.612 640.92 919.862 640.55C919.582 640.41 919.282 640.34 918.972 640.35L911.872 640.38C911.592 640.38 911.312 640.27 911.092 640.08C911.032 640.03 910.962 639.95 910.892 639.86C910.852 639.8 910.792 639.77 910.732 639.77H900.812C900.602 639.77 900.392 639.73 900.202 639.64C898.212 638.71 893.242 639.13 888.572 639.18C888.212 639.18 887.852 639.06 887.572 638.83C887.542 638.8 887.492 638.74 887.402 638.65C887.352 638.6 887.282 638.57 887.212 638.57H880.662C880.392 638.57 880.132 638.64 879.912 638.78C879.742 638.89 879.642 638.95 879.632 638.97C879.422 639.21 879.102 639.31 878.802 639.21C878.212 639.02 877.642 639.07 877.092 639.37C875.602 640.18 874.162 639.48 872.782 639.99C870.922 640.67 869.172 640.99 867.532 640.95C866.942 640.93 866.282 641.09 865.552 641.42C864.312 641.98 862.442 641.09 861.332 641.9C861.082 642.08 860.782 642.17 860.472 642.15C858.262 642.03 855.892 642.31 853.362 642.99C852.072 643.34 851.052 643.47 850.312 643.39C849.132 643.26 848.282 643.39 847.752 643.77C847.642 643.85 847.512 643.9 847.382 643.92L835.542 645.21C835.462 645.22 835.382 645.25 835.312 645.29C834.502 645.72 833.092 645.9 831.102 645.81C830.712 645.79 830.332 645.88 829.992 646.07C829.382 646.42 828.482 646.5 827.292 646.33C826.942 646.28 826.592 646.34 826.282 646.49C824.362 647.42 822.172 646.67 819.732 647.48C819.402 647.59 819.052 647.63 818.712 647.6C816.882 647.44 815.482 647.61 814.492 648.11C814.212 648.25 813.872 648.26 813.592 648.12C813.512 648.08 811.932 648.34 808.842 648.91C807.672 649.12 806.112 649.32 804.182 649.51C800.472 649.86 798.432 650.12 798.072 650.28C796.602 650.93 795.402 650.15 794.382 650.97C793.832 651.42 791.762 651.02 790.862 651.32C789.462 651.78 787.852 651.94 786.032 651.79C785.692 651.76 785.342 651.86 785.062 652.06C784.682 652.33 783.952 652.44 782.872 652.37C782.452 652.34 781.712 652.41 780.642 652.58C770.212 654.16 760.292 655.47 750.902 656.5C749.592 656.65 748.012 656.9 746.162 657.25C743.822 657.7 742.222 657.9 741.362 657.83C741.072 657.8 740.792 657.87 740.552 658.03C739.932 658.42 738.882 658.54 737.392 658.37C736.942 658.32 736.492 658.38 736.082 658.56C735.142 658.95 734.132 659.08 733.042 658.96C732.582 658.92 732.122 659.05 731.762 659.33C731.732 659.35 731.712 659.37 731.692 659.39C731.542 659.53 731.352 659.61 731.152 659.61C724.722 659.44 719.232 661.47 714.682 665.7C713.292 666.99 711.562 667.75 709.482 667.98C707.192 668.23 704.762 668.77 702.192 669.61C701.752 669.76 701.282 669.83 700.802 669.83H698.882C698.762 669.83 698.652 669.88 698.572 669.97C698.162 670.4 697.092 670.55 695.382 670.4C695.012 670.37 694.632 670.44 694.302 670.6C692.872 671.31 691.592 671.65 690.442 671.61C689.192 671.56 688.022 671.73 686.932 672.11C686.742 672.18 685.682 672.26 683.742 672.35C683.472 672.36 683.212 672.4 682.942 672.45C673.722 674.3 667.242 675.42 663.502 675.83C662.972 675.88 662.472 676.03 662.002 676.26C661.832 676.35 661.642 676.39 661.452 676.39C658.812 676.41 656.532 676.75 654.622 677.4C652.802 678.03 651.432 678.27 650.522 678.12C650.222 678.07 649.632 678.25 648.752 678.64C648.662 678.69 648.562 678.72 648.452 678.74L642.402 680.05C642.372 680.06 642.342 680.06 642.312 680.06H637.202C636.502 680.06 635.902 679.59 635.722 678.92C635.392 677.65 634.902 676.75 634.252 676.2C633.102 675.23 632.512 674.71 632.462 674.66C630.842 672.93 629.682 671.86 628.982 671.45C628.972 671.44 628.952 671.43 628.942 671.41L625.242 665C625.012 664.61 624.682 664.29 624.292 664.07C621.582 662.59 618.732 661.45 615.742 660.66C613.742 660.13 612.432 659.76 611.812 659.53C610.992 659.24 609.652 658.87 607.782 658.44C607.552 658.39 607.322 658.31 607.102 658.21C605.692 657.57 604.472 657.21 603.442 657.14C603.102 657.11 602.772 657.03 602.462 656.89C600.752 656.15 599.152 655.63 597.672 655.34C596.172 655.05 594.872 654.38 593.782 653.34C593.712 653.27 593.642 653.22 593.552 653.19L583.022 649.47C582.652 649.34 582.262 649.3 581.872 649.36C580.372 649.59 579.152 649.31 578.202 648.53C577.922 648.3 577.572 648.17 577.212 648.17H574.682C574.482 648.17 574.292 648.12 574.122 648.03C572.752 647.33 571.412 647.32 570.102 647.99C569.722 648.18 569.292 648.24 568.872 648.17C567.042 647.84 565.142 648.58 563.182 650.39C563.032 650.53 562.912 650.71 562.842 650.91L561.822 653.75C561.732 654 561.502 654.17 561.242 654.19C559.942 654.3 558.872 653.39 558.172 653.62C557.552 653.82 556.692 653.02 555.952 652.76C552.062 651.38 547.362 649.69 541.832 647.68C540.132 647.06 539.122 646.7 538.792 646.6C532.462 644.65 526.192 642.43 519.972 639.95C519.662 639.83 519.332 639.77 518.992 639.78C518.462 639.79 505.302 639.78 479.512 639.74C478.772 639.74 477.852 639.56 476.752 639.21C475.562 638.82 474.392 638.38 473.252 637.89C472.362 637.5 471.442 637.31 470.482 637.34C469.932 637.35 469.102 637.34 467.982 637.33C466.472 637.32 465.392 637.15 464.762 636.84C464.342 636.64 464.002 636.48 463.742 636.36C463.442 636.22 463.112 636.15 462.782 636.15H445.802C445.662 636.15 445.532 636.09 445.432 635.99C445.062 635.6 444.422 635.45 443.502 635.53C441.752 635.68 440.492 635.63 439.732 635.37C438.522 634.95 437.332 634.81 436.182 634.95C434.272 635.18 432.312 634.57 430.302 633.14C428.712 632.01 426.952 630.93 425.022 629.91C424.142 629.44 423.102 629.36 422.162 629.68L413.942 632.48C413.792 632.53 413.632 632.56 413.472 632.56H405.262C405.012 632.56 404.772 632.63 404.552 632.76C403.342 633.5 401.722 632.97 400.162 633.39C395.392 634.7 391.502 635.86 388.492 636.89C388.212 636.99 387.972 637.15 387.772 637.37C386.012 639.35 384.412 640.34 382.982 640.34C375.112 640.36 364.772 640.37 351.952 640.36C351.552 640.36 351.152 640.26 350.802 640.08C350.782 640.07 350.752 640.05 350.722 640.03C350.362 639.8 349.942 639.69 349.512 639.73C347.792 639.88 346.372 639.8 345.252 639.48C344.892 639.37 344.562 639.17 344.302 638.9C342.012 636.54 339.442 633.88 336.192 634.38C335.862 634.43 335.522 634.32 335.272 634.09C334.952 633.78 334.512 633.66 333.962 633.72C333.392 633.78 332.942 633.77 332.592 633.7C329.622 633.07 327.502 632.6 326.232 632.3C324.082 631.79 322.722 631.52 322.142 631.48C320.422 631.37 319.062 631.17 318.062 630.86C317.392 630.65 314.812 630.1 310.322 629.23C310.152 629.2 308.022 628.78 303.912 627.96C301.172 627.42 298.832 627.14 296.882 627.11C296.582 627.11 296.292 627.01 296.042 626.83C296.032 626.82 295.992 626.79 295.922 626.73C295.802 626.62 295.642 626.56 295.482 626.59C294.452 626.74 292.542 626.38 289.742 625.53C289.452 625.44 288.542 625.32 287.002 625.19C286.352 625.13 285.362 624.96 284.032 624.67C282.602 624.36 281.342 623.97 280.232 623.5C279.632 623.25 278.802 623.1 277.752 623.06C275.482 622.96 274.192 622.91 273.892 622.91C272.792 622.92 271.832 622.74 271.012 622.38C269.172 621.56 267.382 621.15 265.652 621.14C265.322 621.13 264.992 621.08 264.672 620.99C263.092 620.5 260.912 620.02 258.132 619.57C254.262 618.94 250.422 619.11 246.622 620.08C246.112 620.21 244.872 620.49 242.882 620.9C235.992 622.34 230.852 623.27 227.472 623.68C227.212 623.71 226.962 623.79 226.722 623.9C225.122 624.63 223.642 624.9 222.292 624.72C222.112 624.69 221.942 624.76 221.822 624.89C221.672 625.06 221.472 625.17 221.242 625.22C216.332 626.11 213.272 626.67 212.062 626.9C209.272 627.43 207.182 627.73 205.792 627.8C205.762 627.81 204.962 628.06 203.392 628.55C203.032 628.67 202.662 628.76 202.282 628.81C198.672 629.34 195.272 628.87 192.082 627.39C191.762 627.24 191.422 627.15 191.082 627.1C188.892 626.83 187.052 626.25 185.562 625.37C185.492 625.33 185.342 625.33 185.092 625.38C184.932 625.41 184.752 625.39 184.562 625.33C181.712 624.4 175.192 622.3 164.992 619.04C163.702 618.63 162.422 618.32 161.132 618.11C161.092 618.1 161.052 618.09 161.022 618.08L150.922 614.71C150.862 614.69 150.802 614.66 150.752 614.63C149.422 613.84 148.012 613.38 146.522 613.27C146.512 613.27 146.492 613.27 146.482 613.26L137.082 610.29C136.942 610.24 136.802 610.24 136.662 610.28C136.012 610.46 135.502 610.37 135.132 610C134.782 609.65 134.002 609.62 132.802 609.91C128.892 610.87 125.412 610.5 122.342 608.79C121.782 608.48 121.122 608.37 120.492 608.48C119.482 608.66 118.632 608.53 117.952 608.09C117.752 607.96 117.522 607.89 117.292 607.89H100.822C100.472 607.89 100.132 607.97 99.8119 608.11C98.4619 608.72 96.7619 608.1 95.8219 608.85C95.4319 609.16 94.9819 609.24 94.4719 609.11C93.1319 608.76 92.8719 609.92 91.3919 609.7C91.0119 609.65 90.6019 609.7 90.1719 609.87C88.3219 610.57 86.5519 610.92 84.8419 610.92C84.5219 610.92 84.2219 610.99 83.9419 611.13C82.4119 611.9 81.1519 612.22 80.1819 612.08C80.1119 612.07 80.0319 612.07 79.9619 612.1L75.9719 613.29C75.9019 613.31 75.8219 613.32 75.7419 613.31C74.6719 613.22 73.3719 613.53 71.8219 614.25C71.6019 614.36 71.3619 614.42 71.1219 614.44C67.3519 614.79 63.8319 615.58 60.5619 616.79C60.2119 616.92 59.8319 616.97 59.4619 616.93C58.1519 616.79 57.1619 616.94 56.5119 617.38C56.3619 617.48 56.1819 617.54 56.0019 617.54H47.4919C47.1519 617.54 46.8319 617.65 46.5619 617.86C46.5219 617.89 46.4619 617.94 46.3719 618.02C46.3019 618.08 46.2119 618.11 46.1219 618.11H32.9019C32.7919 618.11 32.6919 618.13 32.6019 618.16C30.8419 618.75 28.1519 618.91 24.5319 618.63C24.1719 618.6 23.8219 618.7 23.5219 618.89C21.0419 620.5 19.6319 621.63 19.2919 622.3C18.2719 624.28 17.5619 625.5 17.1519 625.97C15.3519 628.04 14.1219 629.7 13.4619 630.95C13.3319 631.2 13.0719 631.35 12.7919 631.35H11.1319C10.8119 631.35 10.5518 631.09 10.5518 630.78V626.18C10.5518 625.9 10.4519 625.62 10.2719 625.39C9.82185 624.81 9.81186 624.23 10.2219 623.64C10.2819 623.56 10.3219 623.47 10.3419 623.37L13.4919 609.57C13.5319 609.4 13.5419 609.24 13.5319 609.07C13.4419 608.1 13.6318 607.09 14.0818 606.04C14.3118 605.52 14.2519 604.97 13.8919 604.38C13.7319 604.12 13.6319 603.82 13.6219 603.51C13.3919 598.59 11.9019 594.04 9.14188 589.86C9.05188 589.71 8.97186 589.56 8.90186 589.39L6.48187 582.92C6.39187 582.66 6.34186 582.38 6.34186 582.1V523.92C6.34186 523.52 6.26187 523.12 6.10187 522.75C5.65187 521.7 5.53186 520.4 5.75186 518.86C5.78186 518.65 5.76185 518.43 5.71185 518.23L4.21185 512.18C4.18185 512.05 4.13186 511.93 4.06186 511.81C1.99186 507.94 1.16186 504.13 1.59186 500.37C1.64186 499.98 1.53185 499.58 1.30185 499.25C1.29185 499.24 1.23185 499.16 1.11185 498.99C0.991847 498.82 0.921875 498.61 0.921875 498.4V487.73C0.921875 487.27 1.02187 486.81 1.20187 486.39C2.00187 484.62 2.30186 483.01 2.09186 481.58C1.86186 479.96 2.95186 478.35 2.69186 476.33C2.64186 475.92 2.72185 475.51 2.93185 475.16L3.24185 474.62C3.38185 474.39 3.43188 474.12 3.39188 473.86C3.17188 472.15 3.31185 470.78 3.80185 469.75C3.89185 469.57 3.93185 469.37 3.93185 469.17V466.22C3.93185 466.06 3.98187 465.91 4.07187 465.77C4.86187 464.61 4.44186 462.51 4.75186 460.82C5.45186 456.92 5.76188 454.52 5.67188 453.61C5.64188 453.28 5.71187 452.94 5.85187 452.64C6.36187 451.57 6.50187 449.9 6.29187 447.64C6.24187 447.22 6.33186 446.78 6.53186 446.4C6.96186 445.56 7.08187 444.49 6.88187 443.2C6.83187 442.84 6.91185 442.47 7.11185 442.17C7.59185 441.46 7.72185 440.26 7.49185 438.57C7.44185 438.19 7.53186 437.81 7.72186 437.49C8.67186 435.92 7.71185 433.46 8.49185 431.55C8.72185 430.98 8.80186 430 8.72186 428.6C8.70186 428.2 8.81186 427.81 9.03186 427.48C9.80186 426.33 8.91185 425 9.71185 423.81C9.92185 423.49 10.0119 423.11 9.96185 422.74C9.79185 421.41 9.92186 420.31 10.3719 419.44C10.4819 419.22 10.5419 418.97 10.5419 418.71V415.57C10.5419 415.42 10.5919 415.28 10.6919 415.16C11.1019 414.65 11.2519 413.77 11.1219 412.54C11.1119 412.45 11.1119 412.37 11.1219 412.29L12.4419 401.67C12.4519 401.57 12.4919 401.48 12.5419 401.39C12.9819 400.72 13.1019 399.35 12.9019 397.29C12.8719 396.88 12.9419 396.48 13.1019 396.11C13.5519 395.09 13.6919 393.79 13.5219 392.22C13.4719 391.7 13.5919 391.21 13.8919 390.83C14.1019 390.55 14.2019 390.21 14.1719 389.86C14.0419 388.63 14.1519 387.5 14.4919 386.47C14.9019 385.22 14.4519 383.28 15.0019 382.48C15.7819 381.35 15.0819 379.36 15.7519 377.93C15.9519 377.49 16.0319 377.01 15.9819 376.53C15.7919 374.66 15.9119 373.1 16.3419 371.85C16.4919 371.43 16.5619 370.98 16.5719 370.53C16.6019 368.06 17.0019 365.47 17.7519 362.74C18.1419 361.31 18.3319 360.24 18.3219 359.51C18.3019 357.6 18.3219 356.35 18.3819 355.74C18.4019 355.31 18.5219 354.89 18.7319 354.52L22.4019 347.9C22.4419 347.83 22.4719 347.75 22.4919 347.66L24.2719 341.58C24.3419 341.37 24.3719 341.16 24.3719 340.94V330.66C24.3819 329.82 24.2718 328.98 24.0518 328.17C23.9618 327.84 23.7419 326.78 23.3719 324.97C22.8019 322.15 23.1819 319.14 23.1619 315.09C23.1619 314.56 23.0919 314.03 22.9419 313.52C22.3019 311.23 21.9619 309.12 21.9219 307.17C21.9119 306.87 21.8619 306.57 21.7619 306.29C20.8219 303.7 20.4619 300.9 20.6819 297.88C20.6919 297.78 20.7119 297.68 20.7419 297.59L22.5219 291.59C22.6119 291.28 22.6119 290.96 22.5219 290.66C21.5619 287.52 20.8819 284.09 20.4819 280.36C20.1619 277.34 19.8419 275.11 19.5219 273.67C19.1919 272.13 18.8018 269.91 18.3618 267C17.9918 264.55 17.5219 262.3 16.9419 260.23C16.6119 259.03 16.4819 258.05 16.5619 257.28C16.6919 256.06 16.5419 255.22 16.1219 254.76C15.8819 254.5 15.8119 254.12 15.9419 253.79C16.0719 253.47 15.8819 252.24 15.3819 250.09C15.2019 249.32 14.9919 248.12 14.7619 246.49C13.9519 240.89 13.2119 236.84 12.5419 234.33C12.2719 233.32 11.0919 232 8.99185 230.37C8.70185 230.14 8.46187 229.83 8.32187 229.48C7.77187 228.14 7.50186 226.99 7.53186 226.02C7.55186 225.49 7.48185 224.96 7.33185 224.45C6.05185 220.04 6.08185 215.82 7.43185 211.81C7.51185 211.56 7.55185 211.31 7.55185 211.06V189.65C7.55185 189.44 7.62185 189.24 7.74185 189.07C8.21185 188.43 8.33185 187.21 8.08185 185.4C8.02185 184.99 8.12187 184.57 8.35187 184.22C9.20187 182.93 8.37187 181.47 9.17188 179.96C9.75187 178.85 10.0019 177.59 9.92188 176.16C9.89188 175.72 10.0219 175.28 10.2719 174.92C10.3019 174.88 10.3119 174.85 10.3219 174.84C10.5419 174.52 10.6319 174.13 10.5719 173.74C10.3119 171.88 11.2919 170.33 11.7519 168.39C13.6819 160.4 15.7118 152.67 17.8618 145.2C17.8918 145.08 17.9619 144.98 18.0419 144.9C18.4119 144.56 18.5219 144.11 18.3819 143.55C18.2319 142.95 18.2219 142.59 18.3519 142.46C18.3619 142.45 18.4919 142.27 18.7319 141.92C18.8719 141.71 18.9519 141.46 18.9519 141.21V132.51C18.9519 132.23 18.9019 131.94 18.8119 131.68C18.3219 130.19 18.1819 128.21 18.4119 125.76C18.5019 124.84 18.3219 124.15 17.8819 123.68C17.6519 123.44 17.5919 123.08 17.7119 122.77C17.9119 122.24 17.8719 121.72 17.5919 121.21C16.6519 119.53 17.6419 117.91 16.9819 116.41C16.5119 115.32 16.3819 113.64 16.6019 111.39C16.6519 110.96 16.5819 110.53 16.4219 110.13C15.5919 108.15 16.1119 105.6 15.6519 103.33C15.0419 100.26 14.7119 97.2101 14.6819 94.1601C14.6719 93.8301 14.5819 93.5001 14.4219 93.2101C14.1319 92.7001 14.0519 91.5901 14.1819 89.9001C14.2519 88.8601 14.0919 87.7801 13.6919 86.6701C13.4819 86.0801 13.4518 84.9301 13.6118 83.2301C13.6518 82.8901 13.5719 82.5401 13.3919 82.2401C12.4819 80.7401 13.2619 78.7901 12.7319 77.2301C12.2919 75.9501 12.1819 73.7201 12.3919 70.5301C12.4219 70.0201 12.3519 69.5101 12.1719 69.0401C11.6919 67.7701 11.5519 66.1701 11.7619 64.2401C11.8519 63.4101 11.7818 62.7601 11.5518 62.2801C10.8118 60.7501 11.5719 59.9001 10.7719 58.8101C10.5619 58.5301 10.4619 58.1801 10.4919 57.8301C10.8219 54.1001 10.2519 50.6501 8.78186 47.5001C8.66186 47.2501 8.67186 46.9601 8.81186 46.7301L9.17188 46.1101C9.35188 45.7901 9.35187 45.4101 9.16187 45.0901C8.31187 43.6601 9.09186 42.3301 8.28186 40.5301C7.53186 38.8701 9.00186 35.4001 9.72186 33.6901C10.1619 32.6501 11.6819 32.8701 11.8219 33.9901C11.8319 34.1001 11.8019 34.4401 11.7119 35.0001C11.4719 36.6101 10.8519 38.5401 9.85187 40.7901C9.65187 41.2501 9.63187 41.7601 9.79187 42.2401L10.5619 44.4401C10.6119 44.5901 10.7519 44.6901 10.9119 44.6801Z" fill="#FFE44C"/>
</svg>
